<svg width="1920" height="1080" viewBox="0 0 1920 1080" fill="none" xmlns="http://www.w3.org/2000/svg">
<line y1="537" x2="1920" y2="537" stroke="#A5239F" stroke-width="6"/>
<path d="M-14.1472 631.384L1935.15 444.616" stroke="#A5239F" stroke-width="6"/>
<path d="M-24.5091 785.956L1938.73 321.264" stroke="#A5239F" stroke-width="6"/>
<path d="M1620 -8.74207e-08L1622 1107" stroke="#A5239F" stroke-width="6"/>
<path d="M300 1088L298 -19" stroke="#A5239F" stroke-width="6"/>
<path d="M1716 -8.74207e-08L1718 1107" stroke="#A5239F" stroke-width="6"/>
<path d="M204 1093L202 -14" stroke="#A5239F" stroke-width="6"/>
<path d="M1812 1L1814 1108" stroke="#A5239F" stroke-width="6"/>
<path d="M108 1088L106 -19" stroke="#A5239F" stroke-width="6"/>
<path d="M-11.7698 930.734L1925.99 176.486" stroke="#A5239F" stroke-width="6"/>
<path d="M-12.1565 177.481L1926.38 929.739" stroke="#A5239F" stroke-width="6"/>
<path d="M71.7453 8.55965L1842.48 1098.66" stroke="#A5239F" stroke-width="6"/>
<path d="M94.3879 1133.84L1819.83 -26.615" stroke="#A5239F" stroke-width="6"/>
<path d="M-22.5581 313.754L1937.69 763.377" stroke="#A5239F" stroke-width="6"/>
<path d="M-11.081 428.868L1932.08 647.132" stroke="#A5239F" stroke-width="6"/>
</svg>
