<svg width="571" height="433" viewBox="0 0 571 433" fill="none" xmlns="http://www.w3.org/2000/svg">
<path d="M9.5 91.5L2.5 96V410.5L59.5 427.773M9.5 91.5V146H30.5V91.5M9.5 91.5L15 12.9999C12.6 2.9999 24.3333 2.16657 30.5 2.9999C187.833 5.4999 505.3 10.4999 516.5 10.4999C527.7 10.4999 529.833 15.4999 529.5 17.9999L533.5 90.4999M514 89.9999L515 39.9999C516.2 35.1999 511.167 34.6666 508.5 34.9999L36 30.5C30.8 30.1 30.1667 32 30.5 33V91.5M514 89.9999L533.5 90.4999M514 89.9999L367.5 90.4999M533.5 90.4999C537.833 90.1666 546.9 90.8 548.5 96H559L565.5 152.5C566.5 153.333 568.5 155.6 568.5 158C568.5 160.4 566.5 308.667 565.5 382.5C565.833 384 565.7 387 562.5 387C558.5 387 555 388 555 393.5L500.5 396.5V400.5L483 401.5V398.5L156.5 421.5V425.5L136.5 427V424.5L68.5 430.5L59.5 427.773M24.5 12.9999L21 137M367.5 90.4999V80H323.5M367.5 90.4999H326.5M226 90.4999V80H261M226 90.4999H264M226 90.4999L62.5 91.3363M30.5 91.5L62.5 91.3363M323.5 80C325 80.4999 327.7 83.2998 326.5 90.4999M323.5 80H303.5M326.5 90.4999H305.5M303.5 80C304.667 80.6666 306.7 83.6998 305.5 90.4999M303.5 80H283M305.5 90.4999H285M283 80C284 80.9999 285.8 84.4998 285 90.4999M283 80H261M285 90.4999H264M261 80C262.667 80.4999 265.6 83.2998 264 90.4999M62.5 91.3363C59.6667 92.0575 53.5 94.8 51.5 100V416.5C51.6667 418.515 53.5 423.591 59.5 427.773M276 292.5V210C275.833 208.5 276.5 205.5 280.5 205.5C284.5 205.5 353.5 203.833 387.5 203C388.667 203.167 390.9 204.1 390.5 206.5L389 287.5L276 292.5ZM289.5 269.5V214.5L376 211.5V267L289.5 269.5ZM331.5 233H341C345 234 350.6 237.4 341 243H330.5C328.833 240.667 326.7 235.4 331.5 233Z" stroke="white" stroke-width="4"/>
<ellipse cx="161.5" cy="303.5" rx="76.5" ry="90.5" fill="white"/>
<path d="M245.5 303.5C245.5 358.98 207.661 403.5 161.5 403.5C115.339 403.5 77.5 358.98 77.5 303.5C77.5 248.02 115.339 203.5 161.5 203.5C207.661 203.5 245.5 248.02 245.5 303.5Z" stroke="white" stroke-width="3"/>
<ellipse cx="491.5" cy="292" rx="63.5" ry="80" fill="white"/>
<path d="M559 292C559 339.168 528.579 377 491.5 377C454.421 377 424 339.168 424 292C424 244.832 454.421 207 491.5 207C528.579 207 559 244.832 559 292Z" stroke="white" stroke-width="2"/>
<rect x="95.3444" y="170.284" width="132" height="27" transform="rotate(-0.680041 95.3444 170.284)" stroke="white" stroke-width="3"/>
<rect x="432.393" y="164.437" width="113.762" height="27" transform="rotate(-1.25092 432.393 164.437)" stroke="white" stroke-width="3"/>
<path d="M430.984 103.579L428.007 103.935L430.856 134.422L156.917 138.478L156.541 105.278L491.296 101.485L491.659 133.522L435.467 134.354L430.984 103.579ZM434.194 137.373L491.693 136.522L491.747 141.219L156.991 145.012L156.951 141.478L432.522 137.398L434.194 137.373Z" stroke="white" stroke-width="3"/>
<path d="M188.5 304C188.5 316.005 179.644 325.5 169 325.5C158.356 325.5 149.5 316.005 149.5 304C149.5 291.995 158.356 282.5 169 282.5C179.644 282.5 188.5 291.995 188.5 304Z" stroke="black" stroke-width="3"/>
<circle cx="498.5" cy="291.5" r="17" stroke="black" stroke-width="3"/>
</svg>
