<svg width="367" height="232" viewBox="0 0 367 232" fill="none" xmlns="http://www.w3.org/2000/svg">
<path fill-rule="evenodd" clip-rule="evenodd" d="M363.585 8.70946V137.761L366.777 144.305V200.937L363.585 204.927V218.174L363.577 218.255C363.298 220.995 362.771 223.153 361.492 224.698C360.163 226.303 358.269 226.961 356.022 227.329L355.894 227.35H306.434L301.965 231.5H63.3381L57.4326 227.35H12.3181C12.2954 227.351 12.2671 227.352 12.2335 227.352C12.1637 227.352 12.0708 227.352 11.958 227.347C11.7331 227.338 11.4252 227.314 11.0613 227.255C10.3393 227.138 9.3594 226.877 8.36662 226.291C6.26555 225.052 4.469 222.577 4.469 218.093V203.911L0 199.442V142.811L4.469 137.544V8.63856L4.47214 8.58852C4.66845 5.46687 5.54123 2.98519 8.05618 1.53176C10.3254 0.22036 13.6525 -0.048143 18.0571 0.0699131H348.072C350.721 -0.0319282 352.984 -0.0319368 354.884 0.132962C356.779 0.297507 358.415 0.633737 359.748 1.26875C361.126 1.92533 362.163 2.89564 362.808 4.23944C363.428 5.53107 363.626 7.04367 363.585 8.70946ZM59.7141 225.052L64.3475 228.308H300.711L305.18 224.158H305.702L297.876 173.364C297.37 172.198 296.862 171.567 296.03 171.102C295.052 170.556 293.469 170.152 290.573 169.892H77.6655C75.4359 170.166 74.0684 170.547 73.0455 171.108C72.1041 171.625 71.3373 172.36 70.4437 173.581L59.7141 225.052ZM308.932 224.158L300.971 172.49L300.897 172.312C300.21 170.659 299.311 169.278 297.586 168.315C295.974 167.415 293.795 166.972 290.785 166.706L290.715 166.7H77.4735L77.3786 166.711C74.945 167.003 73.0768 167.449 71.5091 168.31C69.9117 169.187 68.7693 170.416 67.647 172.003L67.4555 172.274L56.6397 224.158H12.2488L12.2231 224.16C12.2232 224.16 12.223 224.16 12.2231 224.16C12.2226 224.16 12.2214 224.16 12.2197 224.16C12.2169 224.16 12.2123 224.16 12.2062 224.16C12.1848 224.16 12.1439 224.16 12.0865 224.158C11.9711 224.153 11.7927 224.14 11.573 224.104C11.1279 224.032 10.5516 223.874 9.98818 223.541C8.97691 222.945 7.66114 221.589 7.66114 218.093V202.589L3.19214 198.12V143.983L7.66114 138.716V8.73989C7.83438 6.1005 8.50279 4.96052 9.65342 4.29555C11.0532 3.4866 13.5219 3.14045 17.9924 3.26147L18.014 3.26205H348.134L348.165 3.26086C350.777 3.15974 352.897 3.16462 354.608 3.31314C356.33 3.46265 357.535 3.75031 358.375 4.15047C359.169 4.52907 359.635 5.00522 359.931 5.62063C360.248 6.28299 360.429 7.23534 360.393 8.64773L360.393 8.66821V138.499L363.585 145.042V199.817L360.393 203.807V218.011C360.123 220.596 359.662 221.903 359.033 222.662C358.46 223.354 357.542 223.832 355.631 224.158H308.932Z" fill="white"/>
<path d="M357.839 211.868C357.839 217.863 352.98 222.722 346.986 222.722C340.992 222.722 336.132 217.863 336.132 211.868C336.132 205.874 340.992 201.015 346.986 201.015C352.98 201.015 357.839 205.874 357.839 211.868Z" fill="#D9D9D9" fill-opacity="0.5"/>
<path fill-rule="evenodd" clip-rule="evenodd" d="M346.986 221.764C352.451 221.764 356.881 217.334 356.881 211.868C356.881 206.403 352.451 201.973 346.986 201.973C341.52 201.973 337.09 206.403 337.09 211.868C337.09 217.334 341.52 221.764 346.986 221.764ZM346.986 222.722C352.98 222.722 357.839 217.863 357.839 211.868C357.839 205.874 352.98 201.015 346.986 201.015C340.992 201.015 336.132 205.874 336.132 211.868C336.132 217.863 340.992 222.722 346.986 222.722Z" fill="white"/>
<path d="M344.345 206.597L353.116 215.368L350.485 217.999L341.714 209.228L344.345 206.597Z" fill="white"/>
<path d="M353.116 209.228L344.345 217.999L341.714 215.368L350.485 206.597L353.116 209.228Z" fill="white"/>
<path d="M357.52 15.5518C357.52 21.5459 352.66 26.4051 346.666 26.4051C340.672 26.4051 335.813 21.5459 335.813 15.5518C335.813 9.55772 340.672 4.69855 346.666 4.69855C352.66 4.69855 357.52 9.55772 357.52 15.5518Z" fill="#D9D9D9" fill-opacity="0.5"/>
<path fill-rule="evenodd" clip-rule="evenodd" d="M346.666 25.4475C352.131 25.4475 356.562 21.017 356.562 15.5518C356.562 10.0866 352.131 5.65619 346.666 5.65619C341.201 5.65619 336.771 10.0866 336.771 15.5518C336.771 21.017 341.201 25.4475 346.666 25.4475ZM346.666 26.4051C352.66 26.4051 357.52 21.5459 357.52 15.5518C357.52 9.55772 352.66 4.69855 346.666 4.69855C340.672 4.69855 335.813 9.55772 335.813 15.5518C335.813 21.5459 340.672 26.4051 346.666 26.4051Z" fill="white"/>
<path d="M344.026 10.2802L352.797 19.051L350.165 21.6822L341.395 12.9114L344.026 10.2802Z" fill="white"/>
<path d="M352.797 12.9115L344.026 21.6823L341.395 19.051L350.165 10.2803L352.797 12.9115Z" fill="white"/>
<path d="M30.9639 15.5518C30.9639 21.5459 26.1047 26.4051 20.1106 26.4051C14.1165 26.4051 9.25732 21.5459 9.25732 15.5518C9.25732 9.55772 14.1165 4.69855 20.1106 4.69855C26.1047 4.69855 30.9639 9.55772 30.9639 15.5518Z" fill="#D9D9D9" fill-opacity="0.5"/>
<path fill-rule="evenodd" clip-rule="evenodd" d="M20.1106 25.4475C25.5758 25.4475 30.0062 21.017 30.0062 15.5518C30.0062 10.0866 25.5758 5.65619 20.1106 5.65619C14.6454 5.65619 10.215 10.0866 10.215 15.5518C10.215 21.017 14.6454 25.4475 20.1106 25.4475ZM20.1106 26.4051C26.1047 26.4051 30.9639 21.5459 30.9639 15.5518C30.9639 9.55772 26.1047 4.69855 20.1106 4.69855C14.1165 4.69855 9.25732 9.55772 9.25732 15.5518C9.25732 21.5459 14.1165 26.4051 20.1106 26.4051Z" fill="white"/>
<path d="M17.4702 10.2802L26.241 19.051L23.6098 21.6822L14.839 12.9114L17.4702 10.2802Z" fill="white"/>
<path d="M26.241 12.9115L17.4702 21.6823L14.839 19.051L23.6097 10.2803L26.241 12.9115Z" fill="white"/>
<path d="M30.6445 212.507C30.6445 218.501 25.7854 223.36 19.7913 223.36C13.7972 223.36 8.93799 218.501 8.93799 212.507C8.93799 206.513 13.7972 201.654 19.7913 201.654C25.7854 201.654 30.6445 206.513 30.6445 212.507Z" fill="#D9D9D9" fill-opacity="0.5"/>
<path fill-rule="evenodd" clip-rule="evenodd" d="M19.7913 222.402C25.2565 222.402 29.6869 217.972 29.6869 212.507C29.6869 207.042 25.2565 202.611 19.7913 202.611C14.3261 202.611 9.89563 207.042 9.89563 212.507C9.89563 217.972 14.3261 222.402 19.7913 222.402ZM19.7913 223.36C25.7854 223.36 30.6445 218.501 30.6445 212.507C30.6445 206.513 25.7854 201.654 19.7913 201.654C13.7972 201.654 8.93799 206.513 8.93799 212.507C8.93799 218.501 13.7972 223.36 19.7913 223.36Z" fill="white"/>
<path d="M17.1509 207.235L25.9216 216.006L23.2904 218.637L14.5196 209.866L17.1509 207.235Z" fill="white"/>
<path d="M25.9216 209.867L17.1509 218.637L14.5196 216.006L23.2904 207.235L25.9216 209.867Z" fill="white"/>
<path d="M190.251 193.354C190.251 197.233 187.107 200.377 183.229 200.377C179.35 200.377 176.206 197.233 176.206 193.354C176.206 189.475 179.35 186.331 183.229 186.331C187.107 186.331 190.251 189.475 190.251 193.354Z" fill="#D9D9D9" fill-opacity="0.5"/>
<path d="M105.021 216.976C105.021 220.854 101.877 223.999 97.9988 223.999C94.1202 223.999 90.9761 220.854 90.9761 216.976C90.9761 213.097 94.1202 209.953 97.9988 209.953C101.877 209.953 105.021 213.097 105.021 216.976Z" fill="#D9D9D9" fill-opacity="0.5"/>
<path d="M275.482 216.976C275.482 220.854 272.338 223.999 268.459 223.999C264.58 223.999 261.436 220.854 261.436 216.976C261.436 213.097 264.58 209.953 268.459 209.953C272.338 209.953 275.482 213.097 275.482 216.976Z" fill="#D9D9D9" fill-opacity="0.5"/>
<path d="M226.323 209.953C226.323 207.838 228.038 206.123 230.153 206.123H236.218C238.334 206.123 240.049 207.838 240.049 209.953V214.103C240.049 216.218 238.334 217.933 236.218 217.933H230.153C228.038 217.933 226.323 216.218 226.323 214.103V209.953Z" fill="#D9D9D9" fill-opacity="0.5"/>
<path d="M126.409 209.953C126.409 207.838 128.124 206.123 130.239 206.123H136.304C138.42 206.123 140.135 207.838 140.135 209.953V214.103C140.135 216.218 138.42 217.933 136.304 217.933H130.239C128.124 217.933 126.409 216.218 126.409 214.103V209.953Z" fill="#D9D9D9" fill-opacity="0.5"/>
<path d="M167.587 104.134C167.587 136.837 141.076 163.348 108.373 163.348C75.67 163.348 49.1589 136.837 49.1589 104.134C49.1589 71.4306 75.67 44.9195 108.373 44.9195C141.076 44.9195 167.587 71.4306 167.587 104.134Z" fill="#D9D9D9" fill-opacity="0.5"/>
<path fill-rule="evenodd" clip-rule="evenodd" d="M108.373 128.554C121.86 128.554 132.793 117.62 132.793 104.134C132.793 90.647 121.86 79.7138 108.373 79.7138C94.8864 79.7138 83.9533 90.647 83.9533 104.134C83.9533 117.62 94.8864 128.554 108.373 128.554ZM108.373 163.348C141.076 163.348 167.587 136.837 167.587 104.134C167.587 71.4306 141.076 44.9195 108.373 44.9195C75.67 44.9195 49.1589 71.4306 49.1589 104.134C49.1589 136.837 75.67 163.348 108.373 163.348Z" fill="white" fill-opacity="0.75"/>
<path d="M317.299 104.134C317.299 136.837 290.788 163.348 258.085 163.348C225.381 163.348 198.87 136.837 198.87 104.134C198.87 71.4306 225.381 44.9195 258.085 44.9195C290.788 44.9195 317.299 71.4306 317.299 104.134Z" fill="#D9D9D9" fill-opacity="0.5"/>
<path fill-rule="evenodd" clip-rule="evenodd" d="M258.085 128.554C271.571 128.554 282.504 117.62 282.504 104.134C282.504 90.647 271.571 79.7138 258.085 79.7138C244.598 79.7138 233.665 90.647 233.665 104.134C233.665 117.62 244.598 128.554 258.085 128.554ZM258.085 163.348C290.788 163.348 317.299 136.837 317.299 104.134C317.299 71.4306 290.788 44.9195 258.085 44.9195C225.381 44.9195 198.87 71.4306 198.87 104.134C198.87 136.837 225.381 163.348 258.085 163.348Z" fill="white" fill-opacity="0.75"/>
<path d="M277.078 104.134C277.078 105.73 276.881 107.281 276.51 108.762C275.302 113.587 272.248 117.68 268.143 120.248C266.487 121.284 264.659 122.072 262.713 122.559C261.232 122.93 259.681 123.127 258.085 123.127C253.695 123.127 249.653 121.638 246.436 119.137C244.873 117.921 243.504 116.466 242.386 114.827C240.307 111.781 239.091 108.1 239.091 104.134C239.091 103.212 239.157 102.307 239.284 101.42C239.523 99.7437 239.982 98.1376 240.63 96.6321C242.09 93.2388 244.511 90.3563 247.55 88.3269C249.593 86.9627 251.916 85.984 254.414 85.4949C255.601 85.2623 256.829 85.1404 258.085 85.1404C263.482 85.1404 268.353 87.3915 271.811 91.006C275.074 94.4166 277.078 99.0411 277.078 104.134Z" fill="#D9D9D9" fill-opacity="0.5"/>
<path fill-rule="evenodd" clip-rule="evenodd" d="M249.797 93.2393L247.768 90.1238C245.522 91.781 243.688 93.9652 242.451 96.4922L245.786 97.8075L245.389 98.5894C244.986 99.3839 244.757 99.9733 244.631 100.561C244.506 101.148 244.475 101.776 244.517 102.659L244.57 103.772L240.748 102.672C240.708 103.154 240.687 103.641 240.687 104.134C240.687 107.536 241.662 110.706 243.348 113.385L246.846 111.455L247.179 112.301C247.496 113.107 247.758 113.59 248.098 113.946C248.429 114.293 248.894 114.581 249.728 114.872L250.837 115.258L248.126 118.4C250.947 120.374 254.379 121.531 258.085 121.531C259.292 121.531 260.47 121.408 261.606 121.175L260.746 117.1L261.847 117.227C262.737 117.329 263.308 117.313 263.807 117.157C264.301 117.002 264.81 116.682 265.512 116.008L266.253 115.296L268.021 118.416C271.143 116.24 273.516 113.068 274.682 109.365L270.692 108.929L271.48 107.821C271.986 107.11 272.196 106.662 272.24 106.247C272.282 105.845 272.18 105.342 271.742 104.503L271.132 103.336H275.464C275.281 99.288 273.717 95.6025 271.229 92.736L269.231 94.7667L268.716 93.8221C268.325 93.1043 267.969 92.664 267.547 92.3171C267.113 91.9596 266.57 91.6672 265.739 91.2955L264.765 90.8597L266.458 88.8798C263.973 87.5132 261.12 86.7365 258.085 86.7365C257.186 86.7365 256.305 86.8045 255.445 86.9353L255.976 90.3602L255.094 90.4064C254.019 90.4627 253.291 90.636 252.642 90.9536C251.98 91.2781 251.346 91.7791 250.492 92.5843L249.797 93.2393ZM253.632 85.6651C253.891 85.6031 254.151 85.5463 254.414 85.4949C255.601 85.2623 256.829 85.1404 258.085 85.1404C263.482 85.1404 268.353 87.3915 271.811 91.006C271.995 91.1985 272.175 91.3948 272.351 91.5949C275.13 94.7539 276.876 98.8434 277.061 103.336C277.072 103.6 277.078 103.866 277.078 104.134C277.078 104.401 277.072 104.667 277.061 104.932C277.007 106.248 276.819 107.529 276.51 108.762C276.444 109.024 276.373 109.284 276.297 109.542C275.044 113.766 272.362 117.375 268.811 119.81C268.592 119.961 268.369 120.107 268.143 120.248C266.707 121.146 265.143 121.857 263.484 122.348C263.229 122.424 262.972 122.494 262.713 122.559C261.232 122.93 259.681 123.127 258.085 123.127C253.982 123.127 250.183 121.826 247.078 119.614C246.861 119.46 246.647 119.3 246.436 119.137C245.084 118.085 243.877 116.855 242.852 115.481C242.692 115.267 242.537 115.049 242.386 114.827C240.307 111.781 239.091 108.1 239.091 104.134C239.091 103.489 239.123 102.851 239.186 102.223C239.213 101.954 239.246 101.686 239.284 101.42C239.523 99.7437 239.982 98.1376 240.63 96.6321C240.736 96.387 240.846 96.1446 240.962 95.905C242.327 93.0687 244.376 90.6238 246.896 88.7842C247.111 88.6273 247.329 88.4749 247.55 88.3269C247.672 88.2456 247.795 88.1656 247.919 88.087C248.02 88.023 248.121 87.9599 248.223 87.8978C249.877 86.8911 251.697 86.13 253.632 85.6651ZM249.095 89.2359C250.562 88.3484 252.17 87.672 253.878 87.2481L254.133 88.8895C253.313 88.9948 252.611 89.1919 251.94 89.5203C251.298 89.8348 250.713 90.2566 250.102 90.7835L249.095 89.2359ZM241.815 97.9573C241.436 98.9545 241.147 99.9956 240.956 101.071L242.908 101.633C242.923 101.14 242.973 100.683 243.071 100.227C243.183 99.7009 243.355 99.1964 243.59 98.6574L241.815 97.9573ZM244.264 114.702C245.029 115.701 245.899 116.614 246.859 117.425L248.146 115.933C247.678 115.689 247.283 115.404 246.943 115.048C246.575 114.662 246.296 114.218 246.052 113.716L244.264 114.702ZM263.154 120.781C264.389 120.405 265.567 119.896 266.67 119.269L265.853 117.827C265.342 118.223 264.837 118.507 264.285 118.68C263.789 118.835 263.287 118.892 262.754 118.888L263.154 120.781ZM275.094 107.805C275.294 106.873 275.419 105.914 275.464 104.932H273.656C273.815 105.437 273.879 105.923 273.827 106.414C273.782 106.842 273.652 107.239 273.465 107.627L275.094 107.805ZM270.128 91.5789C269.419 90.8983 268.652 90.2773 267.836 89.7239L267.346 90.2967C267.795 90.5329 268.197 90.7842 268.562 91.085C268.937 91.3941 269.26 91.743 269.558 92.158L270.128 91.5789Z" fill="white"/>
<path d="M127.366 104.134C127.366 105.73 127.169 107.281 126.798 108.762C125.59 113.587 122.537 117.68 118.431 120.248C116.775 121.284 114.948 122.072 113.002 122.559C111.52 122.93 109.97 123.127 108.373 123.127C103.983 123.127 99.9412 121.638 96.7247 119.137C95.1612 117.921 93.7927 116.466 92.6741 114.827C90.5954 111.781 89.3799 108.1 89.3799 104.134C89.3799 103.212 89.4455 102.307 89.5722 101.42C89.8121 99.7437 90.2709 98.1376 90.9188 96.6321C92.3791 93.2388 94.8 90.3563 97.8391 88.3269C99.8821 86.9627 102.204 85.984 104.702 85.4949C105.89 85.2623 107.117 85.1404 108.373 85.1404C113.77 85.1404 118.641 87.3915 122.099 91.006C125.362 94.4166 127.366 99.0411 127.366 104.134Z" fill="#D9D9D9" fill-opacity="0.5"/>
<path fill-rule="evenodd" clip-rule="evenodd" d="M100.086 93.2393L98.0568 90.1238C95.8103 91.781 93.9769 93.9652 92.7392 96.4922L96.0746 97.8075L95.6778 98.5894C95.2745 99.3839 95.0455 99.9733 94.92 100.561C94.7944 101.148 94.7633 101.776 94.8056 102.659L94.859 103.772L91.0364 102.672C90.9964 103.154 90.976 103.641 90.976 104.134C90.976 107.536 91.951 110.706 93.6367 113.385L97.1348 111.455L97.4674 112.301C97.7846 113.107 98.0462 113.59 98.3866 113.946C98.7177 114.293 99.1826 114.581 100.017 114.872L101.126 115.258L98.4141 118.4C101.235 120.374 104.667 121.531 108.373 121.531C109.581 121.531 110.758 121.408 111.894 121.175L111.034 117.1L112.135 117.227C113.026 117.329 113.597 117.313 114.096 117.157C114.59 117.002 115.099 116.682 115.801 116.008L116.541 115.296L118.31 118.416C121.431 116.24 123.804 113.068 124.97 109.365L120.98 108.929L121.768 107.821C122.274 107.11 122.484 106.662 122.528 106.247C122.571 105.845 122.469 105.342 122.03 104.503L121.42 103.336H125.752C125.57 99.288 124.005 95.6025 121.517 92.736L119.52 94.7667L119.005 93.8221C118.613 93.1043 118.257 92.664 117.836 92.3171C117.402 91.9596 116.858 91.6672 116.028 91.2955L115.053 90.8597L116.746 88.8798C114.262 87.5132 111.409 86.7365 108.373 86.7365C107.475 86.7365 106.593 86.8045 105.733 86.9353L106.265 90.3602L105.382 90.4064C104.308 90.4627 103.579 90.636 102.931 90.9536C102.268 91.2781 101.635 91.7791 100.781 92.5843L100.086 93.2393ZM103.921 85.6651C104.179 85.6031 104.44 85.5463 104.702 85.4949C105.89 85.2623 107.117 85.1404 108.373 85.1404C113.77 85.1404 118.641 87.3915 122.099 91.006C122.283 91.1985 122.464 91.3948 122.64 91.5949C125.418 94.7539 127.164 98.8434 127.35 103.336C127.361 103.6 127.366 103.866 127.366 104.134C127.366 104.401 127.361 104.667 127.35 104.932C127.295 106.248 127.107 107.529 126.798 108.762C126.733 109.024 126.662 109.284 126.585 109.542C125.333 113.766 122.651 117.375 119.1 119.81C118.88 119.961 118.657 120.107 118.431 120.248C116.996 121.146 115.432 121.857 113.773 122.348C113.518 122.424 113.261 122.494 113.002 122.559C111.52 122.93 109.97 123.127 108.373 123.127C104.27 123.127 100.472 121.826 97.3666 119.614C97.1492 119.46 96.9352 119.3 96.7247 119.137C95.3724 118.085 94.1659 116.855 93.1409 115.481C92.9809 115.267 92.8252 115.049 92.6741 114.827C90.5954 111.781 89.3799 108.1 89.3799 104.134C89.3799 103.489 89.412 102.851 89.4748 102.223C89.5017 101.954 89.5342 101.686 89.5722 101.42C89.8121 99.7437 90.2709 98.1376 90.9188 96.6321C91.0242 96.387 91.1347 96.1446 91.2501 95.905C92.6156 93.0687 94.665 90.6238 97.1845 88.7842C97.3993 88.6273 97.6175 88.4749 97.8391 88.3269C97.9609 88.2456 98.0837 88.1656 98.2075 88.087C98.3083 88.023 98.4098 87.9599 98.5119 87.8978C100.166 86.8911 101.986 86.13 103.921 85.6651ZM99.3833 89.2359C100.851 88.3484 102.459 87.672 104.167 87.2481L104.421 88.8895C103.602 88.9948 102.899 89.1919 102.229 89.5203C101.586 89.8348 101.002 90.2566 100.391 90.7835L99.3833 89.2359ZM92.1038 97.9573C91.725 98.9545 91.4352 99.9956 91.2444 101.071L93.1968 101.633C93.2121 101.14 93.2618 100.683 93.3591 100.227C93.4716 99.7009 93.6435 99.1964 93.879 98.6574L92.1038 97.9573ZM94.5529 114.702C95.3176 115.701 96.1881 116.614 97.1475 117.425L98.4349 115.933C97.9665 115.689 97.5719 115.404 97.2319 115.048C96.8632 114.662 96.5844 114.218 96.341 113.716L94.5529 114.702ZM113.442 120.781C114.678 120.405 115.856 119.896 116.959 119.269L116.141 117.827C115.631 118.223 115.126 118.507 114.573 118.68C114.078 118.835 113.575 118.892 113.043 118.888L113.442 120.781ZM125.383 107.805C125.583 106.873 125.708 105.914 125.752 104.932H123.945C124.103 105.437 124.167 105.923 124.115 106.414C124.07 106.842 123.941 107.239 123.754 107.627L125.383 107.805ZM120.416 91.5789C119.707 90.8983 118.94 90.2773 118.124 89.7239L117.635 90.2967C118.084 90.5329 118.485 90.7842 118.851 91.085C119.226 91.3941 119.548 91.743 119.847 92.158L120.416 91.5789Z" fill="white"/>
<path d="M107.894 44.9194H258.244C258.244 44.9194 248.668 45.3297 241.166 47.4732C238.932 48.1116 231.27 51.3037 231.27 51.3037H135.027C135.027 51.3037 128.962 48.1116 122.259 46.5155C115.555 44.9194 107.894 44.9194 107.894 44.9194Z" fill="white" fill-opacity="0.5"/>
<path fill-rule="evenodd" clip-rule="evenodd" d="M224.088 79.0754H141.412C138.591 79.0754 136.304 81.3621 136.304 84.1828V126.957C136.304 129.778 138.591 132.065 141.412 132.065H224.088C226.909 132.065 229.196 129.778 229.196 126.957V84.1828C229.196 81.3621 226.909 79.0754 224.088 79.0754ZM141.412 76.5217C137.181 76.5217 133.751 79.9517 133.751 84.1828V126.957C133.751 131.189 137.181 134.619 141.412 134.619H224.088C228.319 134.619 231.749 131.189 231.749 126.957V84.1828C231.749 79.9517 228.319 76.5217 224.088 76.5217H141.412Z" fill="white"/>
</svg>
