<svg width="512" height="511" viewBox="0 0 512 511" fill="none" xmlns="http://www.w3.org/2000/svg">
<path fill-rule="evenodd" clip-rule="evenodd" d="M383.18 476.963C345.656 498.613 302.115 511 255.68 511C209.246 511 165.704 498.613 128.18 476.963H383.18ZM391.18 472.15C396.301 468.941 401.301 465.554 406.17 462H105.191C110.06 465.554 115.059 468.941 120.18 472.15H391.18ZM77.6802 438.793C82.6551 443.625 87.8262 448.257 93.1802 452.674H418.18C423.534 448.257 428.705 443.625 433.68 438.793H77.6802ZM441.369 431C445.932 426.174 450.309 421.17 454.488 416H56.8727C61.0519 421.17 65.4286 426.174 69.9914 431H441.369ZM34.2171 383C37.9792 389.52 42.0209 395.859 46.326 402H465.034C469.339 395.859 473.381 389.52 477.143 383H34.2171ZM484.15 370C487.58 363.169 490.713 356.164 493.531 349H17.8295C20.6478 356.164 23.7804 363.169 27.2104 370H484.15ZM8.52185 320.5C9.80494 325.392 11.2294 330.227 12.7907 335H498.57C500.131 330.227 501.555 325.392 502.839 320.5H8.52185ZM505.676 308.5C507.269 300.951 508.528 293.279 509.438 285.5H1.92281C2.83261 293.279 4.09182 300.951 5.68434 308.5L505.676 308.5ZM0.180176 255.5C0.180176 260.366 0.316221 265.201 0.584716 270H510.776C511.044 265.201 511.18 260.366 511.18 255.5C511.18 252.488 511.128 249.487 511.025 246.5H0.335727C0.232311 249.487 0.180176 252.488 0.180176 255.5ZM509.973 230.5C509.549 226.134 509.015 221.799 508.374 217.5H2.98673C2.34568 221.799 1.81173 226.134 1.3877 230.5H509.973ZM255.68 0C132.744 0 30.0862 86.8255 5.68434 202.5H505.676C481.274 86.8255 378.617 0 255.68 0Z" fill="url(#paint0_linear_46_230)" fill-opacity="0.75"/>
<defs>
<linearGradient id="paint0_linear_46_230" x1="255.68" y1="0" x2="255.68" y2="511" gradientUnits="userSpaceOnUse">
<stop offset="0.319141" stop-color="#D9FD00"/>
<stop offset="1" stop-color="#FF0000"/>
</linearGradient>
</defs>
</svg>
