<svg width="339" height="306" viewBox="0 0 339 306" fill="none" xmlns="http://www.w3.org/2000/svg">
<path fill-rule="evenodd" clip-rule="evenodd" d="M208.585 206.49C192.34 215.863 173.49 221.226 153.387 221.226C133.284 221.226 114.434 215.863 98.1887 206.49H208.585ZM212.049 204.407C214.266 203.017 216.43 201.551 218.538 200.013H88.2359C90.3438 201.551 92.5081 203.017 94.7253 204.407H212.049ZM76.3258 189.966C78.4796 192.058 80.7183 194.063 83.0362 195.975H223.738C226.056 194.063 228.294 192.058 230.448 189.966H76.3258ZM233.777 186.592C235.752 184.502 237.647 182.336 239.456 180.098H67.3177C69.127 182.336 71.0218 184.502 72.9971 186.592H233.777ZM57.5095 165.811C59.1382 168.634 60.8879 171.378 62.7517 174.037H244.022C245.886 171.378 247.636 168.634 249.264 165.811H57.5095ZM252.298 160.183C253.783 157.226 255.139 154.193 256.359 151.092H50.4148C51.6349 154.193 52.9911 157.226 54.476 160.183H252.298ZM46.3853 138.753C46.9408 140.871 47.5574 142.964 48.2334 145.031H258.54C259.216 142.964 259.833 140.871 260.389 138.753H46.3853ZM261.617 133.558C262.306 130.29 262.852 126.968 263.245 123.601H43.5284C43.9222 126.968 44.4674 130.29 45.1568 133.558L261.617 133.558ZM42.7739 110.613C42.7739 112.72 42.8328 114.813 42.9491 116.89H263.825C263.941 114.813 264 112.72 264 110.613C264 109.309 263.977 108.01 263.933 106.717H42.8413C42.7965 108.01 42.7739 109.309 42.7739 110.613ZM263.477 99.7898C263.294 97.8994 263.062 96.023 262.785 94.1617H43.989C43.7114 96.023 43.4803 97.8994 43.2967 99.7898H263.477ZM153.387 0C100.164 0 55.7211 37.5891 45.1568 87.6678H261.617C251.053 37.5891 206.61 0 153.387 0Z" fill="url(#paint0_linear_46_206)"/>
<g filter="url(#filter0_d_46_206)">
<path d="M144.728 305.863L4.02686 109.098L16.1488 107.582L144.728 284.65L310.972 69.4849L335 66.8873L144.728 305.863Z" fill="#00F1FF"/>
</g>
<path fill-rule="evenodd" clip-rule="evenodd" d="M300.377 83.7715L316.384 68.8355L258.63 76.0313L261.658 87.6678C261.985 89.1755 262.128 90.0792 262.307 91.7806L300.377 83.7715ZM43.8352 121.933C42.8446 114.967 42.5447 111.033 42.97 103.918L14.6335 107.799L15.4988 124.683L43.8352 121.933Z" fill="#00F1FF"/>
<defs>
<filter id="filter0_d_46_206" x="0.0268555" y="29.8873" width="338.973" height="275.976" filterUnits="userSpaceOnUse" color-interpolation-filters="sRGB">
<feFlood flood-opacity="0" result="BackgroundImageFix"/>
<feColorMatrix in="SourceAlpha" type="matrix" values="0 0 0 0 0 0 0 0 0 0 0 0 0 0 0 0 0 0 127 0" result="hardAlpha"/>
<feOffset dy="-33"/>
<feGaussianBlur stdDeviation="2"/>
<feComposite in2="hardAlpha" operator="out"/>
<feColorMatrix type="matrix" values="0 0 0 0 0 0 0 0 0 0 0 0 0 0 0 0 0 0 0.5 0"/>
<feBlend mode="normal" in2="BackgroundImageFix" result="effect1_dropShadow_46_206"/>
<feBlend mode="normal" in="SourceGraphic" in2="effect1_dropShadow_46_206" result="shape"/>
</filter>
<linearGradient id="paint0_linear_46_206" x1="153.387" y1="0" x2="153.387" y2="221.226" gradientUnits="userSpaceOnUse">
<stop offset="0.334872" stop-color="#FD9DFF"/>
<stop offset="0.59375" stop-color="white"/>
<stop offset="0.794758" stop-color="#00F1FF"/>
</linearGradient>
</defs>
</svg>
