<svg width="358" height="252" viewBox="0 0 358 252" fill="none" xmlns="http://www.w3.org/2000/svg">
<path fill-rule="evenodd" clip-rule="evenodd" d="M245.637 3.76286C242.413 3.48252 239.059 4.39235 234.429 6.85886L234.386 6.88141L9.90944 111.957C5.65525 114.605 4.22677 116.411 3.84048 117.844C3.46205 119.247 3.91814 120.82 5.21572 123.612L92.6338 227.465C96.2044 229.085 98.8249 229.857 101.345 229.885C103.932 229.914 106.626 229.161 110.336 227.319C110.338 227.318 110.34 227.317 110.341 227.316L138.02 213.297L141.548 206.426L318 117.089L321.947 119.72L346.535 108.675C350.76 106.105 351.971 104.331 352.084 102.871C352.143 102.107 351.932 101.163 351.259 99.8935C350.593 98.6367 349.542 97.1867 348.085 95.4376L256.916 8.542C252.26 5.54455 248.873 4.04413 245.637 3.76286ZM245.959 0.0629744C250.161 0.428284 254.217 2.37263 259.079 5.51782L259.225 5.61253L350.801 92.8952L350.869 92.9759C352.414 94.8254 353.683 96.535 354.541 98.1548C355.403 99.781 355.919 101.444 355.787 103.158C355.517 106.643 352.687 109.296 348.361 111.911L348.265 111.969L321.596 123.949L317.743 121.381L144.302 209.195L140.773 216.065L112.007 230.636L112 230.639L111.994 230.642C108.018 232.617 104.715 233.637 101.304 233.599C97.9118 233.561 94.6275 232.477 90.7027 230.665L90.327 230.492L2.05935 125.63L1.95591 125.41C0.651068 122.631 -0.535782 119.807 0.254188 116.877C1.04332 113.951 3.63038 111.477 8.04479 108.743L8.13704 108.686L232.725 3.55844C237.63 0.950876 241.725 -0.305126 245.959 0.0629744Z" fill="white"/>
<path fill-rule="evenodd" clip-rule="evenodd" d="M352.286 102.652C352.286 102.652 352.286 102.652 354.074 102.155C355.861 101.659 355.862 101.659 355.862 101.659L355.862 101.66L355.863 101.664L355.866 101.675L355.877 101.715C355.886 101.749 355.9 101.799 355.917 101.863C355.951 101.991 356 102.177 356.06 102.413C356.181 102.886 356.346 103.561 356.53 104.38C356.897 106.014 357.34 108.242 357.637 110.59C357.932 112.92 358.094 115.458 357.856 117.681C357.631 119.792 356.991 122.164 355.165 123.491C351.398 126.228 342.989 130.655 335.678 134.332C331.99 136.188 328.53 137.878 325.993 139.104C324.724 139.717 323.685 140.214 322.963 140.558C322.732 140.668 322.533 140.763 322.37 140.84L319.046 146.744L145.215 236.096L142.234 234.234L112.377 249.148C108.377 251.251 104.996 252.357 101.635 251.872C98.2739 251.388 95.3296 249.37 92.0599 246.242L91.9962 246.181L0 139.737V118.655H3.71146V138.358L94.6898 243.624C97.779 246.568 100.002 247.891 102.165 248.203C104.339 248.516 106.851 247.866 110.664 245.858L110.682 245.849L142.436 229.988L145.393 231.835L316.357 143.956L319.714 137.994L320.249 137.742L321.042 139.418C320.249 137.742 320.249 137.742 320.249 137.742L320.25 137.741L320.322 137.707C320.37 137.684 320.443 137.65 320.537 137.605C320.727 137.515 321.006 137.383 321.365 137.212C322.082 136.87 323.115 136.376 324.377 135.766C326.902 134.546 330.344 132.865 334.009 131.021C341.405 127.3 349.511 123.014 352.982 120.492C353.452 120.151 353.961 119.209 354.166 117.288C354.359 115.479 354.234 113.267 353.955 111.054C353.677 108.86 353.26 106.755 352.909 105.191C352.734 104.411 352.576 103.771 352.464 103.328C352.407 103.107 352.362 102.935 352.331 102.82C352.316 102.762 352.304 102.719 352.296 102.69L352.286 102.653L352.286 102.652Z" fill="white"/>
<path fill-rule="evenodd" clip-rule="evenodd" d="M352.286 102.652C352.286 102.652 352.286 102.652 354.074 102.155C355.861 101.659 355.862 101.659 355.862 101.659L355.862 101.66L355.863 101.664L355.866 101.675L355.877 101.715C355.886 101.749 355.9 101.799 355.917 101.863C355.951 101.991 356 102.177 356.06 102.413C356.181 102.886 356.346 103.561 356.53 104.38C356.897 106.014 357.34 108.242 357.637 110.59C357.932 112.92 358.094 115.458 357.856 117.681C357.631 119.792 356.991 122.164 355.165 123.491C351.398 126.228 342.989 130.655 335.678 134.332C331.99 136.188 328.53 137.878 325.993 139.104C324.724 139.717 323.685 140.214 322.963 140.558C322.732 140.668 322.533 140.763 322.37 140.84L319.046 146.744L145.215 236.096L142.234 234.234L112.377 249.148C108.377 251.251 104.996 252.357 101.635 251.872C98.2739 251.388 95.3296 249.37 92.0599 246.242L91.9962 246.181L0 139.737V118.655H3.71146V138.358L94.6898 243.624C97.779 246.568 100.002 247.891 102.165 248.203C104.339 248.516 106.851 247.866 110.664 245.858L110.682 245.849L142.436 229.988L142.994 230.337L140.492 209.717L144.177 209.271L146.825 231.098L179.264 214.424V187.588L216.564 168.854V195.252L250.094 178.017L248.795 152.588L286.711 133.238V159.195L315.845 144.219V120.694H319.557V138.273L319.714 137.994L320.249 137.742L321.042 139.418C320.249 137.742 320.249 137.742 320.249 137.742L320.25 137.741L320.322 137.707C320.37 137.684 320.443 137.65 320.537 137.605C320.727 137.515 321.006 137.383 321.365 137.212C322.082 136.87 323.115 136.376 324.377 135.766C326.902 134.546 330.344 132.865 334.009 131.021C341.405 127.3 349.511 123.014 352.982 120.492C353.452 120.151 353.961 119.209 354.166 117.288C354.359 115.479 354.234 113.267 353.955 111.054C353.677 108.86 353.26 106.755 352.909 105.191C352.734 104.411 352.576 103.771 352.464 103.328C352.407 103.107 352.362 102.935 352.331 102.82C352.316 102.762 352.304 102.719 352.296 102.69L352.286 102.653L352.286 102.652ZM282.999 161.103V139.295L252.624 154.797L253.715 176.155L282.999 161.103ZM212.852 197.159V174.868L182.975 189.874V212.517L212.852 197.159Z" fill="white"/>
<path fill-rule="evenodd" clip-rule="evenodd" d="M242.132 84.4758V87.3251C243.581 85.4338 244.355 83.3046 244.355 81.1111C244.355 77.7945 242.583 74.6207 239.384 72.1995C236.184 69.7777 231.661 68.2135 226.57 68.2135C221.48 68.2135 216.957 69.7777 213.757 72.1995C210.557 74.6207 208.786 77.7945 208.786 81.1111C208.786 83.0743 209.402 84.9726 210.561 86.6997L212.744 83.6074L216.105 84.2856C216.224 83.9166 216.376 83.5727 216.578 83.2477C216.873 82.7756 217.243 82.3941 217.678 82.043V80.2026L225.466 78.5358L226.173 79.7846C226.756 79.6372 227.305 79.5583 227.872 79.5611C228.244 79.5629 228.609 79.5999 228.979 79.6661V78.3893L236.759 80.2212V81.968C237.319 82.3254 237.797 82.7128 238.163 83.1984C238.462 83.5956 238.658 84.0196 238.789 84.4758H242.132ZM231.202 81.216V82.6454L229.753 82.1798C228.932 81.9161 228.377 81.8067 227.862 81.8041C227.35 81.8016 226.801 81.9039 225.996 82.175L225.131 82.4662L224.34 81.0696L219.901 82.0197V83.1919L219.425 83.5266C218.895 83.8998 218.631 84.1676 218.46 84.4423C218.287 84.72 218.15 85.0972 218.033 85.7873L217.839 86.9231L213.72 86.0918L212.023 88.495C215.184 91.751 220.446 94.0088 226.57 94.0088C231.806 94.0088 236.438 92.3547 239.65 89.8173C239.737 89.7482 239.824 89.6786 239.909 89.6084V86.7188H236.876L236.766 85.7215C236.698 85.1003 236.571 84.7917 236.393 84.5561C236.193 84.2906 235.842 84.0027 235.104 83.5847L234.536 83.2633V82.0011L231.202 81.216ZM241.02 91.5834C237.378 94.4605 232.251 96.2519 226.57 96.2519C219.634 96.2519 213.521 93.5803 209.932 89.5227C209.675 89.2315 209.43 88.9331 209.199 88.6281C207.522 86.4132 206.563 83.8469 206.563 81.1111C206.563 72.7491 215.521 65.9704 226.57 65.9704C237.62 65.9704 246.578 72.7491 246.578 81.1111C246.578 84.7168 244.912 88.0281 242.132 90.6285C242.126 90.6338 242.121 90.639 242.115 90.6442C241.767 90.9687 241.402 91.282 241.02 91.5834Z" fill="white"/>
<path fill-rule="evenodd" clip-rule="evenodd" d="M133.984 138.55V141.399C135.433 139.508 136.207 137.379 136.207 135.185C136.207 131.869 134.435 128.695 131.236 126.274C128.036 123.852 123.513 122.288 118.422 122.288C113.332 122.288 108.809 123.852 105.609 126.274C102.409 128.695 100.638 131.869 100.638 135.185C100.638 137.148 101.253 139.047 102.413 140.774L104.596 137.682L107.957 138.36C108.076 137.991 108.227 137.647 108.43 137.322C108.724 136.85 109.095 136.468 109.53 136.117V134.277L117.318 132.61L118.025 133.859C118.607 133.711 119.157 133.632 119.724 133.635C120.096 133.637 120.46 133.674 120.831 133.74V132.463L128.611 134.295V136.042C129.171 136.4 129.648 136.787 130.014 137.273C130.314 137.67 130.51 138.094 130.64 138.55H133.984ZM123.054 135.29V136.719L121.605 136.254C120.784 135.99 120.229 135.881 119.713 135.878C119.202 135.876 118.653 135.978 117.848 136.249L116.983 136.54L116.192 135.144L111.753 136.094V137.266L111.277 137.601C110.746 137.974 110.483 138.242 110.312 138.516C110.138 138.794 110.002 139.171 109.884 139.861L109.691 140.997L105.572 140.166L103.874 142.569C107.036 145.825 112.298 148.083 118.422 148.083C123.657 148.083 128.29 146.429 131.502 143.891C131.589 143.822 131.675 143.753 131.76 143.682V140.793H128.728L128.618 139.796C128.549 139.174 128.422 138.866 128.245 138.63C128.045 138.365 127.694 138.077 126.956 137.659L126.388 137.337V136.075L123.054 135.29ZM132.872 145.658C129.23 148.535 124.103 150.326 118.422 150.326C111.485 150.326 105.373 147.654 101.784 143.597C101.526 143.306 101.282 143.007 101.051 142.702C99.3736 140.487 98.4148 137.921 98.4148 135.185C98.4148 126.823 107.372 120.044 118.422 120.044C129.472 120.044 138.43 126.823 138.43 135.185C138.43 138.791 136.764 142.102 133.984 144.703C133.978 144.708 133.972 144.713 133.967 144.718C133.619 145.043 133.254 145.356 132.872 145.658Z" fill="white"/>
<path d="M87.9109 100.81C87.6312 99.0524 88.5221 97.3158 90.1132 96.5177L199.201 41.7961C200.57 41.1095 202.207 41.2462 203.443 42.1501L208.469 45.8252C210.935 47.6291 210.62 51.4036 207.888 52.7731L94.6831 109.528C92.2137 110.766 89.2531 109.246 88.8191 106.518L87.9109 100.81Z" fill="white"/>
<path fill-rule="evenodd" clip-rule="evenodd" d="M199.368 42.128L90.2796 96.8496C88.8333 97.5751 88.0233 99.1538 88.2776 100.752L89.1858 106.46C89.5804 108.94 92.2718 110.321 94.5167 109.196L207.722 52.4412C210.205 51.1962 210.492 47.7649 208.249 46.1249L203.224 42.4498C202.101 41.628 200.612 41.5038 199.368 42.128ZM90.1132 96.5177C88.5221 97.3158 87.6312 99.0524 87.9109 100.81L88.8191 106.518C89.2531 109.246 92.2137 110.766 94.6831 109.528L207.888 52.7731C210.62 51.4036 210.935 47.6291 208.469 45.8252L203.443 42.1501C202.208 41.2462 200.57 41.1095 199.201 41.7961L90.1132 96.5177Z" fill="white"/>
<path fill-rule="evenodd" clip-rule="evenodd" d="M242.132 84.4758V87.3251C243.581 85.4338 244.355 83.3046 244.355 81.1111C244.355 77.7945 242.583 74.6207 239.384 72.1995C236.184 69.7777 231.661 68.2135 226.57 68.2135C221.48 68.2135 216.957 69.7777 213.757 72.1995C210.557 74.6207 208.786 77.7945 208.786 81.1111C208.786 83.0743 209.402 84.9726 210.561 86.6997L212.744 83.6074L216.105 84.2856C216.224 83.9166 216.376 83.5727 216.578 83.2477C216.873 82.7756 217.243 82.3941 217.678 82.043V80.2026L225.466 78.5358L226.173 79.7846C226.756 79.6372 227.305 79.5583 227.872 79.5611C228.244 79.5629 228.609 79.5999 228.979 79.6661V78.3893L236.759 80.2212V81.968C237.319 82.3254 237.797 82.7128 238.163 83.1984C238.462 83.5956 238.658 84.0196 238.789 84.4758H242.132ZM231.202 81.216V82.6454L229.753 82.1798C228.932 81.9161 228.377 81.8067 227.862 81.8041C227.35 81.8016 226.801 81.9039 225.996 82.175L225.131 82.4662L224.34 81.0696L219.901 82.0197V83.1919L219.425 83.5266C218.895 83.8998 218.631 84.1676 218.46 84.4423C218.287 84.72 218.15 85.0972 218.033 85.7873L217.839 86.9231L213.72 86.0918L212.023 88.495C215.184 91.751 220.446 94.0088 226.57 94.0088C231.806 94.0088 236.438 92.3547 239.65 89.8173C239.737 89.7482 239.824 89.6786 239.909 89.6084V86.7188H236.876L236.766 85.7215C236.698 85.1003 236.571 84.7917 236.393 84.5561C236.193 84.2906 235.842 84.0027 235.104 83.5847L234.536 83.2633V82.0011L231.202 81.216ZM241.02 91.5834C237.378 94.4605 232.251 96.2519 226.57 96.2519C219.634 96.2519 213.521 93.5803 209.932 89.5227C209.675 89.2315 209.43 88.9331 209.199 88.6281C207.522 86.4132 206.563 83.8469 206.563 81.1111C206.563 72.7491 215.521 65.9704 226.57 65.9704C237.62 65.9704 246.578 72.7491 246.578 81.1111C246.578 84.7168 244.912 88.0281 242.132 90.6285C242.126 90.6338 242.121 90.639 242.115 90.6442C241.767 90.9687 241.402 91.282 241.02 91.5834Z" fill="white"/>
<path fill-rule="evenodd" clip-rule="evenodd" d="M133.984 138.55V141.399C135.433 139.508 136.207 137.379 136.207 135.185C136.207 131.869 134.435 128.695 131.236 126.274C128.036 123.852 123.513 122.288 118.422 122.288C113.332 122.288 108.809 123.852 105.609 126.274C102.409 128.695 100.638 131.869 100.638 135.185C100.638 137.148 101.253 139.047 102.413 140.774L104.596 137.682L107.957 138.36C108.076 137.991 108.227 137.647 108.43 137.322C108.724 136.85 109.095 136.468 109.53 136.117V134.277L117.318 132.61L118.025 133.859C118.607 133.711 119.157 133.632 119.724 133.635C120.096 133.637 120.46 133.674 120.831 133.74V132.463L128.611 134.295V136.042C129.171 136.4 129.648 136.787 130.014 137.273C130.314 137.67 130.51 138.094 130.64 138.55H133.984ZM123.054 135.29V136.719L121.605 136.254C120.784 135.99 120.229 135.881 119.713 135.878C119.202 135.876 118.653 135.978 117.848 136.249L116.983 136.54L116.192 135.144L111.753 136.094V137.266L111.277 137.601C110.746 137.974 110.483 138.242 110.312 138.516C110.138 138.794 110.002 139.171 109.884 139.861L109.691 140.997L105.572 140.166L103.874 142.569C107.036 145.825 112.298 148.083 118.422 148.083C123.657 148.083 128.29 146.429 131.502 143.891C131.589 143.822 131.675 143.753 131.76 143.682V140.793H128.728L128.618 139.796C128.549 139.174 128.422 138.866 128.245 138.63C128.045 138.365 127.694 138.077 126.956 137.659L126.388 137.337V136.075L123.054 135.29ZM132.872 145.658C129.23 148.535 124.103 150.326 118.422 150.326C111.485 150.326 105.373 147.654 101.784 143.597C101.526 143.306 101.282 143.007 101.051 142.702C99.3736 140.487 98.4148 137.921 98.4148 135.185C98.4148 126.823 107.372 120.044 118.422 120.044C129.472 120.044 138.43 126.823 138.43 135.185C138.43 138.791 136.764 142.102 133.984 144.703C133.978 144.708 133.972 144.713 133.967 144.718C133.619 145.043 133.254 145.356 132.872 145.658Z" fill="white"/>
<path fill-rule="evenodd" clip-rule="evenodd" d="M117.341 219.096C123.731 219.096 128.247 215.097 128.247 210.889C128.247 206.681 123.731 202.682 117.341 202.682C110.951 202.682 106.435 206.681 106.435 210.889C106.435 215.097 110.951 219.096 117.341 219.096ZM117.341 220.622C124.21 220.622 129.778 216.265 129.778 210.889C129.778 205.513 124.21 201.156 117.341 201.156C110.472 201.156 104.904 205.513 104.904 210.889C104.904 216.265 110.472 220.622 117.341 220.622Z" fill="white"/>
<path fill-rule="evenodd" clip-rule="evenodd" d="M322.822 113.195C329.212 113.195 333.729 109.419 333.729 105.444C333.729 101.47 329.212 97.6939 322.822 97.6939C316.432 97.6939 311.916 101.47 311.916 105.444C311.916 109.419 316.432 113.195 322.822 113.195ZM322.822 114.637C329.691 114.637 335.259 110.521 335.259 105.444C335.259 100.368 329.691 96.2519 322.822 96.2519C315.954 96.2519 310.385 100.368 310.385 105.444C310.385 110.521 315.954 114.637 322.822 114.637Z" fill="white"/>
<path d="M223.867 144.919C223.867 148.502 219.993 151.407 215.215 151.407C210.437 151.407 206.563 148.502 206.563 144.919C206.563 141.335 210.437 138.43 215.215 138.43C219.993 138.43 223.867 141.335 223.867 144.919Z" fill="white"/>
<path d="M194.467 170.337C195.268 173.094 192.883 176.209 189.142 177.296C185.4 178.382 181.718 177.028 180.917 174.271C180.117 171.514 182.501 168.398 186.243 167.312C189.985 166.225 193.667 167.58 194.467 170.337Z" fill="white"/>
<path d="M267.298 134.596C268.098 137.353 265.714 140.469 261.972 141.555C258.23 142.642 254.548 141.287 253.748 138.53C252.947 135.773 255.332 132.657 259.073 131.571C262.815 130.485 266.497 131.839 267.298 134.596Z" fill="white"/>
<path d="M110.065 207.217L125.666 211.397L125.089 213.549L109.488 209.369L110.065 207.217Z" fill="white"/>
<path d="M315.394 102.139L330.995 106.319L330.418 108.471L314.817 104.291L315.394 102.139Z" fill="white"/>
<path d="M120.248 204.718L117.058 216.625L114.906 216.048L118.096 204.141L120.248 204.718Z" fill="white"/>
<path d="M325.577 99.6397L322.387 111.547L320.235 110.97L323.425 99.0631L325.577 99.6397Z" fill="white"/>
<path fill-rule="evenodd" clip-rule="evenodd" d="M144.622 213.147L181.366 194.396L181.366 206.49L146.107 224.1L144.622 213.147ZM214.983 189.7L214.983 177.242L251.185 158.768L251.185 171.619L214.983 189.7ZM285.344 154.557L315.977 139.258L315.977 125.706L285.344 141.337L285.344 154.557Z" fill="white"/>
<path fill-rule="evenodd" clip-rule="evenodd" d="M151.369 171.748C141.698 177.216 129.672 180.607 118.317 180.607C106.854 180.607 94.9433 177.154 85.3685 171.432C77.1551 166.524 62.7261 154.858 62.7261 135.185C62.7261 115.512 77.1551 103.846 85.3685 98.9381C94.9433 93.2162 106.854 89.763 118.317 89.763C129.672 89.763 141.698 93.1545 151.369 98.6227C159.169 103.033 175.2 114.586 175.2 135.185C175.2 155.784 159.169 167.337 151.369 171.748ZM118.317 153.955C131.577 153.955 148.975 145.551 148.975 135.185C148.975 124.819 131.577 116.416 118.317 116.416C105.057 116.416 88.9516 124.819 88.9516 135.185C88.9516 145.551 105.057 153.955 118.317 153.955Z" fill="white"/>
<path fill-rule="evenodd" clip-rule="evenodd" d="M259.288 117.779C249.524 123.182 237.382 126.533 225.918 126.533C214.345 126.533 202.32 123.121 192.653 117.468C184.36 112.618 169.793 101.09 169.793 81.6519C169.793 62.2133 184.36 50.6861 192.653 45.8363C202.32 40.1825 214.345 36.7704 225.918 36.7704C237.382 36.7704 249.524 40.1215 259.288 45.5246C267.163 49.8828 283.348 61.298 283.348 81.6519C283.348 102.006 267.163 113.421 259.288 117.779ZM225.918 100.198C239.305 100.198 256.871 91.8946 256.871 81.6519C256.871 71.4092 239.305 63.1058 225.918 63.1058C212.53 63.1058 196.27 71.4092 196.27 81.6519C196.27 91.8946 212.53 100.198 225.918 100.198Z" fill="white"/>
<path fill-rule="evenodd" clip-rule="evenodd" d="M168.711 135.185C168.711 165.661 140.411 180.607 118.285 180.607C105.955 180.607 93.7976 176.672 84.4588 168.005C75.0756 159.298 70.2964 147.386 70.2964 135.185C70.2964 122.984 75.0756 111.073 84.4588 102.365C93.7976 93.6988 105.955 89.763 118.285 89.763C140.411 89.763 168.711 104.709 168.711 135.185ZM118.285 153.955C131.744 153.955 142.092 145.551 142.092 135.185C142.092 124.819 131.744 116.416 118.285 116.416C104.827 116.416 96.9153 124.819 96.9153 135.185C96.9153 145.551 104.827 153.955 118.285 153.955Z" fill="white"/>
<path fill-rule="evenodd" clip-rule="evenodd" d="M275.778 81.6519C275.778 111.765 247.789 126.533 225.906 126.533C213.711 126.533 201.688 122.644 192.451 114.081C183.171 105.477 178.445 93.7074 178.445 81.6519C178.445 69.5963 183.171 57.8264 192.451 49.2225C201.688 40.6593 213.711 36.7704 225.906 36.7704C247.789 36.7704 275.778 51.5388 275.778 81.6519ZM225.906 100.198C239.217 100.198 249.452 91.8946 249.452 81.6519C249.452 71.4092 239.217 63.1058 225.906 63.1058C212.595 63.1058 204.771 71.4092 204.771 81.6519C204.771 91.8946 212.595 100.198 225.906 100.198Z" fill="white"/>
</svg>
