<svg width="861" height="707" viewBox="0 0 861 707" fill="none" xmlns="http://www.w3.org/2000/svg">
<path fill-rule="evenodd" clip-rule="evenodd" d="M547.18 476.963C509.656 498.613 466.115 511 419.68 511C373.246 511 329.704 498.613 292.18 476.963H547.18ZM555.18 472.15C560.301 468.941 565.301 465.554 570.17 462H269.191C274.06 465.554 279.059 468.941 284.18 472.15H555.18ZM241.68 438.793C246.655 443.625 251.826 448.257 257.18 452.674H582.18C587.534 448.257 592.705 443.625 597.68 438.793H241.68ZM605.369 431C609.932 426.174 614.309 421.17 618.488 416H220.873C225.052 421.17 229.429 426.174 233.991 431H605.369ZM198.217 383C201.979 389.52 206.021 395.859 210.326 402H629.034C633.339 395.859 637.381 389.52 641.143 383H198.217ZM648.15 370C651.58 363.169 654.713 356.164 657.531 349H181.829C184.648 356.164 187.78 363.169 191.21 370H648.15ZM172.522 320.5C173.805 325.392 175.229 330.227 176.791 335H662.57C664.131 330.227 665.555 325.392 666.839 320.5H172.522ZM669.676 308.5C671.269 300.951 672.528 293.279 673.438 285.5H165.923C166.833 293.279 168.092 300.951 169.684 308.5L669.676 308.5ZM164.18 255.5C164.18 260.366 164.316 265.201 164.585 270H674.776C675.044 265.201 675.18 260.366 675.18 255.5C675.18 252.488 675.128 249.487 675.025 246.5H164.336C164.232 249.487 164.18 252.488 164.18 255.5ZM673.973 230.5C673.549 226.134 673.015 221.799 672.374 217.5H166.987C166.346 221.799 165.812 226.134 165.388 230.5H673.973ZM419.68 0C296.744 0 194.086 86.8255 169.684 202.5H669.676C645.274 86.8255 542.617 0 419.68 0Z" fill="url(#paint0_linear_43_192)" fill-opacity="0.75"/>
<g filter="url(#filter0_d_43_192)">
<path d="M399.68 706.5L74.6802 252L102.68 248.5L399.68 657.5L783.68 160.5L839.18 154.5L399.68 706.5Z" fill="#00F1FF"/>
</g>
<path fill-rule="evenodd" clip-rule="evenodd" d="M759.207 193.5L796.18 159L662.776 175.621L669.771 202.5C670.526 205.982 670.856 208.07 671.27 212L759.207 193.5ZM166.632 281.648C164.344 265.556 163.651 256.471 164.633 240.036L99.1802 249L101.179 288L166.632 281.648Z" fill="#00F1FF"/>
<g filter="url(#filter1_d_43_192)">
<path d="M816.324 370.254C808.703 371.204 804.425 367.933 803.49 360.439C803.126 357.517 803.468 354.056 804.517 350.056C805.677 345.912 807.346 341.705 809.522 337.435C811.698 333.165 814.231 329.173 817.122 325.459C819.997 321.617 823.022 318.467 826.198 316.007C829.485 313.404 832.653 311.912 835.701 311.532C836.717 311.405 837.448 311.572 837.892 312.033C838.448 312.35 838.916 313.002 839.297 313.986C839.614 314.462 839.876 315.01 840.082 315.629C840.288 316.249 840.558 316.86 840.891 317.463C841.51 318.289 842.066 319.123 842.558 319.964C843.05 320.806 843.359 321.735 843.486 322.751C843.644 324.021 843.469 325.204 842.961 326.299C842.436 327.267 841.777 328.188 840.983 329.061C839.856 330.363 838.133 332.061 835.814 334.156C833.48 336.124 830.899 338.187 828.073 340.346C825.357 342.361 822.682 344.178 820.046 345.797C817.537 347.4 815.472 348.431 813.853 348.891C812.932 350.812 812.002 353.185 811.065 356.011C810.238 358.694 809.96 361.115 810.229 363.274C810.372 364.418 810.753 365.402 811.372 366.228C812.118 367.038 813.126 367.363 814.396 367.205C816.428 366.951 818.976 365.666 822.041 363.349C825.217 360.889 828.473 358.032 831.808 354.778C835.127 351.398 838.144 348.184 840.86 345.136C843.687 341.946 845.767 339.493 847.101 337.779L852.39 330.541C853.057 329.684 853.835 329.2 854.724 329.089C855.486 328.994 855.907 329.264 855.986 329.899C856.081 330.661 855.2 332.383 853.341 335.066C851.467 337.621 849.188 340.55 846.504 343.852C843.931 347.01 841.525 349.955 839.286 352.685C837.031 355.288 835.562 356.955 834.879 357.685C832.497 360.304 829.734 362.97 826.589 365.684C823.429 368.271 820.007 369.794 816.324 370.254ZM816.474 343.534C817.649 342.613 819.404 341.169 821.738 339.201C824.2 337.217 826.701 335.035 829.242 332.654C831.783 330.273 833.879 327.948 835.531 325.678C837.309 323.392 838.104 321.487 837.914 319.963C837.866 319.582 837.763 319.272 837.604 319.034C837.461 318.923 837.2 318.891 836.819 318.939C835.167 319.145 833.309 320.279 831.245 322.343C829.18 324.406 827.163 326.851 825.194 329.676C823.209 332.374 821.414 335.049 819.81 337.7C818.317 340.208 817.205 342.153 816.474 343.534Z" fill="white"/>
</g>
<g filter="url(#filter2_d_43_192)">
<path d="M750.66 442.875C745.707 443.493 742.159 442.452 740.016 439.752C737.746 437.069 736.35 433.631 735.828 429.439C735.416 426.137 735.369 422.66 735.687 419.008C736.022 415.484 736.459 412.269 737 409.364C739.608 394.076 743.914 379.478 749.919 365.572C756.036 351.523 763.668 338.253 772.816 325.76C772.07 324.95 770.999 324.117 769.602 323.259C768.332 322.385 767.634 321.441 767.507 320.424C767.349 319.154 767.627 318.281 768.341 317.805C769.04 317.202 769.897 316.837 770.914 316.71C771.168 316.679 772.199 316.679 774.009 316.711C775.93 316.601 777.724 317.022 779.391 317.975L788.182 306.237C788.849 305.379 789.453 304.53 789.993 303.689C790.517 302.721 791.12 301.871 791.803 301.141C792.359 300.427 792.931 299.84 793.518 299.379C794.233 298.903 795.035 298.61 795.924 298.499C797.321 298.325 798.401 298.706 799.162 299.643C799.908 300.453 800.353 301.429 800.495 302.572C800.654 303.843 800.479 305.025 799.97 306.121C799.446 307.089 798.739 308.145 797.85 309.287C796.071 311.573 794.046 313.954 791.775 316.43C789.504 318.906 787.837 321.049 786.772 322.859C789.042 324.511 790.923 326.146 792.415 327.766C793.891 329.259 795.232 331.22 796.438 333.649C796.978 334.872 797.454 336.103 797.866 337.341C798.279 338.58 798.572 339.897 798.746 341.295C799.348 346.121 798.577 350.797 796.432 355.321C794.415 359.829 791.445 363.94 787.522 367.654C783.584 371.241 779.185 374.241 774.326 376.653C769.468 379.065 764.625 380.572 759.798 381.174C758.528 381.332 757.163 381.244 755.702 380.91C754.385 380.688 753.162 380.195 752.035 379.433C750.732 382.433 749.525 386.196 748.412 390.72C747.315 395.372 746.362 400.134 745.551 405.008C744.755 410.009 744.238 414.653 743.999 418.939C743.648 423.369 743.631 426.854 743.948 429.394C744.281 432.061 744.987 434.102 746.066 435.515C747.161 437.055 748.788 437.691 750.948 437.421C751.329 437.374 752.337 437.184 753.972 436.851C755.75 436.629 757.291 436.05 758.593 435.113C759.069 436.86 758.497 438.479 756.877 439.971C755.273 441.59 753.201 442.558 750.66 442.875ZM765.158 376.055C765.793 375.976 766.365 375.904 766.873 375.841C767.492 375.635 768.048 375.436 768.54 375.246C772.763 373.945 776.638 371.914 780.163 369.153C783.688 366.391 786.365 363.026 788.191 359.057C790.129 354.946 790.797 350.477 790.195 345.65C789.831 342.729 788.744 339.704 786.935 336.576C785.237 333.305 782.817 330.963 779.674 329.549C775.576 334.962 771.05 341.589 766.094 349.43C761.25 357.129 757.056 365.392 753.513 374.218C754.069 373.504 754.601 373.115 755.109 373.051C755.744 372.972 756.347 373.155 756.919 373.6C757.617 374.029 758.046 374.362 758.204 374.6C759.919 375.934 762.237 376.419 765.158 376.055Z" fill="white"/>
</g>
<g filter="url(#filter3_d_43_192)">
<path d="M727.847 384.772C726.704 384.914 725.307 384.572 723.656 383.746C722.132 382.905 720.782 381.912 719.608 380.768C718.418 379.498 717.751 378.291 717.609 377.148C717.371 375.243 717.753 372.615 718.754 369.266C719.739 365.789 720.923 362.352 722.305 358.955C723.814 355.542 724.982 353.01 725.808 351.359C724.22 353.105 722.242 355.867 719.876 359.645C717.62 363.28 715.142 367.201 712.442 371.407C709.853 375.471 707.265 379.019 704.676 382.05C702.214 385.066 699.967 386.701 697.935 386.954C695.141 387.303 692.735 386.635 690.72 384.952C688.815 383.126 687.688 380.815 687.34 378.021C686.865 374.211 687.437 370.011 689.058 365.423C690.663 360.709 692.926 356.105 695.849 351.613C698.883 346.978 702.218 342.692 705.855 338.756C709.618 334.803 713.342 331.566 717.026 329.042C720.837 326.503 724.331 325.036 727.506 324.639C730.935 324.212 733.833 324.689 736.198 326.071C738.547 327.326 739.92 329.541 740.316 332.716C740.379 333.224 740.371 334.193 740.291 335.622C740.339 337.035 739.981 337.789 739.219 337.884C738.838 337.931 738.132 337.439 737.1 336.407C736.195 335.358 734.973 334.35 733.433 333.381C731.894 332.412 730.044 332.062 727.885 332.332C724.328 332.775 720.748 334.576 717.143 337.735C713.649 340.75 710.378 344.512 707.328 349.02C704.263 353.401 701.658 357.854 699.513 362.378C697.369 366.902 695.788 370.776 694.771 373.998C694.501 374.935 694.239 375.935 693.984 376.999C693.857 378.047 693.857 379.079 693.984 380.095C694.126 381.238 694.515 381.77 695.15 381.691C695.785 381.611 697.032 380.746 698.89 379.096C700.875 377.429 702.272 376.223 703.082 375.477C707.132 371.747 710.872 367.605 714.302 363.049C717.86 358.477 720.957 353.834 723.594 349.12C724.436 347.596 725.214 346.08 725.929 344.572C726.644 343.064 727.366 341.619 728.097 340.238C728.621 339.27 729.201 338.746 729.836 338.667C731.233 338.493 732.686 339.279 734.193 341.026C735.828 342.757 736.733 344.321 736.907 345.718C736.986 346.353 736.907 346.75 736.668 346.909C736.557 347.052 736.224 347.48 735.668 348.194C734 350.337 732.428 353.242 730.95 356.909C729.6 360.561 728.448 364.251 727.494 367.982C726.652 371.57 726.063 374.61 725.729 377.103C725.65 377.5 725.586 378.023 725.538 378.674C725.602 379.182 725.943 379.333 726.562 379.127C727.785 378.588 729.643 376.937 732.136 374.175C734.741 371.271 737.496 368.025 740.403 364.437C743.42 360.707 746.088 357.279 748.407 354.152C750.853 351.009 752.449 348.81 753.196 347.556C753.418 347.27 753.64 346.985 753.863 346.699C754.196 346.27 754.554 346.032 754.935 345.985C755.824 345.874 756.324 346.263 756.435 347.152C756.498 347.66 755.672 349.311 753.957 352.105C752.225 354.772 750.041 357.946 747.405 361.629C744.753 365.185 742.037 368.748 739.257 372.32C736.462 375.764 733.993 378.716 731.849 381.177C729.816 383.494 728.482 384.692 727.847 384.772Z" fill="white"/>
</g>
<g filter="url(#filter4_d_43_192)">
<path d="M613.064 299.635C608.365 300.221 605.73 298.228 605.159 293.655C604.938 291.877 606.089 290.25 608.614 288.774C611.123 287.171 614.489 285.72 618.712 284.419C623.047 282.975 627.667 281.754 632.574 280.755C637.607 279.741 642.465 278.877 647.149 278.163C651.817 277.323 655.929 276.681 659.485 276.238C663.026 275.667 665.368 275.311 666.511 275.168L676.99 273.861C686.77 272.641 696.701 271.596 706.783 270.726C716.865 269.855 726.652 269.731 736.146 270.353C736.67 270.416 737.591 270.56 738.909 270.782C740.338 270.862 741.663 271.148 742.886 271.641C744.219 271.99 744.941 272.61 745.052 273.499C745.131 274.134 744.615 274.65 743.504 275.046C742.504 275.3 741.622 275.474 740.86 275.569C739.209 275.775 737.478 275.862 735.669 275.83C733.859 275.798 732.049 275.765 730.239 275.733C724.92 275.494 719.459 275.659 713.854 276.229C708.377 276.783 702.907 277.401 697.445 278.082C687.792 279.286 678.099 280.688 668.367 282.289C658.618 283.763 648.988 285.673 639.478 288.021C639.351 289.068 638.144 290.251 635.857 291.568C633.57 292.885 630.823 294.131 627.616 295.305C624.536 296.463 621.567 297.478 618.709 298.35C615.962 299.08 614.08 299.508 613.064 299.635ZM642.041 406.309C639.247 406.657 637.151 405.887 635.755 403.997C634.374 402.234 633.517 400.019 633.185 397.352C632.646 393.033 632.957 387.771 634.118 381.563C635.263 375.229 636.939 368.506 639.148 361.394C641.341 354.154 643.74 347.019 646.346 339.986C648.936 332.827 651.414 326.326 653.782 320.484C656.133 314.515 658.111 309.689 659.715 306.006C660.907 303.149 662.138 300.093 663.409 296.839C664.664 293.457 666.094 290.441 667.698 287.79C668.222 286.822 669.231 286.116 670.723 285.671C672.216 285.227 673.407 284.95 674.296 284.839C675.312 284.712 676.479 284.76 677.796 284.983C679.114 285.205 679.924 286.007 680.225 287.389C680.352 288.405 680.224 289.453 679.843 290.532C679.573 291.469 679.231 292.35 678.818 293.175C674.259 303.16 669.652 312.764 664.998 321.987C660.344 331.21 656.149 341.021 652.416 351.419C651.653 353.578 650.485 356.626 648.912 360.563C647.324 364.373 645.719 368.571 644.098 373.159C642.605 377.731 641.357 382.208 640.356 386.59C639.481 390.956 639.242 394.726 639.638 397.902C639.702 398.41 639.868 399.227 640.138 400.355C640.534 401.466 641.304 401.95 642.447 401.808C643.082 401.729 643.471 402.261 643.614 403.404C643.693 404.039 643.574 404.634 643.256 405.19C643.081 405.857 642.676 406.23 642.041 406.309Z" fill="white"/>
</g>
<g filter="url(#filter5_d_43_192)">
<path d="M505.072 337.87C502.151 338.235 500.555 337.337 500.286 335.178C500.096 333.654 500.716 331.9 502.145 329.915C503.574 327.931 505.829 326.36 508.91 325.202C510.752 324.456 512.244 324.012 513.387 323.87C514.641 323.584 515.816 323.18 516.912 322.656C516.705 325.133 515.95 327.871 514.647 330.871C513.472 333.856 511.653 335.824 509.192 336.776C507.97 337.315 506.596 337.68 505.072 337.87ZM480.207 433.265C477.413 433.614 475.254 432.851 473.73 430.977C472.222 429.23 471.318 427.15 471.017 424.737C470.795 422.959 471.082 420.085 471.877 416.116C472.688 412.274 473.8 407.75 475.215 402.543C476.756 397.32 478.528 391.875 480.53 386.207C482.532 380.54 484.565 375.127 486.631 369.968C484.487 372.428 482.184 375.166 479.722 378.182C477.388 381.182 475.156 383.975 473.028 386.563C472.917 386.705 472.631 386.999 472.17 387.443C471.837 387.872 471.48 388.11 471.099 388.158C470.209 388.269 469.717 387.943 469.622 387.181C469.543 386.546 469.726 385.943 470.171 385.371C473.125 381.133 476.206 376.879 479.414 372.609C482.749 368.323 485.942 363.926 488.991 359.418C489.96 357.878 490.778 356.68 491.445 355.823C492.223 354.823 493.502 354.212 495.28 353.99C496.042 353.895 497.209 353.943 498.78 354.134C500.463 354.182 501.86 354.524 502.972 355.159C504.21 355.779 504.519 356.708 503.9 357.946C503.153 359.2 501.994 361.279 500.421 364.184C498.848 367.089 497.188 370.328 495.441 373.899C493.678 377.344 492.034 380.709 490.509 383.995C489.095 387.139 487.991 389.663 487.196 391.568C484.543 398.219 482.755 404.053 481.833 409.07C481.038 414.071 480.815 417.968 481.163 420.763C481.591 424.192 482.63 425.804 484.282 425.598C485.933 425.392 488.466 423.464 491.88 419.813C495.294 416.162 499.146 411.877 503.434 406.956C505.022 405.21 507.023 402.639 509.437 399.242C511.978 395.829 514.615 392.147 517.347 388.194C520.205 384.226 522.786 380.615 525.089 377.361C524.662 373.931 524.146 370.835 523.544 368.072C523.068 365.294 522.442 362.341 521.665 359.213C520.109 360.181 518.759 360.736 517.616 360.879C516.473 361.021 515.838 360.585 515.711 359.568C515.537 358.171 516.165 356.481 517.594 354.496C518.15 353.782 519.293 352.608 521.024 350.973C522.755 349.338 524.065 348.465 524.954 348.354C525.971 348.228 526.764 348.386 527.336 348.831C528.034 349.26 528.677 349.76 529.264 350.332C529.852 350.904 530.439 352.507 531.025 355.143C531.612 357.779 532.135 360.422 532.595 363.074C533.182 365.709 533.538 367.535 533.665 368.551C536.27 365.647 538.35 363.194 539.907 361.194C541.59 359.179 543.67 356.726 546.148 353.837C547.387 352.393 549.062 350.314 551.175 347.599C553.287 344.885 554.954 342.742 556.177 341.171C556.67 338.916 557.274 337.035 557.989 335.527C558.577 334.035 559.323 332.781 560.228 331.765C561.261 330.733 562.412 330.138 563.682 329.98C564.714 329.98 565.603 330.385 566.349 331.195C567.222 331.989 567.73 332.958 567.872 334.101C568.126 336.133 567.57 337.88 566.204 339.34C564.965 340.784 563.583 342.633 562.059 344.887C560.645 346.999 559.763 350.269 559.412 354.698C559.349 355.222 559.253 356.008 559.126 357.056C558.999 358.104 558.618 358.667 557.983 358.746C556.173 358.714 555.117 357.491 554.816 355.078C554.753 354.57 554.682 353.999 554.602 353.363C554.634 352.585 554.674 351.871 554.722 351.22L534.307 373.696L535.423 382.65C535.82 385.826 536.279 388.993 536.802 392.153C537.452 395.296 538.095 397.345 538.729 398.297C539.174 398.758 539.547 399.163 539.848 399.512C540.261 399.719 540.722 399.79 541.23 399.727C543.008 399.505 545.104 398.212 547.518 395.847C549.916 393.355 552.449 390.395 555.117 386.966C557.769 383.41 560.239 379.942 562.526 376.561C564.925 373.037 566.942 370.077 568.578 367.68C570.341 365.267 571.413 364.037 571.794 363.989L572.175 363.942C572.81 363.863 573.175 364.204 573.27 364.966L573.317 365.347C573.397 365.982 573.23 366.713 572.817 367.538C571.673 369.745 570.339 371.975 568.814 374.229C567.273 376.356 565.796 378.475 564.383 380.586C562.651 383.253 560.857 385.928 558.998 388.61C557.251 391.15 555.369 393.642 553.352 396.087C552.241 397.515 550.906 399.229 549.35 401.229C547.921 403.214 546.332 404.96 544.586 406.467C542.982 408.086 541.227 409.015 539.322 409.252C538.179 409.395 536.718 409.061 534.94 408.251C533.305 407.552 532.115 406.797 531.369 405.988C530.607 405.051 529.869 403.272 529.155 400.652C528.442 398.033 527.807 395.016 527.253 391.602C526.698 388.189 526.167 384.966 525.66 381.933L515.248 397.743C512.31 402.108 508.927 406.529 505.1 411.005C501.415 415.593 497.739 419.727 494.07 423.41C490.529 427.076 487.329 429.862 484.47 431.766C483.025 432.591 481.604 433.091 480.207 433.265Z" fill="white"/>
</g>
<g filter="url(#filter6_d_43_192)">
<path d="M316.753 440.301C314.34 440.602 312.824 438.276 312.207 433.322C311.906 430.909 312.51 426.964 314.02 421.487C315.514 415.883 317.603 409.366 320.288 401.936C323.085 394.364 326.294 386.482 329.916 378.291C333.522 369.973 337.279 361.829 341.187 353.86C345.095 345.891 348.899 338.645 352.6 332.121C356.285 325.469 359.684 320.144 362.797 316.144C365.91 312.144 368.419 310.025 370.324 309.787C371.213 309.676 372.476 309.971 374.111 310.67C375.746 311.369 377.27 312.21 378.682 313.195C380.095 314.18 380.857 315.117 380.968 316.006C381.253 318.292 381.244 320.809 380.942 323.555C380.751 326.159 380.607 328.628 380.511 330.961C380.416 332.263 380.264 335.184 380.056 339.725C379.833 344.139 379.697 349.251 379.647 355.062C379.709 360.73 380.057 366.104 380.691 371.184C381.293 376.011 382.316 380.076 383.76 383.378C385.203 386.681 387.259 388.166 389.926 387.833C393.356 387.406 397.349 385.295 401.907 381.502C406.464 377.709 411.229 372.987 416.199 367.336C421.282 361.543 426.268 355.503 431.16 349.217C436.163 342.789 440.705 336.805 444.787 331.265C448.98 325.582 452.466 320.955 455.245 317.384C458.152 313.796 459.923 311.963 460.558 311.884C460.939 311.836 461.161 312.067 461.224 312.575C461.351 313.591 461.065 314.916 460.366 316.552C459.206 319.663 457.252 323.647 454.504 328.505C451.867 333.219 448.706 338.386 445.022 344.006C441.337 349.625 437.326 355.22 432.991 360.792C428.782 366.347 424.454 371.466 420.007 376.149C415.561 380.831 411.21 384.727 406.954 387.838C402.682 390.822 398.705 392.543 395.021 393.003C389.179 393.731 384.535 392.698 381.09 389.903C377.63 386.981 375.012 383.051 373.235 378.112C371.442 373.047 370.197 367.72 369.5 362.132C368.692 355.654 368.313 350.026 368.362 345.247C368.395 340.341 368.476 334.784 368.605 328.577C363.633 335.259 358.352 343.077 352.761 352.03C347.282 360.84 342.064 370.197 337.107 380.103C332.278 389.993 328.219 399.851 324.93 409.677C321.625 419.377 319.725 428.45 319.231 436.896C319.199 437.674 319.032 438.404 318.73 439.087C318.428 439.77 317.769 440.174 316.753 440.301ZM451.646 417.285C448.851 417.634 446.843 416.53 445.622 413.973C444.527 411.401 443.845 409.035 443.576 406.876C443.275 404.463 443.395 400.771 443.936 395.802C444.588 390.69 445.534 384.832 446.775 378.228C448.015 371.624 449.477 364.734 451.162 357.558C452.958 350.239 454.905 343.095 457.003 336.126C459.227 329.141 461.475 322.863 463.747 317.291C466.003 311.592 468.267 306.988 470.538 303.48C472.809 299.972 474.961 298.091 476.994 297.838C478.01 297.711 479.661 298.021 481.947 298.768C484.233 299.515 485.463 300.587 485.637 301.984C485.685 302.365 484.787 304.476 482.944 308.318C481.086 312.032 478.663 316.914 475.677 322.962C472.817 328.994 469.783 335.693 466.574 343.059C463.349 350.298 460.347 357.767 457.566 365.466C454.913 373.15 452.863 380.5 451.416 387.517C449.953 394.407 449.547 400.456 450.196 405.663L450.386 407.187C450.497 408.077 450.735 408.95 451.1 409.807C451.449 410.538 452.068 410.847 452.957 410.737C454.482 410.546 455.339 411.213 455.529 412.738C455.64 413.627 455.37 414.563 454.718 415.548C454.067 416.532 453.043 417.111 451.646 417.285Z" fill="white"/>
</g>
<g filter="url(#filter7_d_43_192)">
<path d="M168.712 526.872C162.87 527.601 159.584 525.044 158.855 519.201C158.776 518.566 158.76 517.923 158.808 517.272C158.729 516.637 158.713 515.994 158.761 515.343C159.207 510.644 160.82 505.993 163.599 501.389C166.379 496.786 169.762 492.365 173.748 488.127C177.75 484.016 181.839 480.088 186.016 476.342C190.335 472.708 194.194 469.518 197.592 466.772C199.577 465.106 202.094 463.05 205.143 460.606C208.319 458.146 211.662 455.472 215.171 452.583C218.697 449.822 222.047 447.211 225.223 444.751C226.177 441.02 226.638 436.964 226.608 432.582C226.689 428.057 226.491 423.89 226.016 420.079L225.826 418.555C224.587 421.032 222.697 423.976 220.156 427.389C217.614 430.802 214.684 434.198 211.365 437.579C208.03 440.833 204.703 443.634 201.384 445.983C198.066 448.332 194.946 449.688 192.024 450.053C189.992 450.306 188.516 449.845 187.595 448.67C186.802 447.479 186.302 446.058 186.096 444.407C185.541 439.961 185.924 435.27 187.243 430.333C188.562 425.396 190.183 420.808 192.105 416.569C194.011 412.204 195.751 408.569 197.323 405.664C198.88 402.632 199.634 400.925 199.587 400.544C199.571 400.417 199.436 400.369 199.182 400.401C198.674 400.464 198.103 400.536 197.467 400.615C196.959 400.678 196.848 400.305 197.134 399.496C198.643 397.115 200.628 394.932 203.09 392.948C205.551 390.964 207.989 389.822 210.402 389.521C211.291 389.41 212.355 389.664 213.593 390.284C214.942 390.76 215.68 391.507 215.807 392.523C215.886 393.158 215.592 393.904 214.925 394.761C214.147 395.761 213.194 396.912 212.067 398.214C211.066 399.499 209.7 401.476 207.969 404.142C206.984 405.555 205.658 407.849 203.99 411.024C202.306 414.072 200.614 417.572 198.914 421.525C197.199 425.35 195.801 429.137 194.72 432.883C193.75 436.487 193.424 439.559 193.741 442.099C193.789 442.48 193.844 442.925 193.907 443.433C194.082 443.798 194.447 444.139 195.003 444.457C196.797 444.362 198.924 443.323 201.386 441.339C203.831 439.228 206.348 436.657 208.937 433.625C211.637 430.451 214.13 427.173 216.418 423.792C218.816 420.268 220.865 417.046 222.564 414.125C224.375 411.061 225.622 408.648 226.305 406.886C227.386 404.172 229.323 402.64 232.117 402.291C234.15 402.038 235.348 402.34 235.713 403.197C236.205 404.039 236.546 405.222 236.736 406.746C237.354 411.7 237.583 416.121 237.423 420.011C237.375 423.758 236.881 428.076 235.943 432.966C243.201 424.966 250.03 416.633 256.431 407.966C256.526 407.696 256.74 407.347 257.074 406.918C257.534 406.474 257.892 406.236 258.146 406.204C258.908 406.109 259.336 406.443 259.431 407.205C259.558 408.221 259.304 409.285 258.668 410.396C257.7 411.935 256.604 413.491 255.381 415.062C254.285 416.618 253.189 418.174 252.093 419.729C249.457 423.412 246.757 427.102 243.993 430.801C241.214 434.372 238.228 437.84 235.036 441.205C231.11 457.303 225.105 471.725 217.02 484.472C209.078 497.33 198.446 508.781 185.123 518.828C182.884 520.526 180.319 522.2 177.429 523.85C174.539 525.501 171.634 526.508 168.712 526.872ZM172.5 521.563C175.93 521.135 179.518 519.398 183.266 516.35C186.903 513.446 190.46 509.907 193.938 505.732C197.416 501.557 200.513 497.43 203.229 493.351C206.088 489.383 208.319 486.073 209.924 483.422C211.719 480.231 213.45 477.049 215.118 473.874C216.802 470.826 218.343 467.667 219.741 464.397C221.853 459.619 223.538 455.023 224.793 450.609C224.873 450.213 224.714 449.974 224.317 449.895C224.063 449.927 223.936 449.942 223.936 449.942C220.347 453.228 216.686 456.458 212.955 459.632C209.366 462.917 205.705 466.147 201.973 469.322C200.1 470.845 197.598 473.027 194.47 475.869C191.357 478.837 188.023 482.09 184.465 485.63C180.924 489.296 177.581 493.003 174.436 496.748C171.307 500.621 168.798 504.288 166.908 507.749C165.033 511.336 164.255 514.4 164.571 516.941C164.825 518.973 165.825 520.267 167.571 520.823C169.206 521.522 170.849 521.769 172.5 521.563Z" fill="white"/>
</g>
<g filter="url(#filter8_d_43_192)">
<path d="M32.828 475.713C30.4147 476.014 28.8991 473.687 28.2813 468.734C27.9803 466.32 28.5847 462.375 30.0945 456.898C31.5884 451.294 33.6779 444.778 36.3631 437.348C39.1594 429.776 42.3686 421.894 45.9907 413.703C49.5969 405.385 53.3539 397.241 57.2617 389.272C61.1695 381.303 64.9739 374.057 68.6748 367.532C72.36 360.881 75.759 355.556 78.8719 351.556C81.9848 347.556 84.4938 345.437 86.3991 345.199C87.2882 345.088 88.5503 345.382 90.1854 346.081C91.8204 346.78 93.3443 347.622 94.7571 348.607C96.1698 349.592 96.9316 350.529 97.0425 351.418C97.3277 353.704 97.3191 356.22 97.0166 358.967C96.8254 361.571 96.6819 364.039 96.586 366.373C96.4904 367.675 96.3387 370.596 96.1311 375.137C95.9076 379.55 95.7713 384.663 95.722 390.473C95.784 396.141 96.1318 401.516 96.7655 406.596C97.3675 411.423 98.3904 415.487 99.8342 418.79C101.278 422.093 103.334 423.578 106.001 423.245C109.43 422.817 113.424 420.707 117.982 416.914C122.539 413.12 127.303 408.399 132.274 402.748C137.356 396.954 142.343 390.915 147.235 384.629C152.238 378.2 156.78 372.216 160.862 366.676C165.055 360.994 168.541 356.367 171.32 352.795C174.226 349.208 175.997 347.375 176.632 347.296C177.013 347.248 177.236 347.478 177.299 347.986C177.426 349.003 177.139 350.328 176.44 351.963C175.281 355.075 173.327 359.059 170.579 363.917C167.942 368.631 164.781 373.798 161.096 379.417C157.411 385.037 153.401 390.632 149.065 396.203C144.857 401.759 140.529 406.878 136.082 411.56C131.635 416.243 127.284 420.139 123.028 423.25C118.757 426.233 114.779 427.955 111.096 428.414C105.253 429.143 100.61 428.11 97.1652 425.315C93.705 422.392 91.0864 418.462 89.3096 413.524C87.5169 408.459 86.2721 403.132 85.5751 397.544C84.7671 391.066 84.3876 385.437 84.4366 380.659C84.4697 375.753 84.5506 370.196 84.6793 363.988C79.7081 370.671 74.4271 378.489 68.8361 387.442C63.3563 396.251 58.1384 405.609 53.1822 415.515C48.3531 425.404 44.2939 435.263 41.0048 445.089C37.6999 454.789 35.8001 463.862 35.3057 472.308C35.2737 473.086 35.1068 473.816 34.805 474.499C34.5031 475.181 33.8441 475.586 32.828 475.713ZM167.721 452.697C164.926 453.045 162.918 451.941 161.696 449.385C160.602 446.813 159.92 444.447 159.65 442.288C159.349 439.874 159.469 436.183 160.011 431.214C160.663 426.102 161.609 420.244 162.849 413.64C164.089 407.035 165.552 400.145 167.237 392.97C169.033 385.651 170.98 378.507 173.077 371.538C175.302 364.553 177.55 358.274 179.822 352.702C182.078 347.003 184.342 342.4 186.613 338.892C188.884 335.384 191.036 333.503 193.068 333.249C194.084 333.123 195.735 333.433 198.021 334.18C200.307 334.926 201.538 335.998 201.712 337.396C201.759 337.777 200.862 339.888 199.019 343.73C197.16 347.444 194.738 352.325 191.752 358.374C188.892 364.406 185.858 371.105 182.649 378.471C179.424 385.709 176.421 393.179 173.641 400.878C170.987 408.561 168.937 415.912 167.491 422.929C166.028 429.819 165.622 435.867 166.271 441.075L166.461 442.599C166.572 443.488 166.81 444.362 167.175 445.219C167.524 445.949 168.143 446.259 169.032 446.148C170.556 445.958 171.414 446.625 171.604 448.149C171.715 449.039 171.444 449.975 170.793 450.959C170.142 451.943 169.118 452.523 167.721 452.697Z" fill="white"/>
</g>
<defs>
<filter id="filter0_d_43_192" x="70.6802" y="117.5" width="772.5" height="589" filterUnits="userSpaceOnUse" color-interpolation-filters="sRGB">
<feFlood flood-opacity="0" result="BackgroundImageFix"/>
<feColorMatrix in="SourceAlpha" type="matrix" values="0 0 0 0 0 0 0 0 0 0 0 0 0 0 0 0 0 0 127 0" result="hardAlpha"/>
<feOffset dy="-33"/>
<feGaussianBlur stdDeviation="2"/>
<feComposite in2="hardAlpha" operator="out"/>
<feColorMatrix type="matrix" values="0 0 0 0 0 0 0 0 0 0 0 0 0 0 0 0 0 0 0.5 0"/>
<feBlend mode="normal" in2="BackgroundImageFix" result="effect1_dropShadow_43_192"/>
<feBlend mode="normal" in="SourceGraphic" in2="effect1_dropShadow_43_192" result="shape"/>
</filter>
<filter id="filter1_d_43_192" x="775.35" y="283.491" width="80.6436" height="86.9231" filterUnits="userSpaceOnUse" color-interpolation-filters="sRGB">
<feFlood flood-opacity="0" result="BackgroundImageFix"/>
<feColorMatrix in="SourceAlpha" type="matrix" values="0 0 0 0 0 0 0 0 0 0 0 0 0 0 0 0 0 0 127 0" result="hardAlpha"/>
<feOffset dx="-24" dy="-24"/>
<feGaussianBlur stdDeviation="2"/>
<feComposite in2="hardAlpha" operator="out"/>
<feColorMatrix type="matrix" values="0 0 0 0 0 0 0 0 0 0 0 0 0 0 0 0 0 0 0.25 0"/>
<feBlend mode="normal" in2="BackgroundImageFix" result="effect1_dropShadow_43_192"/>
<feBlend mode="normal" in="SourceGraphic" in2="effect1_dropShadow_43_192" result="shape"/>
</filter>
<filter id="filter2_d_43_192" x="707.479" y="270.458" width="93.0728" height="172.59" filterUnits="userSpaceOnUse" color-interpolation-filters="sRGB">
<feFlood flood-opacity="0" result="BackgroundImageFix"/>
<feColorMatrix in="SourceAlpha" type="matrix" values="0 0 0 0 0 0 0 0 0 0 0 0 0 0 0 0 0 0 127 0" result="hardAlpha"/>
<feOffset dx="-24" dy="-24"/>
<feGaussianBlur stdDeviation="2"/>
<feComposite in2="hardAlpha" operator="out"/>
<feColorMatrix type="matrix" values="0 0 0 0 0 0 0 0 0 0 0 0 0 0 0 0 0 0 0.25 0"/>
<feBlend mode="normal" in2="BackgroundImageFix" result="effect1_dropShadow_43_192"/>
<feBlend mode="normal" in="SourceGraphic" in2="effect1_dropShadow_43_192" result="shape"/>
</filter>
<filter id="filter3_d_43_192" x="659.178" y="296.488" width="97.2598" height="90.5563" filterUnits="userSpaceOnUse" color-interpolation-filters="sRGB">
<feFlood flood-opacity="0" result="BackgroundImageFix"/>
<feColorMatrix in="SourceAlpha" type="matrix" values="0 0 0 0 0 0 0 0 0 0 0 0 0 0 0 0 0 0 127 0" result="hardAlpha"/>
<feOffset dx="-24" dy="-24"/>
<feGaussianBlur stdDeviation="2"/>
<feComposite in2="hardAlpha" operator="out"/>
<feColorMatrix type="matrix" values="0 0 0 0 0 0 0 0 0 0 0 0 0 0 0 0 0 0 0.25 0"/>
<feBlend mode="normal" in2="BackgroundImageFix" result="effect1_dropShadow_43_192"/>
<feBlend mode="normal" in="SourceGraphic" in2="effect1_dropShadow_43_192" result="shape"/>
</filter>
<filter id="filter4_d_43_192" x="577.133" y="241.964" width="167.927" height="164.426" filterUnits="userSpaceOnUse" color-interpolation-filters="sRGB">
<feFlood flood-opacity="0" result="BackgroundImageFix"/>
<feColorMatrix in="SourceAlpha" type="matrix" values="0 0 0 0 0 0 0 0 0 0 0 0 0 0 0 0 0 0 127 0" result="hardAlpha"/>
<feOffset dx="-24" dy="-24"/>
<feGaussianBlur stdDeviation="2"/>
<feComposite in2="hardAlpha" operator="out"/>
<feColorMatrix type="matrix" values="0 0 0 0 0 0 0 0 0 0 0 0 0 0 0 0 0 0 0.25 0"/>
<feBlend mode="normal" in2="BackgroundImageFix" result="effect1_dropShadow_43_192"/>
<feBlend mode="normal" in="SourceGraphic" in2="effect1_dropShadow_43_192" result="shape"/>
</filter>
<filter id="filter5_d_43_192" x="441.604" y="294.656" width="131.732" height="138.691" filterUnits="userSpaceOnUse" color-interpolation-filters="sRGB">
<feFlood flood-opacity="0" result="BackgroundImageFix"/>
<feColorMatrix in="SourceAlpha" type="matrix" values="0 0 0 0 0 0 0 0 0 0 0 0 0 0 0 0 0 0 127 0" result="hardAlpha"/>
<feOffset dx="-24" dy="-24"/>
<feGaussianBlur stdDeviation="2"/>
<feComposite in2="hardAlpha" operator="out"/>
<feColorMatrix type="matrix" values="0 0 0 0 0 0 0 0 0 0 0 0 0 0 0 0 0 0 0.25 0"/>
<feBlend mode="normal" in2="BackgroundImageFix" result="effect1_dropShadow_43_192"/>
<feBlend mode="normal" in="SourceGraphic" in2="effect1_dropShadow_43_192" result="shape"/>
</filter>
<filter id="filter6_d_43_192" x="284.132" y="269.81" width="201.507" height="170.517" filterUnits="userSpaceOnUse" color-interpolation-filters="sRGB">
<feFlood flood-opacity="0" result="BackgroundImageFix"/>
<feColorMatrix in="SourceAlpha" type="matrix" values="0 0 0 0 0 0 0 0 0 0 0 0 0 0 0 0 0 0 127 0" result="hardAlpha"/>
<feOffset dx="-24" dy="-24"/>
<feGaussianBlur stdDeviation="2"/>
<feComposite in2="hardAlpha" operator="out"/>
<feColorMatrix type="matrix" values="0 0 0 0 0 0 0 0 0 0 0 0 0 0 0 0 0 0 0.25 0"/>
<feBlend mode="normal" in2="BackgroundImageFix" result="effect1_dropShadow_43_192"/>
<feBlend mode="normal" in="SourceGraphic" in2="effect1_dropShadow_43_192" result="shape"/>
</filter>
<filter id="filter7_d_43_192" x="130.734" y="361.496" width="128.729" height="165.498" filterUnits="userSpaceOnUse" color-interpolation-filters="sRGB">
<feFlood flood-opacity="0" result="BackgroundImageFix"/>
<feColorMatrix in="SourceAlpha" type="matrix" values="0 0 0 0 0 0 0 0 0 0 0 0 0 0 0 0 0 0 127 0" result="hardAlpha"/>
<feOffset dx="-24" dy="-24"/>
<feGaussianBlur stdDeviation="2"/>
<feComposite in2="hardAlpha" operator="out"/>
<feColorMatrix type="matrix" values="0 0 0 0 0 0 0 0 0 0 0 0 0 0 0 0 0 0 0.25 0"/>
<feBlend mode="normal" in2="BackgroundImageFix" result="effect1_dropShadow_43_192"/>
<feBlend mode="normal" in="SourceGraphic" in2="effect1_dropShadow_43_192" result="shape"/>
</filter>
<filter id="filter8_d_43_192" x="0.206299" y="305.222" width="201.507" height="170.517" filterUnits="userSpaceOnUse" color-interpolation-filters="sRGB">
<feFlood flood-opacity="0" result="BackgroundImageFix"/>
<feColorMatrix in="SourceAlpha" type="matrix" values="0 0 0 0 0 0 0 0 0 0 0 0 0 0 0 0 0 0 127 0" result="hardAlpha"/>
<feOffset dx="-24" dy="-24"/>
<feGaussianBlur stdDeviation="2"/>
<feComposite in2="hardAlpha" operator="out"/>
<feColorMatrix type="matrix" values="0 0 0 0 0 0 0 0 0 0 0 0 0 0 0 0 0 0 0.25 0"/>
<feBlend mode="normal" in2="BackgroundImageFix" result="effect1_dropShadow_43_192"/>
<feBlend mode="normal" in="SourceGraphic" in2="effect1_dropShadow_43_192" result="shape"/>
</filter>
<linearGradient id="paint0_linear_43_192" x1="419.68" y1="0" x2="419.68" y2="511" gradientUnits="userSpaceOnUse">
<stop offset="0.319141" stop-color="#D9FD00"/>
<stop offset="1" stop-color="#FF0000"/>
</linearGradient>
</defs>
</svg>
