<svg width="555" height="425" viewBox="0 0 555 425" fill="none" xmlns="http://www.w3.org/2000/svg">
<path d="M385 219V330H184V239.5V194.25M265.91 149H365" stroke="white" stroke-width="3"/>
<path d="M555 332C555 332 537.875 332 520.75 332C503.625 332 516.375 287.5 501.5 287.5C486.625 287.5 486.5 332 486.5 332C486.5 332 480 423 472.75 423C465.5 423 459 332 459 332C459 332 452 235 441.5 235C431 235 424 332 424 332C424 332 419.5 358 412.25 358C405 358 411 330 400.5 330C390 330 343 330 343 330V194H212V330C212 330 165 330 154.5 330C144 330 150 358 142.75 358C135.5 358 131 332 131 332C131 332 124 235 113.5 235C103 235 96 332 96 332C96 332 89.5 423 82.25 423C75 423 68.5 332 68.5 332C68.5 332 66.25 288 51.375 288C36.5 288 51.375 332 34.25 332C17.125 332 0 332 0 332" stroke="white" stroke-width="3"/>
<path fill-rule="evenodd" clip-rule="evenodd" d="M279.375 251.055C316.832 251.055 349.117 228.911 363.853 197C366.839 190.533 369.104 183.666 370.546 176.5C371.746 170.538 372.375 164.37 372.375 158.055C372.375 114.811 342.86 78.4605 302.875 68.0498V96.5552C302.095 112.625 277.186 145.492 186.393 156.188C186.381 156.809 186.375 157.431 186.375 158.055C186.375 164.37 187.004 170.538 188.204 176.5C196.761 219.027 234.328 251.055 279.375 251.055Z" fill="black"/>
<path d="M186.393 156.188C277.186 145.492 302.095 112.625 302.875 96.5552V68.0498C342.86 78.4605 372.375 114.811 372.375 158.055C372.375 164.37 371.746 170.538 370.546 176.5C369.104 183.666 366.839 190.533 363.853 197M186.393 156.188C186.381 156.809 186.375 157.431 186.375 158.055C186.375 164.37 187.004 170.538 188.204 176.5M186.393 156.188C180.198 156.918 173.697 157.544 166.875 158.055C165.346 144.937 165.606 127.936 169.384 110.5M188.204 176.5C196.761 219.027 234.328 251.055 279.375 251.055C316.832 251.055 349.117 228.911 363.853 197M188.204 176.5C184.136 186.982 172.8 201.656 160 176.5C156.258 162.667 151.019 131.8 160 119C161.077 117.465 162.04 116.139 162.899 115M169.384 110.5C178.373 69.0115 207.276 25.0552 279.375 25.0552C316.954 23.8479 379.95 42.0459 391.52 119M169.384 110.5C169.925 108.3 169.202 106.642 162.899 115M391.52 119C392.728 127.03 393.375 135.701 393.375 145.055C392.943 155.92 391.796 171.212 389.697 187.818M391.52 119C390.533 108.95 393.239 111.015 395.779 115M162.899 115C162.899 -32 395.779 -37.9999 395.779 115M395.779 115C396.576 116.249 397.355 117.687 398 119C404 147.8 400.5 169.333 398 176.5C395.913 183.413 392.958 186.757 389.697 187.818M363.853 197C371.335 199.8 367.068 252.167 364 278C377.577 259.099 385.521 220.859 389.697 187.818" stroke="white" stroke-width="4"/>
<path d="M300.375 150.423C309.708 141.09 332.975 128.023 351.375 150.423" stroke="white" stroke-width="3" stroke-linecap="round"/>
<path d="M255.375 150.529C252.903 148.057 249.453 145.323 245.375 143.055" stroke="white" stroke-width="3" stroke-linecap="round"/>
</svg>
