<svg width="1091" height="768" viewBox="0 0 1091 768" fill="none" xmlns="http://www.w3.org/2000/svg">
<path fill-rule="evenodd" clip-rule="evenodd" d="M748.638 11.4686C738.811 10.6142 728.589 13.3871 714.477 20.9044L714.348 20.9731L30.2014 341.216C17.2357 349.286 12.8821 354.792 11.7048 359.158C10.5514 363.435 11.9414 368.229 15.8961 376.737L282.324 693.252C293.206 698.192 301.192 700.545 308.873 700.631C316.756 700.719 324.969 698.421 336.275 692.808C336.281 692.805 336.286 692.803 336.291 692.8L420.648 650.072L431.403 629.132L969.179 356.856L981.21 364.876L1056.15 331.213C1069.02 323.382 1072.71 317.975 1073.06 313.525C1073.24 311.196 1072.6 308.318 1070.55 304.45C1068.52 300.619 1065.31 296.2 1060.87 290.869L783.012 26.0341C768.822 16.8987 758.498 12.3258 748.638 11.4686ZM749.619 0.192296C762.425 1.30566 774.785 7.23152 789.605 16.8172L790.051 17.1059L1069.15 283.12L1069.35 283.367C1074.07 289.003 1077.93 294.214 1080.55 299.15C1083.18 304.107 1084.75 309.174 1084.34 314.398C1083.52 325.02 1074.9 333.107 1061.71 341.075L1061.42 341.254L980.139 377.766L968.398 369.939L439.794 637.571L429.04 658.51L341.367 702.917L341.347 702.927L341.327 702.937C329.211 708.954 319.144 712.065 308.747 711.949C298.409 711.834 288.4 708.53 276.438 703.007L275.293 702.478L6.27635 382.887L5.96109 382.215C1.98428 373.748 -1.63292 365.14 0.774699 356.211C3.17977 347.292 11.0645 339.754 24.5184 331.421L24.7996 331.247L709.285 10.8456C724.234 2.89839 736.715 -0.929577 749.619 0.192296Z" fill="black"/>
<path fill-rule="evenodd" clip-rule="evenodd" d="M1073.67 312.856C1073.67 312.856 1073.67 312.857 1079.12 311.343C1084.57 309.829 1084.57 309.83 1084.57 309.831L1084.57 309.835L1084.58 309.845L1084.59 309.879L1084.62 310.001C1084.65 310.106 1084.69 310.257 1084.74 310.452C1084.85 310.843 1084.99 311.41 1085.18 312.13C1085.54 313.569 1086.05 315.626 1086.61 318.123C1087.73 323.103 1089.08 329.893 1089.98 337.049C1090.88 344.15 1091.38 351.885 1090.65 358.661C1089.97 365.096 1088.02 372.325 1082.45 376.368C1070.97 384.709 1045.34 398.202 1023.06 409.41C1011.82 415.065 1001.27 420.215 993.541 423.951C989.673 425.82 986.507 427.335 984.307 428.384C983.602 428.72 982.996 429.008 982.498 429.245L972.367 447.238L442.576 719.558L433.491 713.885L342.496 759.337C330.305 765.749 320.001 769.118 309.758 767.641C299.513 766.164 290.539 760.014 280.574 750.481L280.38 750.296L0 425.881V361.629H11.3116V421.678L288.59 742.503C298.005 751.476 304.779 755.506 311.373 756.457C317.999 757.412 325.653 755.431 337.276 749.312L337.329 749.284L434.106 700.944L443.119 706.571L964.173 438.742L974.405 420.57L976.035 419.801L978.45 424.91C976.035 419.801 976.035 419.801 976.035 419.801L976.038 419.799L976.257 419.696C976.404 419.626 976.625 419.522 976.914 419.385C977.491 419.111 978.343 418.707 979.435 418.186C981.62 417.144 984.769 415.637 988.616 413.778C996.313 410.06 1006.8 404.937 1017.97 399.318C1040.51 387.977 1065.22 374.915 1075.8 367.229C1077.23 366.188 1078.78 363.317 1079.4 357.463C1079.99 351.95 1079.61 345.207 1078.76 338.465C1077.92 331.778 1076.64 325.361 1075.57 320.595C1075.04 318.218 1074.56 316.267 1074.22 314.917C1074.04 314.242 1073.91 313.719 1073.81 313.368C1073.77 313.192 1073.73 313.06 1073.71 312.974L1073.67 312.859L1073.67 312.856Z" fill="black"/>
<path fill-rule="evenodd" clip-rule="evenodd" d="M1073.67 312.856C1073.67 312.856 1073.67 312.857 1079.12 311.343C1084.57 309.829 1084.57 309.83 1084.57 309.831L1084.57 309.835L1084.58 309.845L1084.59 309.879L1084.62 310.001C1084.65 310.106 1084.69 310.257 1084.74 310.452C1084.85 310.843 1084.99 311.41 1085.18 312.13C1085.54 313.569 1086.05 315.626 1086.61 318.123C1087.73 323.103 1089.08 329.893 1089.98 337.049C1090.88 344.15 1091.38 351.885 1090.65 358.661C1089.97 365.096 1088.02 372.325 1082.45 376.368C1070.97 384.709 1045.34 398.202 1023.06 409.41C1011.82 415.065 1001.27 420.215 993.541 423.951C989.673 425.82 986.507 427.335 984.307 428.384C983.602 428.72 982.996 429.008 982.498 429.245L972.367 447.238L442.576 719.558L433.491 713.885L342.496 759.337C330.305 765.749 320.001 769.118 309.758 767.641C299.513 766.164 290.539 760.014 280.574 750.481L280.38 750.296L0 425.881V361.629H11.3116V421.678L288.59 742.503C298.005 751.476 304.779 755.506 311.373 756.457C317.999 757.412 325.653 755.431 337.276 749.312L337.329 749.284L434.106 700.944L435.809 702.007L428.184 639.163L439.413 637.803L447.485 704.327L546.348 653.51V571.719L660.03 514.622V595.076L762.221 542.548L758.261 465.049L873.818 406.073V485.185L962.614 439.543V367.844H973.925V421.421L974.405 420.57L976.035 419.801L978.45 424.91C976.035 419.801 976.035 419.801 976.035 419.801L976.038 419.799L976.257 419.696C976.404 419.626 976.625 419.522 976.914 419.385C977.491 419.111 978.343 418.707 979.435 418.186C981.62 417.144 984.769 415.637 988.616 413.778C996.313 410.06 1006.8 404.937 1017.97 399.318C1040.51 387.977 1065.22 374.915 1075.8 367.229C1077.23 366.188 1078.78 363.317 1079.4 357.463C1079.99 351.95 1079.61 345.207 1078.76 338.465C1077.92 331.778 1076.64 325.361 1075.57 320.595C1075.04 318.218 1074.56 316.267 1074.22 314.917C1074.04 314.242 1073.91 313.719 1073.81 313.368C1073.77 313.192 1073.73 313.06 1073.71 312.974L1073.67 312.859L1073.67 312.856ZM862.507 491V424.536L769.931 471.782L773.257 536.875L862.507 491ZM648.718 600.89V532.951L557.66 578.686V647.695L648.718 600.89Z" fill="black"/>
<path fill-rule="evenodd" clip-rule="evenodd" d="M737.954 257.46V266.144C742.371 260.38 744.729 253.891 744.729 247.206C744.729 237.097 739.331 227.425 729.579 220.045C719.826 212.664 706.041 207.897 690.527 207.897C675.013 207.897 661.228 212.664 651.475 220.045C641.723 227.425 636.325 237.097 636.325 247.206C636.325 253.189 638.201 258.975 641.734 264.238L648.389 254.814L658.632 256.881C658.993 255.756 659.456 254.708 660.074 253.717C660.971 252.279 662.099 251.116 663.426 250.046V244.437L687.161 239.357L689.316 243.163C691.091 242.714 692.767 242.473 694.495 242.482C695.629 242.487 696.739 242.6 697.867 242.802V238.91L721.58 244.493V249.817C723.286 250.907 724.742 252.087 725.857 253.567C726.77 254.778 727.368 256.07 727.765 257.46H737.954ZM704.642 247.526V251.882L700.227 250.463C697.725 249.659 696.034 249.326 694.462 249.318C692.904 249.31 691.229 249.622 688.777 250.448L686.141 251.336L683.731 247.079L670.201 249.975V253.547L668.751 254.568C667.134 255.705 666.33 256.521 665.808 257.358C665.28 258.205 664.865 259.354 664.506 261.458L663.916 264.919L651.362 262.385L646.189 269.71C655.823 279.633 671.862 286.515 690.527 286.515C706.482 286.515 720.6 281.473 730.39 273.74C730.656 273.529 730.919 273.317 731.179 273.103V264.297H721.937L721.601 261.257C721.392 259.364 721.005 258.423 720.464 257.705C719.854 256.896 718.786 256.018 716.535 254.744L714.805 253.765V249.918L704.642 247.526ZM734.566 279.123C723.467 287.891 707.84 293.351 690.527 293.351C669.386 293.351 650.757 285.209 639.818 272.842C639.033 271.954 638.288 271.045 637.584 270.116C632.472 263.365 629.55 255.544 629.55 247.206C629.55 221.721 656.85 201.061 690.527 201.061C724.204 201.061 751.504 221.721 751.504 247.206C751.504 258.195 746.428 268.287 737.954 276.212C737.937 276.228 737.92 276.244 737.903 276.26C736.842 277.249 735.729 278.204 734.566 279.123Z" fill="black"/>
<path fill-rule="evenodd" clip-rule="evenodd" d="M408.347 422.264V430.948C412.763 425.184 415.122 418.694 415.122 412.009C415.122 401.901 409.724 392.228 399.972 384.849C390.219 377.468 376.434 372.701 360.92 372.701C345.406 372.701 331.621 377.468 321.868 384.849C312.116 392.228 306.718 401.901 306.718 412.009C306.718 417.992 308.594 423.778 312.127 429.042L318.782 419.617L329.024 421.684C329.386 420.56 329.849 419.511 330.466 418.521C331.364 417.082 332.492 415.919 333.819 414.85V409.24L357.553 404.16L359.709 407.966C361.484 407.517 363.16 407.277 364.888 407.285C366.022 407.291 367.132 407.403 368.26 407.605V403.714L391.973 409.297V414.621C393.679 415.71 395.135 416.891 396.25 418.371C397.162 419.581 397.761 420.874 398.158 422.264H408.347ZM375.035 412.329V416.685L370.619 415.266C368.118 414.463 366.427 414.129 364.855 414.121C363.297 414.114 361.622 414.426 359.17 415.252L356.534 416.139L354.124 411.883L340.594 414.779V418.351L339.144 419.371C337.526 420.508 336.723 421.325 336.201 422.162C335.673 423.008 335.258 424.158 334.899 426.261L334.309 429.723L321.755 427.189L316.582 434.514C326.216 444.437 342.255 451.318 360.92 451.318C376.875 451.318 390.993 446.277 400.782 438.543C401.049 438.333 401.312 438.121 401.572 437.907V429.1H392.33L391.994 426.061C391.785 424.167 391.398 423.227 390.857 422.509C390.247 421.699 389.179 420.822 386.928 419.548L385.198 418.569V414.722L375.035 412.329ZM404.959 443.926C393.86 452.695 378.232 458.154 360.92 458.154C339.778 458.154 321.15 450.012 310.211 437.646C309.426 436.758 308.68 435.849 307.977 434.919C302.865 428.169 299.943 420.347 299.943 412.009C299.943 386.524 327.243 365.864 360.92 365.864C394.597 365.864 421.897 386.524 421.897 412.009C421.897 422.999 416.821 433.091 408.347 441.016C408.33 441.032 408.313 441.048 408.296 441.064C407.235 442.053 406.122 443.008 404.959 443.926Z" fill="black"/>
<path d="M267.929 307.243C267.077 301.886 269.792 296.593 274.641 294.161L607.112 127.384C611.284 125.291 616.275 125.708 620.042 128.463L635.357 139.664C642.875 145.161 641.914 156.665 633.588 160.839L288.569 333.812C281.043 337.585 272.02 332.954 270.697 324.64L267.929 307.243Z" fill="black"/>
<path fill-rule="evenodd" clip-rule="evenodd" d="M607.62 128.395L275.149 295.172C270.74 297.384 268.272 302.195 269.047 307.066L271.815 324.462C273.017 332.021 281.22 336.23 288.062 332.8L633.081 159.827C640.65 156.033 641.523 145.575 634.689 140.577L619.374 129.376C615.95 126.872 611.412 126.493 607.62 128.395ZM274.641 294.161C269.792 296.593 267.077 301.886 267.929 307.243L270.697 324.64C272.02 332.954 281.043 337.585 288.569 333.812L633.588 160.839C641.914 156.665 642.875 145.161 635.357 139.664L620.042 128.463C616.275 125.708 611.284 125.291 607.112 127.384L274.641 294.161Z" fill="black"/>
<path fill-rule="evenodd" clip-rule="evenodd" d="M737.954 257.46V266.144C742.371 260.38 744.729 253.891 744.729 247.206C744.729 237.097 739.331 227.425 729.579 220.045C719.826 212.664 706.041 207.897 690.527 207.897C675.013 207.897 661.228 212.664 651.475 220.045C641.723 227.425 636.325 237.097 636.325 247.206C636.325 253.189 638.201 258.975 641.734 264.238L648.389 254.814L658.632 256.881C658.993 255.756 659.456 254.708 660.074 253.717C660.971 252.279 662.099 251.116 663.426 250.046V244.437L687.161 239.357L689.316 243.163C691.091 242.714 692.767 242.473 694.495 242.482C695.629 242.487 696.739 242.6 697.867 242.802V238.91L721.58 244.493V249.817C723.286 250.907 724.742 252.087 725.857 253.567C726.77 254.778 727.368 256.07 727.765 257.46H737.954ZM704.642 247.526V251.882L700.227 250.463C697.725 249.659 696.034 249.326 694.462 249.318C692.904 249.31 691.229 249.622 688.777 250.448L686.141 251.336L683.731 247.079L670.201 249.975V253.547L668.751 254.568C667.134 255.705 666.33 256.521 665.808 257.358C665.28 258.205 664.865 259.354 664.506 261.458L663.916 264.919L651.362 262.385L646.189 269.71C655.823 279.633 671.862 286.515 690.527 286.515C706.482 286.515 720.6 281.473 730.39 273.74C730.656 273.529 730.919 273.317 731.179 273.103V264.297H721.937L721.601 261.257C721.392 259.364 721.005 258.423 720.464 257.705C719.854 256.896 718.786 256.018 716.535 254.744L714.805 253.765V249.918L704.642 247.526ZM734.566 279.123C723.467 287.891 707.84 293.351 690.527 293.351C669.386 293.351 650.757 285.209 639.818 272.842C639.033 271.954 638.288 271.045 637.584 270.116C632.472 263.365 629.55 255.544 629.55 247.206C629.55 221.721 656.85 201.061 690.527 201.061C724.204 201.061 751.504 221.721 751.504 247.206C751.504 258.195 746.428 268.287 737.954 276.212C737.937 276.228 737.92 276.244 737.903 276.26C736.842 277.249 735.729 278.204 734.566 279.123Z" fill="black"/>
<path fill-rule="evenodd" clip-rule="evenodd" d="M408.347 422.264V430.948C412.763 425.184 415.122 418.694 415.122 412.009C415.122 401.901 409.724 392.228 399.972 384.849C390.219 377.468 376.434 372.701 360.92 372.701C345.406 372.701 331.621 377.468 321.868 384.849C312.116 392.228 306.718 401.901 306.718 412.009C306.718 417.992 308.594 423.778 312.127 429.042L318.782 419.617L329.024 421.684C329.386 420.56 329.849 419.511 330.466 418.521C331.364 417.082 332.492 415.919 333.819 414.85V409.24L357.553 404.16L359.709 407.966C361.484 407.517 363.16 407.277 364.888 407.285C366.022 407.291 367.132 407.403 368.26 407.605V403.714L391.973 409.297V414.621C393.679 415.71 395.135 416.891 396.25 418.371C397.162 419.581 397.761 420.874 398.158 422.264H408.347ZM375.035 412.329V416.685L370.619 415.266C368.118 414.463 366.427 414.129 364.855 414.121C363.297 414.114 361.622 414.426 359.17 415.252L356.534 416.139L354.124 411.883L340.594 414.779V418.351L339.144 419.371C337.526 420.508 336.723 421.325 336.201 422.162C335.673 423.008 335.258 424.158 334.899 426.261L334.309 429.723L321.755 427.189L316.582 434.514C326.216 444.437 342.255 451.318 360.92 451.318C376.875 451.318 390.993 446.277 400.782 438.543C401.049 438.333 401.312 438.121 401.572 437.907V429.1H392.33L391.994 426.061C391.785 424.167 391.398 423.227 390.857 422.509C390.247 421.699 389.179 420.822 386.928 419.548L385.198 418.569V414.722L375.035 412.329ZM404.959 443.926C393.86 452.695 378.232 458.154 360.92 458.154C339.778 458.154 321.15 450.012 310.211 437.646C309.426 436.758 308.68 435.849 307.977 434.919C302.865 428.169 299.943 420.347 299.943 412.009C299.943 386.524 327.243 365.864 360.92 365.864C394.597 365.864 421.897 386.524 421.897 412.009C421.897 422.999 416.821 433.091 408.347 441.016C408.33 441.032 408.313 441.048 408.296 441.064C407.235 442.053 406.122 443.008 404.959 443.926Z" fill="black"/>
<path fill-rule="evenodd" clip-rule="evenodd" d="M357.624 667.746C377.099 667.746 390.863 655.56 390.863 642.734C390.863 629.909 377.099 617.723 357.624 617.723C338.149 617.723 324.384 629.909 324.384 642.734C324.384 655.56 338.149 667.746 357.624 667.746ZM357.624 672.399C378.558 672.399 395.529 659.118 395.529 642.734C395.529 626.351 378.558 613.07 357.624 613.07C336.69 613.07 319.719 626.351 319.719 642.734C319.719 659.118 336.69 672.399 357.624 672.399Z" fill="black"/>
<path fill-rule="evenodd" clip-rule="evenodd" d="M983.878 344.989C1003.35 344.989 1017.12 333.48 1017.12 321.367C1017.12 309.255 1003.35 297.746 983.878 297.746C964.403 297.746 950.638 309.255 950.638 321.367C950.638 333.48 964.403 344.989 983.878 344.989ZM983.878 349.384C1004.81 349.384 1021.78 336.841 1021.78 321.367C1021.78 305.894 1004.81 293.351 983.878 293.351C962.943 293.351 945.973 305.894 945.973 321.367C945.973 336.841 962.943 349.384 983.878 349.384Z" fill="black"/>
<path d="M682.287 441.674C682.287 452.596 670.481 461.451 655.918 461.451C641.355 461.451 629.55 452.596 629.55 441.674C629.55 430.752 641.355 421.898 655.918 421.898C670.481 421.898 682.287 430.752 682.287 441.674Z" fill="black"/>
<path d="M592.685 519.142C595.124 527.545 587.857 537.041 576.453 540.351C565.05 543.662 553.827 539.534 551.388 531.131C548.949 522.729 556.216 513.233 567.619 509.922C579.023 506.611 590.245 510.739 592.685 519.142Z" fill="black"/>
<path d="M814.653 410.214C817.092 418.617 809.825 428.113 798.422 431.424C787.018 434.734 775.796 430.606 773.356 422.204C770.917 413.801 778.184 404.305 789.588 400.994C800.991 397.684 812.213 401.812 814.653 410.214Z" fill="black"/>
<path d="M335.449 631.543L382.996 644.283L381.238 650.842L333.692 638.102L335.449 631.543Z" fill="black"/>
<path d="M961.238 311.293L1008.78 324.033L1007.03 330.592L959.481 317.852L961.238 311.293Z" fill="black"/>
<path d="M366.485 623.926L356.761 660.216L350.203 658.459L359.926 622.169L366.485 623.926Z" fill="black"/>
<path d="M992.273 303.676L982.55 339.966L975.991 338.209L985.715 301.919L992.273 303.676Z" fill="black"/>
<path fill-rule="evenodd" clip-rule="evenodd" d="M440.768 649.616L552.757 592.469L552.757 629.326L445.295 682.999L440.768 649.616ZM655.211 578.155L655.211 540.187L765.544 483.885L765.544 523.049L655.211 578.155ZM869.654 471.051L963.013 424.422L963.013 383.118L869.654 430.758L869.654 471.051Z" fill="black"/>
<path fill-rule="evenodd" clip-rule="evenodd" d="M461.332 523.443C431.859 540.108 395.205 550.444 360.598 550.444C325.664 550.444 289.362 539.92 260.18 522.481C235.148 507.522 191.172 471.967 191.172 412.009C191.172 352.052 235.148 316.497 260.18 301.538C289.362 284.099 325.664 273.574 360.598 273.574C395.205 273.574 431.859 283.911 461.332 300.576C485.106 314.019 533.964 349.229 533.964 412.009C533.964 474.79 485.106 510 461.332 523.443ZM360.598 469.214C401.011 469.214 454.035 443.603 454.035 412.009C454.035 380.416 401.011 354.805 360.598 354.805C320.185 354.805 271.101 380.416 271.101 412.009C271.101 443.603 320.185 469.214 360.598 469.214Z" fill="black"/>
<path fill-rule="evenodd" clip-rule="evenodd" d="M790.241 358.96C760.484 375.427 723.478 385.641 688.538 385.641C653.268 385.641 616.617 375.242 587.155 358.01C561.882 343.229 517.483 308.098 517.483 248.854C517.483 189.61 561.882 154.478 587.155 139.697C616.617 122.466 653.268 112.067 688.538 112.067C723.478 112.067 760.484 122.28 790.241 138.747C814.244 152.03 863.571 186.821 863.571 248.854C863.571 310.887 814.244 345.678 790.241 358.96ZM688.538 305.377C729.34 305.377 782.874 280.071 782.874 248.854C782.874 217.637 729.34 192.33 688.538 192.33C647.737 192.33 598.18 217.637 598.18 248.854C598.18 280.071 647.737 305.377 688.538 305.377Z" fill="black"/>
<path fill-rule="evenodd" clip-rule="evenodd" d="M514.187 412.009C514.187 504.892 427.936 550.444 360.502 550.444C322.922 550.444 285.87 538.449 257.408 512.036C228.811 485.498 214.245 449.194 214.245 412.009C214.245 374.825 228.811 338.521 257.408 311.982C285.87 285.57 322.922 273.574 360.502 273.574C427.936 273.574 514.187 319.127 514.187 412.009ZM360.502 469.214C401.521 469.214 433.06 443.603 433.06 412.009C433.06 380.416 401.521 354.805 360.502 354.805C319.483 354.805 295.372 380.416 295.372 412.009C295.372 443.603 319.483 469.214 360.502 469.214Z" fill="black"/>
<path fill-rule="evenodd" clip-rule="evenodd" d="M840.499 248.854C840.499 340.631 755.195 385.641 688.503 385.641C651.335 385.641 614.69 373.788 586.541 347.69C558.258 321.468 543.852 285.596 543.852 248.854C543.852 212.112 558.258 176.24 586.541 150.018C614.69 123.919 651.335 112.067 688.503 112.067C755.195 112.067 840.499 157.077 840.499 248.854ZM688.503 305.377C729.071 305.377 760.263 280.071 760.263 248.854C760.263 217.637 729.071 192.33 688.503 192.33C647.934 192.33 624.088 217.637 624.088 248.854C624.088 280.071 647.934 305.377 688.503 305.377Z" fill="black"/>
</svg>
