<svg width="774" height="707" viewBox="0 0 774 707" fill="none" xmlns="http://www.w3.org/2000/svg">
<path fill-rule="evenodd" clip-rule="evenodd" d="M477.18 476.963C439.656 498.613 396.115 511 349.68 511C303.246 511 259.704 498.613 222.18 476.963H477.18ZM485.18 472.15C490.301 468.941 495.301 465.554 500.17 462H199.191C204.06 465.554 209.059 468.941 214.18 472.15H485.18ZM171.68 438.793C176.655 443.625 181.826 448.257 187.18 452.674H512.18C517.534 448.257 522.705 443.625 527.68 438.793H171.68ZM535.369 431C539.932 426.174 544.309 421.17 548.488 416H150.873C155.052 421.17 159.429 426.174 163.991 431H535.369ZM128.217 383C131.979 389.52 136.021 395.859 140.326 402H559.034C563.339 395.859 567.381 389.52 571.143 383H128.217ZM578.15 370C581.58 363.169 584.713 356.164 587.531 349H111.829C114.648 356.164 117.78 363.169 121.21 370H578.15ZM102.522 320.5C103.805 325.392 105.229 330.227 106.791 335H592.57C594.131 330.227 595.555 325.392 596.839 320.5H102.522ZM599.676 308.5C601.269 300.951 602.528 293.279 603.438 285.5H95.9228C96.8326 293.279 98.0918 300.951 99.6843 308.5L599.676 308.5ZM94.1802 255.5C94.1802 260.366 94.3162 265.201 94.5847 270H604.776C605.044 265.201 605.18 260.366 605.18 255.5C605.18 252.488 605.128 249.487 605.025 246.5H94.3357C94.2323 249.487 94.1802 252.488 94.1802 255.5ZM603.973 230.5C603.549 226.134 603.015 221.799 602.374 217.5H96.9867C96.3457 221.799 95.8117 226.134 95.3877 230.5H603.973ZM349.68 0C226.744 0 124.086 86.8255 99.6843 202.5H599.676C575.274 86.8255 472.617 0 349.68 0Z" fill="url(#paint0_linear_46_206)" fill-opacity="0.75"/>
<g filter="url(#filter0_d_46_206)">
<path d="M329.68 706.5L4.68018 252L32.6802 248.5L329.68 657.5L713.68 160.5L769.18 154.5L329.68 706.5Z" fill="#00F1FF"/>
</g>
<path fill-rule="evenodd" clip-rule="evenodd" d="M689.207 193.5L726.18 159L592.776 175.621L599.771 202.5C600.526 205.982 600.856 208.07 601.27 212L689.207 193.5ZM96.6318 281.648C94.3436 265.556 93.6509 256.471 94.6332 240.036L29.1802 249L31.1787 288L96.6318 281.648Z" fill="#00F1FF"/>
<defs>
<filter id="filter0_d_46_206" x="0.680176" y="117.5" width="772.5" height="589" filterUnits="userSpaceOnUse" color-interpolation-filters="sRGB">
<feFlood flood-opacity="0" result="BackgroundImageFix"/>
<feColorMatrix in="SourceAlpha" type="matrix" values="0 0 0 0 0 0 0 0 0 0 0 0 0 0 0 0 0 0 127 0" result="hardAlpha"/>
<feOffset dy="-33"/>
<feGaussianBlur stdDeviation="2"/>
<feComposite in2="hardAlpha" operator="out"/>
<feColorMatrix type="matrix" values="0 0 0 0 0 0 0 0 0 0 0 0 0 0 0 0 0 0 0.5 0"/>
<feBlend mode="normal" in2="BackgroundImageFix" result="effect1_dropShadow_46_206"/>
<feBlend mode="normal" in="SourceGraphic" in2="effect1_dropShadow_46_206" result="shape"/>
</filter>
<linearGradient id="paint0_linear_46_206" x1="349.68" y1="0" x2="349.68" y2="511" gradientUnits="userSpaceOnUse">
<stop offset="0.319141" stop-color="#D9FD00"/>
<stop offset="1" stop-color="#FF0000"/>
</linearGradient>
</defs>
</svg>
