<svg width="421" height="157" viewBox="0 0 421 157" fill="none" xmlns="http://www.w3.org/2000/svg">
<path d="M8.84191 133V128.588V124.176V119.765V115.353V110.941V106.529V102.118V97.7059V93.2941V88.8824V84.4706V80.0588V75.6471V71.2353V66.8235V62.4118V58V53.5882V49.1765V44.7647V40.3529V35.9412H13.2537H17.6654H22.0772H26.489H30.9007H35.3125H39.7243H44.136V40.3529V44.7647H39.7243H35.3125H30.9007H26.489H22.0772H17.6654V49.1765V53.5882V58V62.4118V66.8235V71.2353V75.6471V80.0588V84.4706V88.8824H22.0772H26.489H30.9007H35.3125H39.7243H44.136V93.2941V97.7059H39.7243H35.3125H30.9007H26.489H22.0772H17.6654V102.118V106.529V110.941V115.353V119.765V124.176V128.588V133H13.2537H8.84191ZM44.136 88.8824V84.4706V80.0588V75.6471V71.2353V66.8235V62.4118V58V53.5882V49.1765V44.7647H48.5478H52.9596V49.1765V53.5882V58V62.4118V66.8235V71.2353V75.6471V80.0588V84.4706V88.8824H48.5478H44.136ZM66.2638 133V128.588V124.176V119.765V115.353V110.941V106.529V102.118V97.7059V93.2941V88.8824V84.4706V80.0588V75.6471V71.2353V66.8235V62.4118V58V53.5882V49.1765V44.7647V40.3529V35.9412H70.6756H75.0873V40.3529V44.7647V49.1765V53.5882V58V62.4118V66.8235V71.2353V75.6471V80.0588V84.4706V88.8824V93.2941V97.7059V102.118V106.529V110.941V115.353V119.765V124.176H79.4991H83.9108H88.3226H92.7344H97.1461H101.558V128.588V133H97.1461H92.7344H88.3226H83.9108H79.4991H75.0873H70.6756H66.2638ZM114.75 133C114.75 131.382 114.75 129.912 114.75 128.588C114.75 127.265 114.75 125.794 114.75 124.176C116.331 124.176 117.802 124.176 119.162 124.176C120.522 124.176 121.993 124.176 123.574 124.176C123.574 125.794 123.574 127.265 123.574 128.588C123.574 129.912 123.574 131.382 123.574 133C121.993 133 120.522 133 119.162 133C117.802 133 116.331 133 114.75 133ZM114.75 133C114.75 131.382 114.75 129.912 114.75 128.588C114.75 127.265 114.75 125.794 114.75 124.176C116.331 124.176 117.802 124.176 119.162 124.176C120.522 124.176 121.993 124.176 123.574 124.176C123.574 125.794 123.574 127.265 123.574 128.588C123.574 129.912 123.574 131.382 123.574 133C121.993 133 120.522 133 119.162 133C117.802 133 116.331 133 114.75 133ZM114.75 133C114.75 131.382 114.75 129.912 114.75 128.588C114.75 127.265 114.75 125.794 114.75 124.176C116.331 124.176 117.802 124.176 119.162 124.176C120.522 124.176 121.993 124.176 123.574 124.176C123.574 125.794 123.574 127.265 123.574 128.588C123.574 129.912 123.574 131.382 123.574 133C121.993 133 120.522 133 119.162 133C117.802 133 116.331 133 114.75 133ZM114.75 133C114.75 131.382 114.75 129.912 114.75 128.588C114.75 127.265 114.75 125.794 114.75 124.176C116.331 124.176 117.802 124.176 119.162 124.176C120.522 124.176 121.993 124.176 123.574 124.176C123.574 125.794 123.574 127.265 123.574 128.588C123.574 129.912 123.574 131.382 123.574 133C121.993 133 120.522 133 119.162 133C117.802 133 116.331 133 114.75 133ZM114.75 133C114.75 131.382 114.75 129.912 114.75 128.588C114.75 127.265 114.75 125.794 114.75 124.176C116.331 124.176 117.802 124.176 119.162 124.176C120.522 124.176 121.993 124.176 123.574 124.176C123.574 125.794 123.574 127.265 123.574 128.588C123.574 129.912 123.574 131.382 123.574 133C121.993 133 120.522 133 119.162 133C117.802 133 116.331 133 114.75 133ZM114.75 133C114.75 131.382 114.75 129.912 114.75 128.588C114.75 127.265 114.75 125.794 114.75 124.176C116.331 124.176 117.802 124.176 119.162 124.176C120.522 124.176 121.993 124.176 123.574 124.176C123.574 125.794 123.574 127.265 123.574 128.588C123.574 129.912 123.574 131.382 123.574 133C121.993 133 120.522 133 119.162 133C117.802 133 116.331 133 114.75 133ZM114.75 133C114.75 131.382 114.75 129.912 114.75 128.588C114.75 127.265 114.75 125.794 114.75 124.176C116.331 124.176 117.802 124.176 119.162 124.176C120.522 124.176 121.993 124.176 123.574 124.176C123.574 125.794 123.574 127.265 123.574 128.588C123.574 129.912 123.574 131.382 123.574 133C121.993 133 120.522 133 119.162 133C117.802 133 116.331 133 114.75 133ZM114.75 133C114.75 131.382 114.75 129.912 114.75 128.588C114.75 127.265 114.75 125.794 114.75 124.176C116.331 124.176 117.802 124.176 119.162 124.176C120.522 124.176 121.993 124.176 123.574 124.176C123.574 125.794 123.574 127.265 123.574 128.588C123.574 129.912 123.574 131.382 123.574 133C121.993 133 120.522 133 119.162 133C117.802 133 116.331 133 114.75 133ZM114.75 133C114.75 131.382 114.75 129.912 114.75 128.588C114.75 127.265 114.75 125.794 114.75 124.176C116.331 124.176 117.802 124.176 119.162 124.176C120.522 124.176 121.993 124.176 123.574 124.176C123.574 125.794 123.574 127.265 123.574 128.588C123.574 129.912 123.574 131.382 123.574 133C121.993 133 120.522 133 119.162 133C117.802 133 116.331 133 114.75 133ZM150.044 133C150.044 131.382 150.044 129.912 150.044 128.588C150.044 127.265 150.044 125.794 150.044 124.176C151.625 124.176 153.096 124.176 154.456 124.176C155.816 124.176 157.287 124.176 158.868 124.176C158.868 125.794 158.868 127.265 158.868 128.588C158.868 129.912 158.868 131.382 158.868 133C157.287 133 155.816 133 154.456 133C153.096 133 151.625 133 150.044 133ZM150.044 133C150.044 131.382 150.044 129.912 150.044 128.588C150.044 127.265 150.044 125.794 150.044 124.176C151.625 124.176 153.096 124.176 154.456 124.176C155.816 124.176 157.287 124.176 158.868 124.176C158.868 125.794 158.868 127.265 158.868 128.588C158.868 129.912 158.868 131.382 158.868 133C157.287 133 155.816 133 154.456 133C153.096 133 151.625 133 150.044 133ZM150.044 133C150.044 131.382 150.044 129.912 150.044 128.588C150.044 127.265 150.044 125.794 150.044 124.176C151.625 124.176 153.096 124.176 154.456 124.176C155.816 124.176 157.287 124.176 158.868 124.176C158.868 125.794 158.868 127.265 158.868 128.588C158.868 129.912 158.868 131.382 158.868 133C157.287 133 155.816 133 154.456 133C153.096 133 151.625 133 150.044 133ZM150.044 133C150.044 131.382 150.044 129.912 150.044 128.588C150.044 127.265 150.044 125.794 150.044 124.176C151.625 124.176 153.096 124.176 154.456 124.176C155.816 124.176 157.287 124.176 158.868 124.176C158.868 125.794 158.868 127.265 158.868 128.588C158.868 129.912 158.868 131.382 158.868 133C157.287 133 155.816 133 154.456 133C153.096 133 151.625 133 150.044 133ZM150.044 133C150.044 131.382 150.044 129.912 150.044 128.588C150.044 127.265 150.044 125.794 150.044 124.176C151.625 124.176 153.096 124.176 154.456 124.176C155.816 124.176 157.287 124.176 158.868 124.176C158.868 125.794 158.868 127.265 158.868 128.588C158.868 129.912 158.868 131.382 158.868 133C157.287 133 155.816 133 154.456 133C153.096 133 151.625 133 150.044 133ZM150.044 133C150.044 131.382 150.044 129.912 150.044 128.588C150.044 127.265 150.044 125.794 150.044 124.176C151.625 124.176 153.096 124.176 154.456 124.176C155.816 124.176 157.287 124.176 158.868 124.176C158.868 125.794 158.868 127.265 158.868 128.588C158.868 129.912 158.868 131.382 158.868 133C157.287 133 155.816 133 154.456 133C153.096 133 151.625 133 150.044 133ZM150.044 133C150.044 131.382 150.044 129.912 150.044 128.588C150.044 127.265 150.044 125.794 150.044 124.176C151.625 124.176 153.096 124.176 154.456 124.176C155.816 124.176 157.287 124.176 158.868 124.176C158.868 125.794 158.868 127.265 158.868 128.588C158.868 129.912 158.868 131.382 158.868 133C157.287 133 155.816 133 154.456 133C153.096 133 151.625 133 150.044 133ZM150.044 133C150.044 131.382 150.044 129.912 150.044 128.588C150.044 127.265 150.044 125.794 150.044 124.176C151.625 124.176 153.096 124.176 154.456 124.176C155.816 124.176 157.287 124.176 158.868 124.176C158.868 125.794 158.868 127.265 158.868 128.588C158.868 129.912 158.868 131.382 158.868 133C157.287 133 155.816 133 154.456 133C153.096 133 151.625 133 150.044 133ZM150.044 133C150.044 131.382 150.044 129.912 150.044 128.588C150.044 127.265 150.044 125.794 150.044 124.176C151.625 124.176 153.096 124.176 154.456 124.176C155.816 124.176 157.287 124.176 158.868 124.176C158.868 125.794 158.868 127.265 158.868 128.588C158.868 129.912 158.868 131.382 158.868 133C157.287 133 155.816 133 154.456 133C153.096 133 151.625 133 150.044 133ZM114.75 124.176C114.75 122.559 114.75 121.088 114.75 119.765C114.75 118.441 114.75 116.971 114.75 115.353C116.331 115.353 117.802 115.353 119.162 115.353C120.522 115.353 121.993 115.353 123.574 115.353C123.574 116.971 123.574 118.441 123.574 119.765C123.574 121.088 123.574 122.559 123.574 124.176C121.993 124.176 120.522 124.176 119.162 124.176C117.802 124.176 116.331 124.176 114.75 124.176ZM114.75 124.176C114.75 122.559 114.75 121.088 114.75 119.765C114.75 118.441 114.75 116.971 114.75 115.353C116.331 115.353 117.802 115.353 119.162 115.353C120.522 115.353 121.993 115.353 123.574 115.353C123.574 116.971 123.574 118.441 123.574 119.765C123.574 121.088 123.574 122.559 123.574 124.176C121.993 124.176 120.522 124.176 119.162 124.176C117.802 124.176 116.331 124.176 114.75 124.176ZM114.75 124.176C114.75 122.559 114.75 121.088 114.75 119.765C114.75 118.441 114.75 116.971 114.75 115.353C116.331 115.353 117.802 115.353 119.162 115.353C120.522 115.353 121.993 115.353 123.574 115.353C123.574 116.971 123.574 118.441 123.574 119.765C123.574 121.088 123.574 122.559 123.574 124.176C121.993 124.176 120.522 124.176 119.162 124.176C117.802 124.176 116.331 124.176 114.75 124.176ZM114.75 124.176C114.75 122.559 114.75 121.088 114.75 119.765C114.75 118.441 114.75 116.971 114.75 115.353C116.331 115.353 117.802 115.353 119.162 115.353C120.522 115.353 121.993 115.353 123.574 115.353C123.574 116.971 123.574 118.441 123.574 119.765C123.574 121.088 123.574 122.559 123.574 124.176C121.993 124.176 120.522 124.176 119.162 124.176C117.802 124.176 116.331 124.176 114.75 124.176ZM114.75 124.176C114.75 122.559 114.75 121.088 114.75 119.765C114.75 118.441 114.75 116.971 114.75 115.353C116.331 115.353 117.802 115.353 119.162 115.353C120.522 115.353 121.993 115.353 123.574 115.353C123.574 116.971 123.574 118.441 123.574 119.765C123.574 121.088 123.574 122.559 123.574 124.176C121.993 124.176 120.522 124.176 119.162 124.176C117.802 124.176 116.331 124.176 114.75 124.176ZM114.75 124.176C114.75 122.559 114.75 121.088 114.75 119.765C114.75 118.441 114.75 116.971 114.75 115.353C116.331 115.353 117.802 115.353 119.162 115.353C120.522 115.353 121.993 115.353 123.574 115.353C123.574 116.971 123.574 118.441 123.574 119.765C123.574 121.088 123.574 122.559 123.574 124.176C121.993 124.176 120.522 124.176 119.162 124.176C117.802 124.176 116.331 124.176 114.75 124.176ZM114.75 124.176C114.75 122.559 114.75 121.088 114.75 119.765C114.75 118.441 114.75 116.971 114.75 115.353C116.331 115.353 117.802 115.353 119.162 115.353C120.522 115.353 121.993 115.353 123.574 115.353C123.574 116.971 123.574 118.441 123.574 119.765C123.574 121.088 123.574 122.559 123.574 124.176C121.993 124.176 120.522 124.176 119.162 124.176C117.802 124.176 116.331 124.176 114.75 124.176ZM114.75 124.176C114.75 122.559 114.75 121.088 114.75 119.765C114.75 118.441 114.75 116.971 114.75 115.353C116.331 115.353 117.802 115.353 119.162 115.353C120.522 115.353 121.993 115.353 123.574 115.353C123.574 116.971 123.574 118.441 123.574 119.765C123.574 121.088 123.574 122.559 123.574 124.176C121.993 124.176 120.522 124.176 119.162 124.176C117.802 124.176 116.331 124.176 114.75 124.176ZM114.75 124.176C114.75 122.559 114.75 121.088 114.75 119.765C114.75 118.441 114.75 116.971 114.75 115.353C116.331 115.353 117.802 115.353 119.162 115.353C120.522 115.353 121.993 115.353 123.574 115.353C123.574 116.971 123.574 118.441 123.574 119.765C123.574 121.088 123.574 122.559 123.574 124.176C121.993 124.176 120.522 124.176 119.162 124.176C117.802 124.176 116.331 124.176 114.75 124.176ZM150.044 124.176C150.044 122.559 150.044 121.088 150.044 119.765C150.044 118.441 150.044 116.971 150.044 115.353C151.625 115.353 153.096 115.353 154.456 115.353C155.816 115.353 157.287 115.353 158.868 115.353C158.868 116.971 158.868 118.441 158.868 119.765C158.868 121.088 158.868 122.559 158.868 124.176C157.287 124.176 155.816 124.176 154.456 124.176C153.096 124.176 151.625 124.176 150.044 124.176ZM150.044 124.176C150.044 122.559 150.044 121.088 150.044 119.765C150.044 118.441 150.044 116.971 150.044 115.353C151.625 115.353 153.096 115.353 154.456 115.353C155.816 115.353 157.287 115.353 158.868 115.353C158.868 116.971 158.868 118.441 158.868 119.765C158.868 121.088 158.868 122.559 158.868 124.176C157.287 124.176 155.816 124.176 154.456 124.176C153.096 124.176 151.625 124.176 150.044 124.176ZM150.044 124.176C150.044 122.559 150.044 121.088 150.044 119.765C150.044 118.441 150.044 116.971 150.044 115.353C151.625 115.353 153.096 115.353 154.456 115.353C155.816 115.353 157.287 115.353 158.868 115.353C158.868 116.971 158.868 118.441 158.868 119.765C158.868 121.088 158.868 122.559 158.868 124.176C157.287 124.176 155.816 124.176 154.456 124.176C153.096 124.176 151.625 124.176 150.044 124.176ZM150.044 124.176C150.044 122.559 150.044 121.088 150.044 119.765C150.044 118.441 150.044 116.971 150.044 115.353C151.625 115.353 153.096 115.353 154.456 115.353C155.816 115.353 157.287 115.353 158.868 115.353C158.868 116.971 158.868 118.441 158.868 119.765C158.868 121.088 158.868 122.559 158.868 124.176C157.287 124.176 155.816 124.176 154.456 124.176C153.096 124.176 151.625 124.176 150.044 124.176ZM150.044 124.176C150.044 122.559 150.044 121.088 150.044 119.765C150.044 118.441 150.044 116.971 150.044 115.353C151.625 115.353 153.096 115.353 154.456 115.353C155.816 115.353 157.287 115.353 158.868 115.353C158.868 116.971 158.868 118.441 158.868 119.765C158.868 121.088 158.868 122.559 158.868 124.176C157.287 124.176 155.816 124.176 154.456 124.176C153.096 124.176 151.625 124.176 150.044 124.176ZM150.044 124.176C150.044 122.559 150.044 121.088 150.044 119.765C150.044 118.441 150.044 116.971 150.044 115.353C151.625 115.353 153.096 115.353 154.456 115.353C155.816 115.353 157.287 115.353 158.868 115.353C158.868 116.971 158.868 118.441 158.868 119.765C158.868 121.088 158.868 122.559 158.868 124.176C157.287 124.176 155.816 124.176 154.456 124.176C153.096 124.176 151.625 124.176 150.044 124.176ZM150.044 124.176C150.044 122.559 150.044 121.088 150.044 119.765C150.044 118.441 150.044 116.971 150.044 115.353C151.625 115.353 153.096 115.353 154.456 115.353C155.816 115.353 157.287 115.353 158.868 115.353C158.868 116.971 158.868 118.441 158.868 119.765C158.868 121.088 158.868 122.559 158.868 124.176C157.287 124.176 155.816 124.176 154.456 124.176C153.096 124.176 151.625 124.176 150.044 124.176ZM150.044 124.176C150.044 122.559 150.044 121.088 150.044 119.765C150.044 118.441 150.044 116.971 150.044 115.353C151.625 115.353 153.096 115.353 154.456 115.353C155.816 115.353 157.287 115.353 158.868 115.353C158.868 116.971 158.868 118.441 158.868 119.765C158.868 121.088 158.868 122.559 158.868 124.176C157.287 124.176 155.816 124.176 154.456 124.176C153.096 124.176 151.625 124.176 150.044 124.176ZM150.044 124.176C150.044 122.559 150.044 121.088 150.044 119.765C150.044 118.441 150.044 116.971 150.044 115.353C151.625 115.353 153.096 115.353 154.456 115.353C155.816 115.353 157.287 115.353 158.868 115.353C158.868 116.971 158.868 118.441 158.868 119.765C158.868 121.088 158.868 122.559 158.868 124.176C157.287 124.176 155.816 124.176 154.456 124.176C153.096 124.176 151.625 124.176 150.044 124.176ZM114.75 115.353C114.75 113.735 114.75 112.265 114.75 110.941C114.75 109.618 114.75 108.147 114.75 106.529C116.331 106.529 117.802 106.529 119.162 106.529C120.522 106.529 121.993 106.529 123.574 106.529C123.574 108.147 123.574 109.618 123.574 110.941C123.574 112.265 123.574 113.735 123.574 115.353C121.993 115.353 120.522 115.353 119.162 115.353C117.802 115.353 116.331 115.353 114.75 115.353ZM114.75 115.353C114.75 113.735 114.75 112.265 114.75 110.941C114.75 109.618 114.75 108.147 114.75 106.529C116.331 106.529 117.802 106.529 119.162 106.529C120.522 106.529 121.993 106.529 123.574 106.529C123.574 108.147 123.574 109.618 123.574 110.941C123.574 112.265 123.574 113.735 123.574 115.353C121.993 115.353 120.522 115.353 119.162 115.353C117.802 115.353 116.331 115.353 114.75 115.353ZM114.75 115.353C114.75 113.735 114.75 112.265 114.75 110.941C114.75 109.618 114.75 108.147 114.75 106.529C116.331 106.529 117.802 106.529 119.162 106.529C120.522 106.529 121.993 106.529 123.574 106.529C123.574 108.147 123.574 109.618 123.574 110.941C123.574 112.265 123.574 113.735 123.574 115.353C121.993 115.353 120.522 115.353 119.162 115.353C117.802 115.353 116.331 115.353 114.75 115.353ZM114.75 115.353C114.75 113.735 114.75 112.265 114.75 110.941C114.75 109.618 114.75 108.147 114.75 106.529C116.331 106.529 117.802 106.529 119.162 106.529C120.522 106.529 121.993 106.529 123.574 106.529C123.574 108.147 123.574 109.618 123.574 110.941C123.574 112.265 123.574 113.735 123.574 115.353C121.993 115.353 120.522 115.353 119.162 115.353C117.802 115.353 116.331 115.353 114.75 115.353ZM114.75 115.353C114.75 113.735 114.75 112.265 114.75 110.941C114.75 109.618 114.75 108.147 114.75 106.529C116.331 106.529 117.802 106.529 119.162 106.529C120.522 106.529 121.993 106.529 123.574 106.529C123.574 108.147 123.574 109.618 123.574 110.941C123.574 112.265 123.574 113.735 123.574 115.353C121.993 115.353 120.522 115.353 119.162 115.353C117.802 115.353 116.331 115.353 114.75 115.353ZM114.75 115.353C114.75 113.735 114.75 112.265 114.75 110.941C114.75 109.618 114.75 108.147 114.75 106.529C116.331 106.529 117.802 106.529 119.162 106.529C120.522 106.529 121.993 106.529 123.574 106.529C123.574 108.147 123.574 109.618 123.574 110.941C123.574 112.265 123.574 113.735 123.574 115.353C121.993 115.353 120.522 115.353 119.162 115.353C117.802 115.353 116.331 115.353 114.75 115.353ZM114.75 115.353C114.75 113.735 114.75 112.265 114.75 110.941C114.75 109.618 114.75 108.147 114.75 106.529C116.331 106.529 117.802 106.529 119.162 106.529C120.522 106.529 121.993 106.529 123.574 106.529C123.574 108.147 123.574 109.618 123.574 110.941C123.574 112.265 123.574 113.735 123.574 115.353C121.993 115.353 120.522 115.353 119.162 115.353C117.802 115.353 116.331 115.353 114.75 115.353ZM114.75 115.353C114.75 113.735 114.75 112.265 114.75 110.941C114.75 109.618 114.75 108.147 114.75 106.529C116.331 106.529 117.802 106.529 119.162 106.529C120.522 106.529 121.993 106.529 123.574 106.529C123.574 108.147 123.574 109.618 123.574 110.941C123.574 112.265 123.574 113.735 123.574 115.353C121.993 115.353 120.522 115.353 119.162 115.353C117.802 115.353 116.331 115.353 114.75 115.353ZM114.75 115.353C114.75 113.735 114.75 112.265 114.75 110.941C114.75 109.618 114.75 108.147 114.75 106.529C116.331 106.529 117.802 106.529 119.162 106.529C120.522 106.529 121.993 106.529 123.574 106.529C123.574 108.147 123.574 109.618 123.574 110.941C123.574 112.265 123.574 113.735 123.574 115.353C121.993 115.353 120.522 115.353 119.162 115.353C117.802 115.353 116.331 115.353 114.75 115.353ZM150.044 115.353C150.044 113.735 150.044 112.265 150.044 110.941C150.044 109.618 150.044 108.147 150.044 106.529C151.625 106.529 153.096 106.529 154.456 106.529C155.816 106.529 157.287 106.529 158.868 106.529C158.868 108.147 158.868 109.618 158.868 110.941C158.868 112.265 158.868 113.735 158.868 115.353C157.287 115.353 155.816 115.353 154.456 115.353C153.096 115.353 151.625 115.353 150.044 115.353ZM150.044 115.353C150.044 113.735 150.044 112.265 150.044 110.941C150.044 109.618 150.044 108.147 150.044 106.529C151.625 106.529 153.096 106.529 154.456 106.529C155.816 106.529 157.287 106.529 158.868 106.529C158.868 108.147 158.868 109.618 158.868 110.941C158.868 112.265 158.868 113.735 158.868 115.353C157.287 115.353 155.816 115.353 154.456 115.353C153.096 115.353 151.625 115.353 150.044 115.353ZM150.044 115.353C150.044 113.735 150.044 112.265 150.044 110.941C150.044 109.618 150.044 108.147 150.044 106.529C151.625 106.529 153.096 106.529 154.456 106.529C155.816 106.529 157.287 106.529 158.868 106.529C158.868 108.147 158.868 109.618 158.868 110.941C158.868 112.265 158.868 113.735 158.868 115.353C157.287 115.353 155.816 115.353 154.456 115.353C153.096 115.353 151.625 115.353 150.044 115.353ZM150.044 115.353C150.044 113.735 150.044 112.265 150.044 110.941C150.044 109.618 150.044 108.147 150.044 106.529C151.625 106.529 153.096 106.529 154.456 106.529C155.816 106.529 157.287 106.529 158.868 106.529C158.868 108.147 158.868 109.618 158.868 110.941C158.868 112.265 158.868 113.735 158.868 115.353C157.287 115.353 155.816 115.353 154.456 115.353C153.096 115.353 151.625 115.353 150.044 115.353ZM150.044 115.353C150.044 113.735 150.044 112.265 150.044 110.941C150.044 109.618 150.044 108.147 150.044 106.529C151.625 106.529 153.096 106.529 154.456 106.529C155.816 106.529 157.287 106.529 158.868 106.529C158.868 108.147 158.868 109.618 158.868 110.941C158.868 112.265 158.868 113.735 158.868 115.353C157.287 115.353 155.816 115.353 154.456 115.353C153.096 115.353 151.625 115.353 150.044 115.353ZM150.044 115.353C150.044 113.735 150.044 112.265 150.044 110.941C150.044 109.618 150.044 108.147 150.044 106.529C151.625 106.529 153.096 106.529 154.456 106.529C155.816 106.529 157.287 106.529 158.868 106.529C158.868 108.147 158.868 109.618 158.868 110.941C158.868 112.265 158.868 113.735 158.868 115.353C157.287 115.353 155.816 115.353 154.456 115.353C153.096 115.353 151.625 115.353 150.044 115.353ZM150.044 115.353C150.044 113.735 150.044 112.265 150.044 110.941C150.044 109.618 150.044 108.147 150.044 106.529C151.625 106.529 153.096 106.529 154.456 106.529C155.816 106.529 157.287 106.529 158.868 106.529C158.868 108.147 158.868 109.618 158.868 110.941C158.868 112.265 158.868 113.735 158.868 115.353C157.287 115.353 155.816 115.353 154.456 115.353C153.096 115.353 151.625 115.353 150.044 115.353ZM150.044 115.353C150.044 113.735 150.044 112.265 150.044 110.941C150.044 109.618 150.044 108.147 150.044 106.529C151.625 106.529 153.096 106.529 154.456 106.529C155.816 106.529 157.287 106.529 158.868 106.529C158.868 108.147 158.868 109.618 158.868 110.941C158.868 112.265 158.868 113.735 158.868 115.353C157.287 115.353 155.816 115.353 154.456 115.353C153.096 115.353 151.625 115.353 150.044 115.353ZM150.044 115.353C150.044 113.735 150.044 112.265 150.044 110.941C150.044 109.618 150.044 108.147 150.044 106.529C151.625 106.529 153.096 106.529 154.456 106.529C155.816 106.529 157.287 106.529 158.868 106.529C158.868 108.147 158.868 109.618 158.868 110.941C158.868 112.265 158.868 113.735 158.868 115.353C157.287 115.353 155.816 115.353 154.456 115.353C153.096 115.353 151.625 115.353 150.044 115.353ZM114.75 106.529C114.75 104.912 114.75 103.441 114.75 102.118C114.75 100.794 114.75 99.3235 114.75 97.7059C116.331 97.7059 117.802 97.7059 119.162 97.7059C120.522 97.7059 121.993 97.7059 123.574 97.7059C123.574 99.3235 123.574 100.794 123.574 102.118C123.574 103.441 123.574 104.912 123.574 106.529C121.993 106.529 120.522 106.529 119.162 106.529C117.802 106.529 116.331 106.529 114.75 106.529ZM114.75 106.529C114.75 104.912 114.75 103.441 114.75 102.118C114.75 100.794 114.75 99.3235 114.75 97.7059C116.331 97.7059 117.802 97.7059 119.162 97.7059C120.522 97.7059 121.993 97.7059 123.574 97.7059C123.574 99.3235 123.574 100.794 123.574 102.118C123.574 103.441 123.574 104.912 123.574 106.529C121.993 106.529 120.522 106.529 119.162 106.529C117.802 106.529 116.331 106.529 114.75 106.529ZM114.75 106.529C114.75 104.912 114.75 103.441 114.75 102.118C114.75 100.794 114.75 99.3235 114.75 97.7059C116.331 97.7059 117.802 97.7059 119.162 97.7059C120.522 97.7059 121.993 97.7059 123.574 97.7059C123.574 99.3235 123.574 100.794 123.574 102.118C123.574 103.441 123.574 104.912 123.574 106.529C121.993 106.529 120.522 106.529 119.162 106.529C117.802 106.529 116.331 106.529 114.75 106.529ZM114.75 106.529C114.75 104.912 114.75 103.441 114.75 102.118C114.75 100.794 114.75 99.3235 114.75 97.7059C116.331 97.7059 117.802 97.7059 119.162 97.7059C120.522 97.7059 121.993 97.7059 123.574 97.7059C123.574 99.3235 123.574 100.794 123.574 102.118C123.574 103.441 123.574 104.912 123.574 106.529C121.993 106.529 120.522 106.529 119.162 106.529C117.802 106.529 116.331 106.529 114.75 106.529ZM114.75 106.529C114.75 104.912 114.75 103.441 114.75 102.118C114.75 100.794 114.75 99.3235 114.75 97.7059C116.331 97.7059 117.802 97.7059 119.162 97.7059C120.522 97.7059 121.993 97.7059 123.574 97.7059C123.574 99.3235 123.574 100.794 123.574 102.118C123.574 103.441 123.574 104.912 123.574 106.529C121.993 106.529 120.522 106.529 119.162 106.529C117.802 106.529 116.331 106.529 114.75 106.529ZM114.75 106.529C114.75 104.912 114.75 103.441 114.75 102.118C114.75 100.794 114.75 99.3235 114.75 97.7059C116.331 97.7059 117.802 97.7059 119.162 97.7059C120.522 97.7059 121.993 97.7059 123.574 97.7059C123.574 99.3235 123.574 100.794 123.574 102.118C123.574 103.441 123.574 104.912 123.574 106.529C121.993 106.529 120.522 106.529 119.162 106.529C117.802 106.529 116.331 106.529 114.75 106.529ZM114.75 106.529C114.75 104.912 114.75 103.441 114.75 102.118C114.75 100.794 114.75 99.3235 114.75 97.7059C116.331 97.7059 117.802 97.7059 119.162 97.7059C120.522 97.7059 121.993 97.7059 123.574 97.7059C123.574 99.3235 123.574 100.794 123.574 102.118C123.574 103.441 123.574 104.912 123.574 106.529C121.993 106.529 120.522 106.529 119.162 106.529C117.802 106.529 116.331 106.529 114.75 106.529ZM114.75 106.529C114.75 104.912 114.75 103.441 114.75 102.118C114.75 100.794 114.75 99.3235 114.75 97.7059C116.331 97.7059 117.802 97.7059 119.162 97.7059C120.522 97.7059 121.993 97.7059 123.574 97.7059C123.574 99.3235 123.574 100.794 123.574 102.118C123.574 103.441 123.574 104.912 123.574 106.529C121.993 106.529 120.522 106.529 119.162 106.529C117.802 106.529 116.331 106.529 114.75 106.529ZM114.75 106.529C114.75 104.912 114.75 103.441 114.75 102.118C114.75 100.794 114.75 99.3235 114.75 97.7059C116.331 97.7059 117.802 97.7059 119.162 97.7059C120.522 97.7059 121.993 97.7059 123.574 97.7059C123.574 99.3235 123.574 100.794 123.574 102.118C123.574 103.441 123.574 104.912 123.574 106.529C121.993 106.529 120.522 106.529 119.162 106.529C117.802 106.529 116.331 106.529 114.75 106.529ZM123.574 106.529C123.574 104.912 123.574 103.441 123.574 102.118C123.574 100.794 123.574 99.3235 123.574 97.7059C125.155 97.7059 126.625 97.7059 127.985 97.7059C129.346 97.7059 130.816 97.7059 132.397 97.7059C132.397 99.3235 132.397 100.794 132.397 102.118C132.397 103.441 132.397 104.912 132.397 106.529C130.816 106.529 129.346 106.529 127.985 106.529C126.625 106.529 125.155 106.529 123.574 106.529ZM123.574 106.529C123.574 104.912 123.574 103.441 123.574 102.118C123.574 100.794 123.574 99.3235 123.574 97.7059C125.155 97.7059 126.625 97.7059 127.985 97.7059C129.346 97.7059 130.816 97.7059 132.397 97.7059C132.397 99.3235 132.397 100.794 132.397 102.118C132.397 103.441 132.397 104.912 132.397 106.529C130.816 106.529 129.346 106.529 127.985 106.529C126.625 106.529 125.155 106.529 123.574 106.529ZM123.574 106.529C123.574 104.912 123.574 103.441 123.574 102.118C123.574 100.794 123.574 99.3235 123.574 97.7059C125.155 97.7059 126.625 97.7059 127.985 97.7059C129.346 97.7059 130.816 97.7059 132.397 97.7059C132.397 99.3235 132.397 100.794 132.397 102.118C132.397 103.441 132.397 104.912 132.397 106.529C130.816 106.529 129.346 106.529 127.985 106.529C126.625 106.529 125.155 106.529 123.574 106.529ZM123.574 106.529C123.574 104.912 123.574 103.441 123.574 102.118C123.574 100.794 123.574 99.3235 123.574 97.7059C125.155 97.7059 126.625 97.7059 127.985 97.7059C129.346 97.7059 130.816 97.7059 132.397 97.7059C132.397 99.3235 132.397 100.794 132.397 102.118C132.397 103.441 132.397 104.912 132.397 106.529C130.816 106.529 129.346 106.529 127.985 106.529C126.625 106.529 125.155 106.529 123.574 106.529ZM123.574 106.529C123.574 104.912 123.574 103.441 123.574 102.118C123.574 100.794 123.574 99.3235 123.574 97.7059C125.155 97.7059 126.625 97.7059 127.985 97.7059C129.346 97.7059 130.816 97.7059 132.397 97.7059C132.397 99.3235 132.397 100.794 132.397 102.118C132.397 103.441 132.397 104.912 132.397 106.529C130.816 106.529 129.346 106.529 127.985 106.529C126.625 106.529 125.155 106.529 123.574 106.529ZM123.574 106.529C123.574 104.912 123.574 103.441 123.574 102.118C123.574 100.794 123.574 99.3235 123.574 97.7059C125.155 97.7059 126.625 97.7059 127.985 97.7059C129.346 97.7059 130.816 97.7059 132.397 97.7059C132.397 99.3235 132.397 100.794 132.397 102.118C132.397 103.441 132.397 104.912 132.397 106.529C130.816 106.529 129.346 106.529 127.985 106.529C126.625 106.529 125.155 106.529 123.574 106.529ZM123.574 106.529C123.574 104.912 123.574 103.441 123.574 102.118C123.574 100.794 123.574 99.3235 123.574 97.7059C125.155 97.7059 126.625 97.7059 127.985 97.7059C129.346 97.7059 130.816 97.7059 132.397 97.7059C132.397 99.3235 132.397 100.794 132.397 102.118C132.397 103.441 132.397 104.912 132.397 106.529C130.816 106.529 129.346 106.529 127.985 106.529C126.625 106.529 125.155 106.529 123.574 106.529ZM123.574 106.529C123.574 104.912 123.574 103.441 123.574 102.118C123.574 100.794 123.574 99.3235 123.574 97.7059C125.155 97.7059 126.625 97.7059 127.985 97.7059C129.346 97.7059 130.816 97.7059 132.397 97.7059C132.397 99.3235 132.397 100.794 132.397 102.118C132.397 103.441 132.397 104.912 132.397 106.529C130.816 106.529 129.346 106.529 127.985 106.529C126.625 106.529 125.155 106.529 123.574 106.529ZM123.574 106.529C123.574 104.912 123.574 103.441 123.574 102.118C123.574 100.794 123.574 99.3235 123.574 97.7059C125.155 97.7059 126.625 97.7059 127.985 97.7059C129.346 97.7059 130.816 97.7059 132.397 97.7059C132.397 99.3235 132.397 100.794 132.397 102.118C132.397 103.441 132.397 104.912 132.397 106.529C130.816 106.529 129.346 106.529 127.985 106.529C126.625 106.529 125.155 106.529 123.574 106.529ZM132.397 106.529C132.397 104.912 132.397 103.441 132.397 102.118C132.397 100.794 132.397 99.3235 132.397 97.7059C133.978 97.7059 135.449 97.7059 136.809 97.7059C138.169 97.7059 139.64 97.7059 141.221 97.7059C141.221 99.3235 141.221 100.794 141.221 102.118C141.221 103.441 141.221 104.912 141.221 106.529C139.64 106.529 138.169 106.529 136.809 106.529C135.449 106.529 133.978 106.529 132.397 106.529ZM132.397 106.529C132.397 104.912 132.397 103.441 132.397 102.118C132.397 100.794 132.397 99.3235 132.397 97.7059C133.978 97.7059 135.449 97.7059 136.809 97.7059C138.169 97.7059 139.64 97.7059 141.221 97.7059C141.221 99.3235 141.221 100.794 141.221 102.118C141.221 103.441 141.221 104.912 141.221 106.529C139.64 106.529 138.169 106.529 136.809 106.529C135.449 106.529 133.978 106.529 132.397 106.529ZM132.397 106.529C132.397 104.912 132.397 103.441 132.397 102.118C132.397 100.794 132.397 99.3235 132.397 97.7059C133.978 97.7059 135.449 97.7059 136.809 97.7059C138.169 97.7059 139.64 97.7059 141.221 97.7059C141.221 99.3235 141.221 100.794 141.221 102.118C141.221 103.441 141.221 104.912 141.221 106.529C139.64 106.529 138.169 106.529 136.809 106.529C135.449 106.529 133.978 106.529 132.397 106.529ZM132.397 106.529C132.397 104.912 132.397 103.441 132.397 102.118C132.397 100.794 132.397 99.3235 132.397 97.7059C133.978 97.7059 135.449 97.7059 136.809 97.7059C138.169 97.7059 139.64 97.7059 141.221 97.7059C141.221 99.3235 141.221 100.794 141.221 102.118C141.221 103.441 141.221 104.912 141.221 106.529C139.64 106.529 138.169 106.529 136.809 106.529C135.449 106.529 133.978 106.529 132.397 106.529ZM132.397 106.529C132.397 104.912 132.397 103.441 132.397 102.118C132.397 100.794 132.397 99.3235 132.397 97.7059C133.978 97.7059 135.449 97.7059 136.809 97.7059C138.169 97.7059 139.64 97.7059 141.221 97.7059C141.221 99.3235 141.221 100.794 141.221 102.118C141.221 103.441 141.221 104.912 141.221 106.529C139.64 106.529 138.169 106.529 136.809 106.529C135.449 106.529 133.978 106.529 132.397 106.529ZM132.397 106.529C132.397 104.912 132.397 103.441 132.397 102.118C132.397 100.794 132.397 99.3235 132.397 97.7059C133.978 97.7059 135.449 97.7059 136.809 97.7059C138.169 97.7059 139.64 97.7059 141.221 97.7059C141.221 99.3235 141.221 100.794 141.221 102.118C141.221 103.441 141.221 104.912 141.221 106.529C139.64 106.529 138.169 106.529 136.809 106.529C135.449 106.529 133.978 106.529 132.397 106.529ZM132.397 106.529C132.397 104.912 132.397 103.441 132.397 102.118C132.397 100.794 132.397 99.3235 132.397 97.7059C133.978 97.7059 135.449 97.7059 136.809 97.7059C138.169 97.7059 139.64 97.7059 141.221 97.7059C141.221 99.3235 141.221 100.794 141.221 102.118C141.221 103.441 141.221 104.912 141.221 106.529C139.64 106.529 138.169 106.529 136.809 106.529C135.449 106.529 133.978 106.529 132.397 106.529ZM132.397 106.529C132.397 104.912 132.397 103.441 132.397 102.118C132.397 100.794 132.397 99.3235 132.397 97.7059C133.978 97.7059 135.449 97.7059 136.809 97.7059C138.169 97.7059 139.64 97.7059 141.221 97.7059C141.221 99.3235 141.221 100.794 141.221 102.118C141.221 103.441 141.221 104.912 141.221 106.529C139.64 106.529 138.169 106.529 136.809 106.529C135.449 106.529 133.978 106.529 132.397 106.529ZM132.397 106.529C132.397 104.912 132.397 103.441 132.397 102.118C132.397 100.794 132.397 99.3235 132.397 97.7059C133.978 97.7059 135.449 97.7059 136.809 97.7059C138.169 97.7059 139.64 97.7059 141.221 97.7059C141.221 99.3235 141.221 100.794 141.221 102.118C141.221 103.441 141.221 104.912 141.221 106.529C139.64 106.529 138.169 106.529 136.809 106.529C135.449 106.529 133.978 106.529 132.397 106.529ZM141.221 106.529C141.221 104.912 141.221 103.441 141.221 102.118C141.221 100.794 141.221 99.3235 141.221 97.7059C142.802 97.7059 144.272 97.7059 145.632 97.7059C146.993 97.7059 148.463 97.7059 150.044 97.7059C150.044 99.3235 150.044 100.794 150.044 102.118C150.044 103.441 150.044 104.912 150.044 106.529C148.463 106.529 146.993 106.529 145.632 106.529C144.272 106.529 142.802 106.529 141.221 106.529ZM141.221 106.529C141.221 104.912 141.221 103.441 141.221 102.118C141.221 100.794 141.221 99.3235 141.221 97.7059C142.802 97.7059 144.272 97.7059 145.632 97.7059C146.993 97.7059 148.463 97.7059 150.044 97.7059C150.044 99.3235 150.044 100.794 150.044 102.118C150.044 103.441 150.044 104.912 150.044 106.529C148.463 106.529 146.993 106.529 145.632 106.529C144.272 106.529 142.802 106.529 141.221 106.529ZM141.221 106.529C141.221 104.912 141.221 103.441 141.221 102.118C141.221 100.794 141.221 99.3235 141.221 97.7059C142.802 97.7059 144.272 97.7059 145.632 97.7059C146.993 97.7059 148.463 97.7059 150.044 97.7059C150.044 99.3235 150.044 100.794 150.044 102.118C150.044 103.441 150.044 104.912 150.044 106.529C148.463 106.529 146.993 106.529 145.632 106.529C144.272 106.529 142.802 106.529 141.221 106.529ZM141.221 106.529C141.221 104.912 141.221 103.441 141.221 102.118C141.221 100.794 141.221 99.3235 141.221 97.7059C142.802 97.7059 144.272 97.7059 145.632 97.7059C146.993 97.7059 148.463 97.7059 150.044 97.7059C150.044 99.3235 150.044 100.794 150.044 102.118C150.044 103.441 150.044 104.912 150.044 106.529C148.463 106.529 146.993 106.529 145.632 106.529C144.272 106.529 142.802 106.529 141.221 106.529ZM141.221 106.529C141.221 104.912 141.221 103.441 141.221 102.118C141.221 100.794 141.221 99.3235 141.221 97.7059C142.802 97.7059 144.272 97.7059 145.632 97.7059C146.993 97.7059 148.463 97.7059 150.044 97.7059C150.044 99.3235 150.044 100.794 150.044 102.118C150.044 103.441 150.044 104.912 150.044 106.529C148.463 106.529 146.993 106.529 145.632 106.529C144.272 106.529 142.802 106.529 141.221 106.529ZM141.221 106.529C141.221 104.912 141.221 103.441 141.221 102.118C141.221 100.794 141.221 99.3235 141.221 97.7059C142.802 97.7059 144.272 97.7059 145.632 97.7059C146.993 97.7059 148.463 97.7059 150.044 97.7059C150.044 99.3235 150.044 100.794 150.044 102.118C150.044 103.441 150.044 104.912 150.044 106.529C148.463 106.529 146.993 106.529 145.632 106.529C144.272 106.529 142.802 106.529 141.221 106.529ZM141.221 106.529C141.221 104.912 141.221 103.441 141.221 102.118C141.221 100.794 141.221 99.3235 141.221 97.7059C142.802 97.7059 144.272 97.7059 145.632 97.7059C146.993 97.7059 148.463 97.7059 150.044 97.7059C150.044 99.3235 150.044 100.794 150.044 102.118C150.044 103.441 150.044 104.912 150.044 106.529C148.463 106.529 146.993 106.529 145.632 106.529C144.272 106.529 142.802 106.529 141.221 106.529ZM141.221 106.529C141.221 104.912 141.221 103.441 141.221 102.118C141.221 100.794 141.221 99.3235 141.221 97.7059C142.802 97.7059 144.272 97.7059 145.632 97.7059C146.993 97.7059 148.463 97.7059 150.044 97.7059C150.044 99.3235 150.044 100.794 150.044 102.118C150.044 103.441 150.044 104.912 150.044 106.529C148.463 106.529 146.993 106.529 145.632 106.529C144.272 106.529 142.802 106.529 141.221 106.529ZM141.221 106.529C141.221 104.912 141.221 103.441 141.221 102.118C141.221 100.794 141.221 99.3235 141.221 97.7059C142.802 97.7059 144.272 97.7059 145.632 97.7059C146.993 97.7059 148.463 97.7059 150.044 97.7059C150.044 99.3235 150.044 100.794 150.044 102.118C150.044 103.441 150.044 104.912 150.044 106.529C148.463 106.529 146.993 106.529 145.632 106.529C144.272 106.529 142.802 106.529 141.221 106.529ZM150.044 106.529C150.044 104.912 150.044 103.441 150.044 102.118C150.044 100.794 150.044 99.3235 150.044 97.7059C151.625 97.7059 153.096 97.7059 154.456 97.7059C155.816 97.7059 157.287 97.7059 158.868 97.7059C158.868 99.3235 158.868 100.794 158.868 102.118C158.868 103.441 158.868 104.912 158.868 106.529C157.287 106.529 155.816 106.529 154.456 106.529C153.096 106.529 151.625 106.529 150.044 106.529ZM150.044 106.529C150.044 104.912 150.044 103.441 150.044 102.118C150.044 100.794 150.044 99.3235 150.044 97.7059C151.625 97.7059 153.096 97.7059 154.456 97.7059C155.816 97.7059 157.287 97.7059 158.868 97.7059C158.868 99.3235 158.868 100.794 158.868 102.118C158.868 103.441 158.868 104.912 158.868 106.529C157.287 106.529 155.816 106.529 154.456 106.529C153.096 106.529 151.625 106.529 150.044 106.529ZM150.044 106.529C150.044 104.912 150.044 103.441 150.044 102.118C150.044 100.794 150.044 99.3235 150.044 97.7059C151.625 97.7059 153.096 97.7059 154.456 97.7059C155.816 97.7059 157.287 97.7059 158.868 97.7059C158.868 99.3235 158.868 100.794 158.868 102.118C158.868 103.441 158.868 104.912 158.868 106.529C157.287 106.529 155.816 106.529 154.456 106.529C153.096 106.529 151.625 106.529 150.044 106.529ZM150.044 106.529C150.044 104.912 150.044 103.441 150.044 102.118C150.044 100.794 150.044 99.3235 150.044 97.7059C151.625 97.7059 153.096 97.7059 154.456 97.7059C155.816 97.7059 157.287 97.7059 158.868 97.7059C158.868 99.3235 158.868 100.794 158.868 102.118C158.868 103.441 158.868 104.912 158.868 106.529C157.287 106.529 155.816 106.529 154.456 106.529C153.096 106.529 151.625 106.529 150.044 106.529ZM150.044 106.529C150.044 104.912 150.044 103.441 150.044 102.118C150.044 100.794 150.044 99.3235 150.044 97.7059C151.625 97.7059 153.096 97.7059 154.456 97.7059C155.816 97.7059 157.287 97.7059 158.868 97.7059C158.868 99.3235 158.868 100.794 158.868 102.118C158.868 103.441 158.868 104.912 158.868 106.529C157.287 106.529 155.816 106.529 154.456 106.529C153.096 106.529 151.625 106.529 150.044 106.529ZM150.044 106.529C150.044 104.912 150.044 103.441 150.044 102.118C150.044 100.794 150.044 99.3235 150.044 97.7059C151.625 97.7059 153.096 97.7059 154.456 97.7059C155.816 97.7059 157.287 97.7059 158.868 97.7059C158.868 99.3235 158.868 100.794 158.868 102.118C158.868 103.441 158.868 104.912 158.868 106.529C157.287 106.529 155.816 106.529 154.456 106.529C153.096 106.529 151.625 106.529 150.044 106.529ZM150.044 106.529C150.044 104.912 150.044 103.441 150.044 102.118C150.044 100.794 150.044 99.3235 150.044 97.7059C151.625 97.7059 153.096 97.7059 154.456 97.7059C155.816 97.7059 157.287 97.7059 158.868 97.7059C158.868 99.3235 158.868 100.794 158.868 102.118C158.868 103.441 158.868 104.912 158.868 106.529C157.287 106.529 155.816 106.529 154.456 106.529C153.096 106.529 151.625 106.529 150.044 106.529ZM150.044 106.529C150.044 104.912 150.044 103.441 150.044 102.118C150.044 100.794 150.044 99.3235 150.044 97.7059C151.625 97.7059 153.096 97.7059 154.456 97.7059C155.816 97.7059 157.287 97.7059 158.868 97.7059C158.868 99.3235 158.868 100.794 158.868 102.118C158.868 103.441 158.868 104.912 158.868 106.529C157.287 106.529 155.816 106.529 154.456 106.529C153.096 106.529 151.625 106.529 150.044 106.529ZM150.044 106.529C150.044 104.912 150.044 103.441 150.044 102.118C150.044 100.794 150.044 99.3235 150.044 97.7059C151.625 97.7059 153.096 97.7059 154.456 97.7059C155.816 97.7059 157.287 97.7059 158.868 97.7059C158.868 99.3235 158.868 100.794 158.868 102.118C158.868 103.441 158.868 104.912 158.868 106.529C157.287 106.529 155.816 106.529 154.456 106.529C153.096 106.529 151.625 106.529 150.044 106.529ZM114.75 97.7059C114.75 96.0882 114.75 94.6176 114.75 93.2941C114.75 91.9706 114.75 90.5 114.75 88.8824C116.331 88.8824 117.802 88.8824 119.162 88.8824C120.522 88.8824 121.993 88.8824 123.574 88.8824C123.574 90.5 123.574 91.9706 123.574 93.2941C123.574 94.6176 123.574 96.0882 123.574 97.7059C121.993 97.7059 120.522 97.7059 119.162 97.7059C117.802 97.7059 116.331 97.7059 114.75 97.7059ZM114.75 97.7059C114.75 96.0882 114.75 94.6176 114.75 93.2941C114.75 91.9706 114.75 90.5 114.75 88.8824C116.331 88.8824 117.802 88.8824 119.162 88.8824C120.522 88.8824 121.993 88.8824 123.574 88.8824C123.574 90.5 123.574 91.9706 123.574 93.2941C123.574 94.6176 123.574 96.0882 123.574 97.7059C121.993 97.7059 120.522 97.7059 119.162 97.7059C117.802 97.7059 116.331 97.7059 114.75 97.7059ZM114.75 97.7059C114.75 96.0882 114.75 94.6176 114.75 93.2941C114.75 91.9706 114.75 90.5 114.75 88.8824C116.331 88.8824 117.802 88.8824 119.162 88.8824C120.522 88.8824 121.993 88.8824 123.574 88.8824C123.574 90.5 123.574 91.9706 123.574 93.2941C123.574 94.6176 123.574 96.0882 123.574 97.7059C121.993 97.7059 120.522 97.7059 119.162 97.7059C117.802 97.7059 116.331 97.7059 114.75 97.7059ZM114.75 97.7059C114.75 96.0882 114.75 94.6176 114.75 93.2941C114.75 91.9706 114.75 90.5 114.75 88.8824C116.331 88.8824 117.802 88.8824 119.162 88.8824C120.522 88.8824 121.993 88.8824 123.574 88.8824C123.574 90.5 123.574 91.9706 123.574 93.2941C123.574 94.6176 123.574 96.0882 123.574 97.7059C121.993 97.7059 120.522 97.7059 119.162 97.7059C117.802 97.7059 116.331 97.7059 114.75 97.7059ZM114.75 97.7059C114.75 96.0882 114.75 94.6176 114.75 93.2941C114.75 91.9706 114.75 90.5 114.75 88.8824C116.331 88.8824 117.802 88.8824 119.162 88.8824C120.522 88.8824 121.993 88.8824 123.574 88.8824C123.574 90.5 123.574 91.9706 123.574 93.2941C123.574 94.6176 123.574 96.0882 123.574 97.7059C121.993 97.7059 120.522 97.7059 119.162 97.7059C117.802 97.7059 116.331 97.7059 114.75 97.7059ZM114.75 97.7059C114.75 96.0882 114.75 94.6176 114.75 93.2941C114.75 91.9706 114.75 90.5 114.75 88.8824C116.331 88.8824 117.802 88.8824 119.162 88.8824C120.522 88.8824 121.993 88.8824 123.574 88.8824C123.574 90.5 123.574 91.9706 123.574 93.2941C123.574 94.6176 123.574 96.0882 123.574 97.7059C121.993 97.7059 120.522 97.7059 119.162 97.7059C117.802 97.7059 116.331 97.7059 114.75 97.7059ZM114.75 97.7059C114.75 96.0882 114.75 94.6176 114.75 93.2941C114.75 91.9706 114.75 90.5 114.75 88.8824C116.331 88.8824 117.802 88.8824 119.162 88.8824C120.522 88.8824 121.993 88.8824 123.574 88.8824C123.574 90.5 123.574 91.9706 123.574 93.2941C123.574 94.6176 123.574 96.0882 123.574 97.7059C121.993 97.7059 120.522 97.7059 119.162 97.7059C117.802 97.7059 116.331 97.7059 114.75 97.7059ZM114.75 97.7059C114.75 96.0882 114.75 94.6176 114.75 93.2941C114.75 91.9706 114.75 90.5 114.75 88.8824C116.331 88.8824 117.802 88.8824 119.162 88.8824C120.522 88.8824 121.993 88.8824 123.574 88.8824C123.574 90.5 123.574 91.9706 123.574 93.2941C123.574 94.6176 123.574 96.0882 123.574 97.7059C121.993 97.7059 120.522 97.7059 119.162 97.7059C117.802 97.7059 116.331 97.7059 114.75 97.7059ZM114.75 97.7059C114.75 96.0882 114.75 94.6176 114.75 93.2941C114.75 91.9706 114.75 90.5 114.75 88.8824C116.331 88.8824 117.802 88.8824 119.162 88.8824C120.522 88.8824 121.993 88.8824 123.574 88.8824C123.574 90.5 123.574 91.9706 123.574 93.2941C123.574 94.6176 123.574 96.0882 123.574 97.7059C121.993 97.7059 120.522 97.7059 119.162 97.7059C117.802 97.7059 116.331 97.7059 114.75 97.7059ZM150.044 97.7059C150.044 96.0882 150.044 94.6176 150.044 93.2941C150.044 91.9706 150.044 90.5 150.044 88.8824C151.625 88.8824 153.096 88.8824 154.456 88.8824C155.816 88.8824 157.287 88.8824 158.868 88.8824C158.868 90.5 158.868 91.9706 158.868 93.2941C158.868 94.6176 158.868 96.0882 158.868 97.7059C157.287 97.7059 155.816 97.7059 154.456 97.7059C153.096 97.7059 151.625 97.7059 150.044 97.7059ZM150.044 97.7059C150.044 96.0882 150.044 94.6176 150.044 93.2941C150.044 91.9706 150.044 90.5 150.044 88.8824C151.625 88.8824 153.096 88.8824 154.456 88.8824C155.816 88.8824 157.287 88.8824 158.868 88.8824C158.868 90.5 158.868 91.9706 158.868 93.2941C158.868 94.6176 158.868 96.0882 158.868 97.7059C157.287 97.7059 155.816 97.7059 154.456 97.7059C153.096 97.7059 151.625 97.7059 150.044 97.7059ZM150.044 97.7059C150.044 96.0882 150.044 94.6176 150.044 93.2941C150.044 91.9706 150.044 90.5 150.044 88.8824C151.625 88.8824 153.096 88.8824 154.456 88.8824C155.816 88.8824 157.287 88.8824 158.868 88.8824C158.868 90.5 158.868 91.9706 158.868 93.2941C158.868 94.6176 158.868 96.0882 158.868 97.7059C157.287 97.7059 155.816 97.7059 154.456 97.7059C153.096 97.7059 151.625 97.7059 150.044 97.7059ZM150.044 97.7059C150.044 96.0882 150.044 94.6176 150.044 93.2941C150.044 91.9706 150.044 90.5 150.044 88.8824C151.625 88.8824 153.096 88.8824 154.456 88.8824C155.816 88.8824 157.287 88.8824 158.868 88.8824C158.868 90.5 158.868 91.9706 158.868 93.2941C158.868 94.6176 158.868 96.0882 158.868 97.7059C157.287 97.7059 155.816 97.7059 154.456 97.7059C153.096 97.7059 151.625 97.7059 150.044 97.7059ZM150.044 97.7059C150.044 96.0882 150.044 94.6176 150.044 93.2941C150.044 91.9706 150.044 90.5 150.044 88.8824C151.625 88.8824 153.096 88.8824 154.456 88.8824C155.816 88.8824 157.287 88.8824 158.868 88.8824C158.868 90.5 158.868 91.9706 158.868 93.2941C158.868 94.6176 158.868 96.0882 158.868 97.7059C157.287 97.7059 155.816 97.7059 154.456 97.7059C153.096 97.7059 151.625 97.7059 150.044 97.7059ZM150.044 97.7059C150.044 96.0882 150.044 94.6176 150.044 93.2941C150.044 91.9706 150.044 90.5 150.044 88.8824C151.625 88.8824 153.096 88.8824 154.456 88.8824C155.816 88.8824 157.287 88.8824 158.868 88.8824C158.868 90.5 158.868 91.9706 158.868 93.2941C158.868 94.6176 158.868 96.0882 158.868 97.7059C157.287 97.7059 155.816 97.7059 154.456 97.7059C153.096 97.7059 151.625 97.7059 150.044 97.7059ZM150.044 97.7059C150.044 96.0882 150.044 94.6176 150.044 93.2941C150.044 91.9706 150.044 90.5 150.044 88.8824C151.625 88.8824 153.096 88.8824 154.456 88.8824C155.816 88.8824 157.287 88.8824 158.868 88.8824C158.868 90.5 158.868 91.9706 158.868 93.2941C158.868 94.6176 158.868 96.0882 158.868 97.7059C157.287 97.7059 155.816 97.7059 154.456 97.7059C153.096 97.7059 151.625 97.7059 150.044 97.7059ZM150.044 97.7059C150.044 96.0882 150.044 94.6176 150.044 93.2941C150.044 91.9706 150.044 90.5 150.044 88.8824C151.625 88.8824 153.096 88.8824 154.456 88.8824C155.816 88.8824 157.287 88.8824 158.868 88.8824C158.868 90.5 158.868 91.9706 158.868 93.2941C158.868 94.6176 158.868 96.0882 158.868 97.7059C157.287 97.7059 155.816 97.7059 154.456 97.7059C153.096 97.7059 151.625 97.7059 150.044 97.7059ZM150.044 97.7059C150.044 96.0882 150.044 94.6176 150.044 93.2941C150.044 91.9706 150.044 90.5 150.044 88.8824C151.625 88.8824 153.096 88.8824 154.456 88.8824C155.816 88.8824 157.287 88.8824 158.868 88.8824C158.868 90.5 158.868 91.9706 158.868 93.2941C158.868 94.6176 158.868 96.0882 158.868 97.7059C157.287 97.7059 155.816 97.7059 154.456 97.7059C153.096 97.7059 151.625 97.7059 150.044 97.7059ZM114.75 88.8824C114.75 87.2647 114.75 85.7941 114.75 84.4706C114.75 83.1471 114.75 81.6765 114.75 80.0588C116.331 80.0588 117.802 80.0588 119.162 80.0588C120.522 80.0588 121.993 80.0588 123.574 80.0588C123.574 81.6765 123.574 83.1471 123.574 84.4706C123.574 85.7941 123.574 87.2647 123.574 88.8824C121.993 88.8824 120.522 88.8824 119.162 88.8824C117.802 88.8824 116.331 88.8824 114.75 88.8824ZM114.75 88.8824C114.75 87.2647 114.75 85.7941 114.75 84.4706C114.75 83.1471 114.75 81.6765 114.75 80.0588C116.331 80.0588 117.802 80.0588 119.162 80.0588C120.522 80.0588 121.993 80.0588 123.574 80.0588C123.574 81.6765 123.574 83.1471 123.574 84.4706C123.574 85.7941 123.574 87.2647 123.574 88.8824C121.993 88.8824 120.522 88.8824 119.162 88.8824C117.802 88.8824 116.331 88.8824 114.75 88.8824ZM114.75 88.8824C114.75 87.2647 114.75 85.7941 114.75 84.4706C114.75 83.1471 114.75 81.6765 114.75 80.0588C116.331 80.0588 117.802 80.0588 119.162 80.0588C120.522 80.0588 121.993 80.0588 123.574 80.0588C123.574 81.6765 123.574 83.1471 123.574 84.4706C123.574 85.7941 123.574 87.2647 123.574 88.8824C121.993 88.8824 120.522 88.8824 119.162 88.8824C117.802 88.8824 116.331 88.8824 114.75 88.8824ZM114.75 88.8824C114.75 87.2647 114.75 85.7941 114.75 84.4706C114.75 83.1471 114.75 81.6765 114.75 80.0588C116.331 80.0588 117.802 80.0588 119.162 80.0588C120.522 80.0588 121.993 80.0588 123.574 80.0588C123.574 81.6765 123.574 83.1471 123.574 84.4706C123.574 85.7941 123.574 87.2647 123.574 88.8824C121.993 88.8824 120.522 88.8824 119.162 88.8824C117.802 88.8824 116.331 88.8824 114.75 88.8824ZM114.75 88.8824C114.75 87.2647 114.75 85.7941 114.75 84.4706C114.75 83.1471 114.75 81.6765 114.75 80.0588C116.331 80.0588 117.802 80.0588 119.162 80.0588C120.522 80.0588 121.993 80.0588 123.574 80.0588C123.574 81.6765 123.574 83.1471 123.574 84.4706C123.574 85.7941 123.574 87.2647 123.574 88.8824C121.993 88.8824 120.522 88.8824 119.162 88.8824C117.802 88.8824 116.331 88.8824 114.75 88.8824ZM114.75 88.8824C114.75 87.2647 114.75 85.7941 114.75 84.4706C114.75 83.1471 114.75 81.6765 114.75 80.0588C116.331 80.0588 117.802 80.0588 119.162 80.0588C120.522 80.0588 121.993 80.0588 123.574 80.0588C123.574 81.6765 123.574 83.1471 123.574 84.4706C123.574 85.7941 123.574 87.2647 123.574 88.8824C121.993 88.8824 120.522 88.8824 119.162 88.8824C117.802 88.8824 116.331 88.8824 114.75 88.8824ZM114.75 88.8824C114.75 87.2647 114.75 85.7941 114.75 84.4706C114.75 83.1471 114.75 81.6765 114.75 80.0588C116.331 80.0588 117.802 80.0588 119.162 80.0588C120.522 80.0588 121.993 80.0588 123.574 80.0588C123.574 81.6765 123.574 83.1471 123.574 84.4706C123.574 85.7941 123.574 87.2647 123.574 88.8824C121.993 88.8824 120.522 88.8824 119.162 88.8824C117.802 88.8824 116.331 88.8824 114.75 88.8824ZM114.75 88.8824C114.75 87.2647 114.75 85.7941 114.75 84.4706C114.75 83.1471 114.75 81.6765 114.75 80.0588C116.331 80.0588 117.802 80.0588 119.162 80.0588C120.522 80.0588 121.993 80.0588 123.574 80.0588C123.574 81.6765 123.574 83.1471 123.574 84.4706C123.574 85.7941 123.574 87.2647 123.574 88.8824C121.993 88.8824 120.522 88.8824 119.162 88.8824C117.802 88.8824 116.331 88.8824 114.75 88.8824ZM114.75 88.8824C114.75 87.2647 114.75 85.7941 114.75 84.4706C114.75 83.1471 114.75 81.6765 114.75 80.0588C116.331 80.0588 117.802 80.0588 119.162 80.0588C120.522 80.0588 121.993 80.0588 123.574 80.0588C123.574 81.6765 123.574 83.1471 123.574 84.4706C123.574 85.7941 123.574 87.2647 123.574 88.8824C121.993 88.8824 120.522 88.8824 119.162 88.8824C117.802 88.8824 116.331 88.8824 114.75 88.8824ZM150.044 88.8824C150.044 87.2647 150.044 85.7941 150.044 84.4706C150.044 83.1471 150.044 81.6765 150.044 80.0588C151.625 80.0588 153.096 80.0588 154.456 80.0588C155.816 80.0588 157.287 80.0588 158.868 80.0588C158.868 81.6765 158.868 83.1471 158.868 84.4706C158.868 85.7941 158.868 87.2647 158.868 88.8824C157.287 88.8824 155.816 88.8824 154.456 88.8824C153.096 88.8824 151.625 88.8824 150.044 88.8824ZM150.044 88.8824C150.044 87.2647 150.044 85.7941 150.044 84.4706C150.044 83.1471 150.044 81.6765 150.044 80.0588C151.625 80.0588 153.096 80.0588 154.456 80.0588C155.816 80.0588 157.287 80.0588 158.868 80.0588C158.868 81.6765 158.868 83.1471 158.868 84.4706C158.868 85.7941 158.868 87.2647 158.868 88.8824C157.287 88.8824 155.816 88.8824 154.456 88.8824C153.096 88.8824 151.625 88.8824 150.044 88.8824ZM150.044 88.8824C150.044 87.2647 150.044 85.7941 150.044 84.4706C150.044 83.1471 150.044 81.6765 150.044 80.0588C151.625 80.0588 153.096 80.0588 154.456 80.0588C155.816 80.0588 157.287 80.0588 158.868 80.0588C158.868 81.6765 158.868 83.1471 158.868 84.4706C158.868 85.7941 158.868 87.2647 158.868 88.8824C157.287 88.8824 155.816 88.8824 154.456 88.8824C153.096 88.8824 151.625 88.8824 150.044 88.8824ZM150.044 88.8824C150.044 87.2647 150.044 85.7941 150.044 84.4706C150.044 83.1471 150.044 81.6765 150.044 80.0588C151.625 80.0588 153.096 80.0588 154.456 80.0588C155.816 80.0588 157.287 80.0588 158.868 80.0588C158.868 81.6765 158.868 83.1471 158.868 84.4706C158.868 85.7941 158.868 87.2647 158.868 88.8824C157.287 88.8824 155.816 88.8824 154.456 88.8824C153.096 88.8824 151.625 88.8824 150.044 88.8824ZM150.044 88.8824C150.044 87.2647 150.044 85.7941 150.044 84.4706C150.044 83.1471 150.044 81.6765 150.044 80.0588C151.625 80.0588 153.096 80.0588 154.456 80.0588C155.816 80.0588 157.287 80.0588 158.868 80.0588C158.868 81.6765 158.868 83.1471 158.868 84.4706C158.868 85.7941 158.868 87.2647 158.868 88.8824C157.287 88.8824 155.816 88.8824 154.456 88.8824C153.096 88.8824 151.625 88.8824 150.044 88.8824ZM150.044 88.8824C150.044 87.2647 150.044 85.7941 150.044 84.4706C150.044 83.1471 150.044 81.6765 150.044 80.0588C151.625 80.0588 153.096 80.0588 154.456 80.0588C155.816 80.0588 157.287 80.0588 158.868 80.0588C158.868 81.6765 158.868 83.1471 158.868 84.4706C158.868 85.7941 158.868 87.2647 158.868 88.8824C157.287 88.8824 155.816 88.8824 154.456 88.8824C153.096 88.8824 151.625 88.8824 150.044 88.8824ZM150.044 88.8824C150.044 87.2647 150.044 85.7941 150.044 84.4706C150.044 83.1471 150.044 81.6765 150.044 80.0588C151.625 80.0588 153.096 80.0588 154.456 80.0588C155.816 80.0588 157.287 80.0588 158.868 80.0588C158.868 81.6765 158.868 83.1471 158.868 84.4706C158.868 85.7941 158.868 87.2647 158.868 88.8824C157.287 88.8824 155.816 88.8824 154.456 88.8824C153.096 88.8824 151.625 88.8824 150.044 88.8824ZM150.044 88.8824C150.044 87.2647 150.044 85.7941 150.044 84.4706C150.044 83.1471 150.044 81.6765 150.044 80.0588C151.625 80.0588 153.096 80.0588 154.456 80.0588C155.816 80.0588 157.287 80.0588 158.868 80.0588C158.868 81.6765 158.868 83.1471 158.868 84.4706C158.868 85.7941 158.868 87.2647 158.868 88.8824C157.287 88.8824 155.816 88.8824 154.456 88.8824C153.096 88.8824 151.625 88.8824 150.044 88.8824ZM150.044 88.8824C150.044 87.2647 150.044 85.7941 150.044 84.4706C150.044 83.1471 150.044 81.6765 150.044 80.0588C151.625 80.0588 153.096 80.0588 154.456 80.0588C155.816 80.0588 157.287 80.0588 158.868 80.0588C158.868 81.6765 158.868 83.1471 158.868 84.4706C158.868 85.7941 158.868 87.2647 158.868 88.8824C157.287 88.8824 155.816 88.8824 154.456 88.8824C153.096 88.8824 151.625 88.8824 150.044 88.8824ZM114.75 80.0588C114.75 78.4412 114.75 76.9706 114.75 75.6471C114.75 74.3235 114.75 72.8529 114.75 71.2353C116.331 71.2353 117.802 71.2353 119.162 71.2353C120.522 71.2353 121.993 71.2353 123.574 71.2353C123.574 72.8529 123.574 74.3235 123.574 75.6471C123.574 76.9706 123.574 78.4412 123.574 80.0588C121.993 80.0588 120.522 80.0588 119.162 80.0588C117.802 80.0588 116.331 80.0588 114.75 80.0588ZM114.75 80.0588C114.75 78.4412 114.75 76.9706 114.75 75.6471C114.75 74.3235 114.75 72.8529 114.75 71.2353C116.331 71.2353 117.802 71.2353 119.162 71.2353C120.522 71.2353 121.993 71.2353 123.574 71.2353C123.574 72.8529 123.574 74.3235 123.574 75.6471C123.574 76.9706 123.574 78.4412 123.574 80.0588C121.993 80.0588 120.522 80.0588 119.162 80.0588C117.802 80.0588 116.331 80.0588 114.75 80.0588ZM114.75 80.0588C114.75 78.4412 114.75 76.9706 114.75 75.6471C114.75 74.3235 114.75 72.8529 114.75 71.2353C116.331 71.2353 117.802 71.2353 119.162 71.2353C120.522 71.2353 121.993 71.2353 123.574 71.2353C123.574 72.8529 123.574 74.3235 123.574 75.6471C123.574 76.9706 123.574 78.4412 123.574 80.0588C121.993 80.0588 120.522 80.0588 119.162 80.0588C117.802 80.0588 116.331 80.0588 114.75 80.0588ZM114.75 80.0588C114.75 78.4412 114.75 76.9706 114.75 75.6471C114.75 74.3235 114.75 72.8529 114.75 71.2353C116.331 71.2353 117.802 71.2353 119.162 71.2353C120.522 71.2353 121.993 71.2353 123.574 71.2353C123.574 72.8529 123.574 74.3235 123.574 75.6471C123.574 76.9706 123.574 78.4412 123.574 80.0588C121.993 80.0588 120.522 80.0588 119.162 80.0588C117.802 80.0588 116.331 80.0588 114.75 80.0588ZM114.75 80.0588C114.75 78.4412 114.75 76.9706 114.75 75.6471C114.75 74.3235 114.75 72.8529 114.75 71.2353C116.331 71.2353 117.802 71.2353 119.162 71.2353C120.522 71.2353 121.993 71.2353 123.574 71.2353C123.574 72.8529 123.574 74.3235 123.574 75.6471C123.574 76.9706 123.574 78.4412 123.574 80.0588C121.993 80.0588 120.522 80.0588 119.162 80.0588C117.802 80.0588 116.331 80.0588 114.75 80.0588ZM114.75 80.0588C114.75 78.4412 114.75 76.9706 114.75 75.6471C114.75 74.3235 114.75 72.8529 114.75 71.2353C116.331 71.2353 117.802 71.2353 119.162 71.2353C120.522 71.2353 121.993 71.2353 123.574 71.2353C123.574 72.8529 123.574 74.3235 123.574 75.6471C123.574 76.9706 123.574 78.4412 123.574 80.0588C121.993 80.0588 120.522 80.0588 119.162 80.0588C117.802 80.0588 116.331 80.0588 114.75 80.0588ZM114.75 80.0588C114.75 78.4412 114.75 76.9706 114.75 75.6471C114.75 74.3235 114.75 72.8529 114.75 71.2353C116.331 71.2353 117.802 71.2353 119.162 71.2353C120.522 71.2353 121.993 71.2353 123.574 71.2353C123.574 72.8529 123.574 74.3235 123.574 75.6471C123.574 76.9706 123.574 78.4412 123.574 80.0588C121.993 80.0588 120.522 80.0588 119.162 80.0588C117.802 80.0588 116.331 80.0588 114.75 80.0588ZM114.75 80.0588C114.75 78.4412 114.75 76.9706 114.75 75.6471C114.75 74.3235 114.75 72.8529 114.75 71.2353C116.331 71.2353 117.802 71.2353 119.162 71.2353C120.522 71.2353 121.993 71.2353 123.574 71.2353C123.574 72.8529 123.574 74.3235 123.574 75.6471C123.574 76.9706 123.574 78.4412 123.574 80.0588C121.993 80.0588 120.522 80.0588 119.162 80.0588C117.802 80.0588 116.331 80.0588 114.75 80.0588ZM114.75 80.0588C114.75 78.4412 114.75 76.9706 114.75 75.6471C114.75 74.3235 114.75 72.8529 114.75 71.2353C116.331 71.2353 117.802 71.2353 119.162 71.2353C120.522 71.2353 121.993 71.2353 123.574 71.2353C123.574 72.8529 123.574 74.3235 123.574 75.6471C123.574 76.9706 123.574 78.4412 123.574 80.0588C121.993 80.0588 120.522 80.0588 119.162 80.0588C117.802 80.0588 116.331 80.0588 114.75 80.0588ZM150.044 80.0588C150.044 78.4412 150.044 76.9706 150.044 75.6471C150.044 74.3235 150.044 72.8529 150.044 71.2353C151.625 71.2353 153.096 71.2353 154.456 71.2353C155.816 71.2353 157.287 71.2353 158.868 71.2353C158.868 72.8529 158.868 74.3235 158.868 75.6471C158.868 76.9706 158.868 78.4412 158.868 80.0588C157.287 80.0588 155.816 80.0588 154.456 80.0588C153.096 80.0588 151.625 80.0588 150.044 80.0588ZM150.044 80.0588C150.044 78.4412 150.044 76.9706 150.044 75.6471C150.044 74.3235 150.044 72.8529 150.044 71.2353C151.625 71.2353 153.096 71.2353 154.456 71.2353C155.816 71.2353 157.287 71.2353 158.868 71.2353C158.868 72.8529 158.868 74.3235 158.868 75.6471C158.868 76.9706 158.868 78.4412 158.868 80.0588C157.287 80.0588 155.816 80.0588 154.456 80.0588C153.096 80.0588 151.625 80.0588 150.044 80.0588ZM150.044 80.0588C150.044 78.4412 150.044 76.9706 150.044 75.6471C150.044 74.3235 150.044 72.8529 150.044 71.2353C151.625 71.2353 153.096 71.2353 154.456 71.2353C155.816 71.2353 157.287 71.2353 158.868 71.2353C158.868 72.8529 158.868 74.3235 158.868 75.6471C158.868 76.9706 158.868 78.4412 158.868 80.0588C157.287 80.0588 155.816 80.0588 154.456 80.0588C153.096 80.0588 151.625 80.0588 150.044 80.0588ZM150.044 80.0588C150.044 78.4412 150.044 76.9706 150.044 75.6471C150.044 74.3235 150.044 72.8529 150.044 71.2353C151.625 71.2353 153.096 71.2353 154.456 71.2353C155.816 71.2353 157.287 71.2353 158.868 71.2353C158.868 72.8529 158.868 74.3235 158.868 75.6471C158.868 76.9706 158.868 78.4412 158.868 80.0588C157.287 80.0588 155.816 80.0588 154.456 80.0588C153.096 80.0588 151.625 80.0588 150.044 80.0588ZM150.044 80.0588C150.044 78.4412 150.044 76.9706 150.044 75.6471C150.044 74.3235 150.044 72.8529 150.044 71.2353C151.625 71.2353 153.096 71.2353 154.456 71.2353C155.816 71.2353 157.287 71.2353 158.868 71.2353C158.868 72.8529 158.868 74.3235 158.868 75.6471C158.868 76.9706 158.868 78.4412 158.868 80.0588C157.287 80.0588 155.816 80.0588 154.456 80.0588C153.096 80.0588 151.625 80.0588 150.044 80.0588ZM150.044 80.0588C150.044 78.4412 150.044 76.9706 150.044 75.6471C150.044 74.3235 150.044 72.8529 150.044 71.2353C151.625 71.2353 153.096 71.2353 154.456 71.2353C155.816 71.2353 157.287 71.2353 158.868 71.2353C158.868 72.8529 158.868 74.3235 158.868 75.6471C158.868 76.9706 158.868 78.4412 158.868 80.0588C157.287 80.0588 155.816 80.0588 154.456 80.0588C153.096 80.0588 151.625 80.0588 150.044 80.0588ZM150.044 80.0588C150.044 78.4412 150.044 76.9706 150.044 75.6471C150.044 74.3235 150.044 72.8529 150.044 71.2353C151.625 71.2353 153.096 71.2353 154.456 71.2353C155.816 71.2353 157.287 71.2353 158.868 71.2353C158.868 72.8529 158.868 74.3235 158.868 75.6471C158.868 76.9706 158.868 78.4412 158.868 80.0588C157.287 80.0588 155.816 80.0588 154.456 80.0588C153.096 80.0588 151.625 80.0588 150.044 80.0588ZM150.044 80.0588C150.044 78.4412 150.044 76.9706 150.044 75.6471C150.044 74.3235 150.044 72.8529 150.044 71.2353C151.625 71.2353 153.096 71.2353 154.456 71.2353C155.816 71.2353 157.287 71.2353 158.868 71.2353C158.868 72.8529 158.868 74.3235 158.868 75.6471C158.868 76.9706 158.868 78.4412 158.868 80.0588C157.287 80.0588 155.816 80.0588 154.456 80.0588C153.096 80.0588 151.625 80.0588 150.044 80.0588ZM150.044 80.0588C150.044 78.4412 150.044 76.9706 150.044 75.6471C150.044 74.3235 150.044 72.8529 150.044 71.2353C151.625 71.2353 153.096 71.2353 154.456 71.2353C155.816 71.2353 157.287 71.2353 158.868 71.2353C158.868 72.8529 158.868 74.3235 158.868 75.6471C158.868 76.9706 158.868 78.4412 158.868 80.0588C157.287 80.0588 155.816 80.0588 154.456 80.0588C153.096 80.0588 151.625 80.0588 150.044 80.0588ZM114.75 71.2353C114.75 69.6176 114.75 68.1471 114.75 66.8235C114.75 65.5 114.75 64.0294 114.75 62.4118C116.331 62.4118 117.802 62.4118 119.162 62.4118C120.522 62.4118 121.993 62.4118 123.574 62.4118C123.574 64.0294 123.574 65.5 123.574 66.8235C123.574 68.1471 123.574 69.6176 123.574 71.2353C121.993 71.2353 120.522 71.2353 119.162 71.2353C117.802 71.2353 116.331 71.2353 114.75 71.2353ZM114.75 71.2353C114.75 69.6176 114.75 68.1471 114.75 66.8235C114.75 65.5 114.75 64.0294 114.75 62.4118C116.331 62.4118 117.802 62.4118 119.162 62.4118C120.522 62.4118 121.993 62.4118 123.574 62.4118C123.574 64.0294 123.574 65.5 123.574 66.8235C123.574 68.1471 123.574 69.6176 123.574 71.2353C121.993 71.2353 120.522 71.2353 119.162 71.2353C117.802 71.2353 116.331 71.2353 114.75 71.2353ZM114.75 71.2353C114.75 69.6176 114.75 68.1471 114.75 66.8235C114.75 65.5 114.75 64.0294 114.75 62.4118C116.331 62.4118 117.802 62.4118 119.162 62.4118C120.522 62.4118 121.993 62.4118 123.574 62.4118C123.574 64.0294 123.574 65.5 123.574 66.8235C123.574 68.1471 123.574 69.6176 123.574 71.2353C121.993 71.2353 120.522 71.2353 119.162 71.2353C117.802 71.2353 116.331 71.2353 114.75 71.2353ZM114.75 71.2353C114.75 69.6176 114.75 68.1471 114.75 66.8235C114.75 65.5 114.75 64.0294 114.75 62.4118C116.331 62.4118 117.802 62.4118 119.162 62.4118C120.522 62.4118 121.993 62.4118 123.574 62.4118C123.574 64.0294 123.574 65.5 123.574 66.8235C123.574 68.1471 123.574 69.6176 123.574 71.2353C121.993 71.2353 120.522 71.2353 119.162 71.2353C117.802 71.2353 116.331 71.2353 114.75 71.2353ZM114.75 71.2353C114.75 69.6176 114.75 68.1471 114.75 66.8235C114.75 65.5 114.75 64.0294 114.75 62.4118C116.331 62.4118 117.802 62.4118 119.162 62.4118C120.522 62.4118 121.993 62.4118 123.574 62.4118C123.574 64.0294 123.574 65.5 123.574 66.8235C123.574 68.1471 123.574 69.6176 123.574 71.2353C121.993 71.2353 120.522 71.2353 119.162 71.2353C117.802 71.2353 116.331 71.2353 114.75 71.2353ZM114.75 71.2353C114.75 69.6176 114.75 68.1471 114.75 66.8235C114.75 65.5 114.75 64.0294 114.75 62.4118C116.331 62.4118 117.802 62.4118 119.162 62.4118C120.522 62.4118 121.993 62.4118 123.574 62.4118C123.574 64.0294 123.574 65.5 123.574 66.8235C123.574 68.1471 123.574 69.6176 123.574 71.2353C121.993 71.2353 120.522 71.2353 119.162 71.2353C117.802 71.2353 116.331 71.2353 114.75 71.2353ZM114.75 71.2353C114.75 69.6176 114.75 68.1471 114.75 66.8235C114.75 65.5 114.75 64.0294 114.75 62.4118C116.331 62.4118 117.802 62.4118 119.162 62.4118C120.522 62.4118 121.993 62.4118 123.574 62.4118C123.574 64.0294 123.574 65.5 123.574 66.8235C123.574 68.1471 123.574 69.6176 123.574 71.2353C121.993 71.2353 120.522 71.2353 119.162 71.2353C117.802 71.2353 116.331 71.2353 114.75 71.2353ZM114.75 71.2353C114.75 69.6176 114.75 68.1471 114.75 66.8235C114.75 65.5 114.75 64.0294 114.75 62.4118C116.331 62.4118 117.802 62.4118 119.162 62.4118C120.522 62.4118 121.993 62.4118 123.574 62.4118C123.574 64.0294 123.574 65.5 123.574 66.8235C123.574 68.1471 123.574 69.6176 123.574 71.2353C121.993 71.2353 120.522 71.2353 119.162 71.2353C117.802 71.2353 116.331 71.2353 114.75 71.2353ZM114.75 71.2353C114.75 69.6176 114.75 68.1471 114.75 66.8235C114.75 65.5 114.75 64.0294 114.75 62.4118C116.331 62.4118 117.802 62.4118 119.162 62.4118C120.522 62.4118 121.993 62.4118 123.574 62.4118C123.574 64.0294 123.574 65.5 123.574 66.8235C123.574 68.1471 123.574 69.6176 123.574 71.2353C121.993 71.2353 120.522 71.2353 119.162 71.2353C117.802 71.2353 116.331 71.2353 114.75 71.2353ZM150.044 71.2353C150.044 69.6176 150.044 68.1471 150.044 66.8235C150.044 65.5 150.044 64.0294 150.044 62.4118C151.625 62.4118 153.096 62.4118 154.456 62.4118C155.816 62.4118 157.287 62.4118 158.868 62.4118C158.868 64.0294 158.868 65.5 158.868 66.8235C158.868 68.1471 158.868 69.6176 158.868 71.2353C157.287 71.2353 155.816 71.2353 154.456 71.2353C153.096 71.2353 151.625 71.2353 150.044 71.2353ZM150.044 71.2353C150.044 69.6176 150.044 68.1471 150.044 66.8235C150.044 65.5 150.044 64.0294 150.044 62.4118C151.625 62.4118 153.096 62.4118 154.456 62.4118C155.816 62.4118 157.287 62.4118 158.868 62.4118C158.868 64.0294 158.868 65.5 158.868 66.8235C158.868 68.1471 158.868 69.6176 158.868 71.2353C157.287 71.2353 155.816 71.2353 154.456 71.2353C153.096 71.2353 151.625 71.2353 150.044 71.2353ZM150.044 71.2353C150.044 69.6176 150.044 68.1471 150.044 66.8235C150.044 65.5 150.044 64.0294 150.044 62.4118C151.625 62.4118 153.096 62.4118 154.456 62.4118C155.816 62.4118 157.287 62.4118 158.868 62.4118C158.868 64.0294 158.868 65.5 158.868 66.8235C158.868 68.1471 158.868 69.6176 158.868 71.2353C157.287 71.2353 155.816 71.2353 154.456 71.2353C153.096 71.2353 151.625 71.2353 150.044 71.2353ZM150.044 71.2353C150.044 69.6176 150.044 68.1471 150.044 66.8235C150.044 65.5 150.044 64.0294 150.044 62.4118C151.625 62.4118 153.096 62.4118 154.456 62.4118C155.816 62.4118 157.287 62.4118 158.868 62.4118C158.868 64.0294 158.868 65.5 158.868 66.8235C158.868 68.1471 158.868 69.6176 158.868 71.2353C157.287 71.2353 155.816 71.2353 154.456 71.2353C153.096 71.2353 151.625 71.2353 150.044 71.2353ZM150.044 71.2353C150.044 69.6176 150.044 68.1471 150.044 66.8235C150.044 65.5 150.044 64.0294 150.044 62.4118C151.625 62.4118 153.096 62.4118 154.456 62.4118C155.816 62.4118 157.287 62.4118 158.868 62.4118C158.868 64.0294 158.868 65.5 158.868 66.8235C158.868 68.1471 158.868 69.6176 158.868 71.2353C157.287 71.2353 155.816 71.2353 154.456 71.2353C153.096 71.2353 151.625 71.2353 150.044 71.2353ZM150.044 71.2353C150.044 69.6176 150.044 68.1471 150.044 66.8235C150.044 65.5 150.044 64.0294 150.044 62.4118C151.625 62.4118 153.096 62.4118 154.456 62.4118C155.816 62.4118 157.287 62.4118 158.868 62.4118C158.868 64.0294 158.868 65.5 158.868 66.8235C158.868 68.1471 158.868 69.6176 158.868 71.2353C157.287 71.2353 155.816 71.2353 154.456 71.2353C153.096 71.2353 151.625 71.2353 150.044 71.2353ZM150.044 71.2353C150.044 69.6176 150.044 68.1471 150.044 66.8235C150.044 65.5 150.044 64.0294 150.044 62.4118C151.625 62.4118 153.096 62.4118 154.456 62.4118C155.816 62.4118 157.287 62.4118 158.868 62.4118C158.868 64.0294 158.868 65.5 158.868 66.8235C158.868 68.1471 158.868 69.6176 158.868 71.2353C157.287 71.2353 155.816 71.2353 154.456 71.2353C153.096 71.2353 151.625 71.2353 150.044 71.2353ZM150.044 71.2353C150.044 69.6176 150.044 68.1471 150.044 66.8235C150.044 65.5 150.044 64.0294 150.044 62.4118C151.625 62.4118 153.096 62.4118 154.456 62.4118C155.816 62.4118 157.287 62.4118 158.868 62.4118C158.868 64.0294 158.868 65.5 158.868 66.8235C158.868 68.1471 158.868 69.6176 158.868 71.2353C157.287 71.2353 155.816 71.2353 154.456 71.2353C153.096 71.2353 151.625 71.2353 150.044 71.2353ZM150.044 71.2353C150.044 69.6176 150.044 68.1471 150.044 66.8235C150.044 65.5 150.044 64.0294 150.044 62.4118C151.625 62.4118 153.096 62.4118 154.456 62.4118C155.816 62.4118 157.287 62.4118 158.868 62.4118C158.868 64.0294 158.868 65.5 158.868 66.8235C158.868 68.1471 158.868 69.6176 158.868 71.2353C157.287 71.2353 155.816 71.2353 154.456 71.2353C153.096 71.2353 151.625 71.2353 150.044 71.2353ZM119.162 62.4118C119.162 60.7941 119.162 59.3235 119.162 58C119.162 56.6765 119.162 55.2059 119.162 53.5882C120.743 53.5882 122.213 53.5882 123.574 53.5882C124.934 53.5882 126.405 53.5882 127.985 53.5882C127.985 55.2059 127.985 56.6765 127.985 58C127.985 59.3235 127.985 60.7941 127.985 62.4118C126.405 62.4118 124.934 62.4118 123.574 62.4118C122.213 62.4118 120.743 62.4118 119.162 62.4118ZM119.162 62.4118C119.162 60.7941 119.162 59.3235 119.162 58C119.162 56.6765 119.162 55.2059 119.162 53.5882C120.743 53.5882 122.213 53.5882 123.574 53.5882C124.934 53.5882 126.405 53.5882 127.985 53.5882C127.985 55.2059 127.985 56.6765 127.985 58C127.985 59.3235 127.985 60.7941 127.985 62.4118C126.405 62.4118 124.934 62.4118 123.574 62.4118C122.213 62.4118 120.743 62.4118 119.162 62.4118ZM119.162 62.4118C119.162 60.7941 119.162 59.3235 119.162 58C119.162 56.6765 119.162 55.2059 119.162 53.5882C120.743 53.5882 122.213 53.5882 123.574 53.5882C124.934 53.5882 126.405 53.5882 127.985 53.5882C127.985 55.2059 127.985 56.6765 127.985 58C127.985 59.3235 127.985 60.7941 127.985 62.4118C126.405 62.4118 124.934 62.4118 123.574 62.4118C122.213 62.4118 120.743 62.4118 119.162 62.4118ZM119.162 62.4118C119.162 60.7941 119.162 59.3235 119.162 58C119.162 56.6765 119.162 55.2059 119.162 53.5882C120.743 53.5882 122.213 53.5882 123.574 53.5882C124.934 53.5882 126.405 53.5882 127.985 53.5882C127.985 55.2059 127.985 56.6765 127.985 58C127.985 59.3235 127.985 60.7941 127.985 62.4118C126.405 62.4118 124.934 62.4118 123.574 62.4118C122.213 62.4118 120.743 62.4118 119.162 62.4118ZM119.162 62.4118C119.162 60.7941 119.162 59.3235 119.162 58C119.162 56.6765 119.162 55.2059 119.162 53.5882C120.743 53.5882 122.213 53.5882 123.574 53.5882C124.934 53.5882 126.405 53.5882 127.985 53.5882C127.985 55.2059 127.985 56.6765 127.985 58C127.985 59.3235 127.985 60.7941 127.985 62.4118C126.405 62.4118 124.934 62.4118 123.574 62.4118C122.213 62.4118 120.743 62.4118 119.162 62.4118ZM119.162 62.4118C119.162 60.7941 119.162 59.3235 119.162 58C119.162 56.6765 119.162 55.2059 119.162 53.5882C120.743 53.5882 122.213 53.5882 123.574 53.5882C124.934 53.5882 126.405 53.5882 127.985 53.5882C127.985 55.2059 127.985 56.6765 127.985 58C127.985 59.3235 127.985 60.7941 127.985 62.4118C126.405 62.4118 124.934 62.4118 123.574 62.4118C122.213 62.4118 120.743 62.4118 119.162 62.4118ZM119.162 62.4118C119.162 60.7941 119.162 59.3235 119.162 58C119.162 56.6765 119.162 55.2059 119.162 53.5882C120.743 53.5882 122.213 53.5882 123.574 53.5882C124.934 53.5882 126.405 53.5882 127.985 53.5882C127.985 55.2059 127.985 56.6765 127.985 58C127.985 59.3235 127.985 60.7941 127.985 62.4118C126.405 62.4118 124.934 62.4118 123.574 62.4118C122.213 62.4118 120.743 62.4118 119.162 62.4118ZM119.162 62.4118C119.162 60.7941 119.162 59.3235 119.162 58C119.162 56.6765 119.162 55.2059 119.162 53.5882C120.743 53.5882 122.213 53.5882 123.574 53.5882C124.934 53.5882 126.405 53.5882 127.985 53.5882C127.985 55.2059 127.985 56.6765 127.985 58C127.985 59.3235 127.985 60.7941 127.985 62.4118C126.405 62.4118 124.934 62.4118 123.574 62.4118C122.213 62.4118 120.743 62.4118 119.162 62.4118ZM119.162 62.4118C119.162 60.7941 119.162 59.3235 119.162 58C119.162 56.6765 119.162 55.2059 119.162 53.5882C120.743 53.5882 122.213 53.5882 123.574 53.5882C124.934 53.5882 126.405 53.5882 127.985 53.5882C127.985 55.2059 127.985 56.6765 127.985 58C127.985 59.3235 127.985 60.7941 127.985 62.4118C126.405 62.4118 124.934 62.4118 123.574 62.4118C122.213 62.4118 120.743 62.4118 119.162 62.4118ZM145.632 62.4118C145.632 60.7941 145.632 59.3235 145.632 58C145.632 56.6765 145.632 55.2059 145.632 53.5882C147.213 53.5882 148.684 53.5882 150.044 53.5882C151.405 53.5882 152.875 53.5882 154.456 53.5882C154.456 55.2059 154.456 56.6765 154.456 58C154.456 59.3235 154.456 60.7941 154.456 62.4118C152.875 62.4118 151.405 62.4118 150.044 62.4118C148.684 62.4118 147.213 62.4118 145.632 62.4118ZM145.632 62.4118C145.632 60.7941 145.632 59.3235 145.632 58C145.632 56.6765 145.632 55.2059 145.632 53.5882C147.213 53.5882 148.684 53.5882 150.044 53.5882C151.405 53.5882 152.875 53.5882 154.456 53.5882C154.456 55.2059 154.456 56.6765 154.456 58C154.456 59.3235 154.456 60.7941 154.456 62.4118C152.875 62.4118 151.405 62.4118 150.044 62.4118C148.684 62.4118 147.213 62.4118 145.632 62.4118ZM145.632 62.4118C145.632 60.7941 145.632 59.3235 145.632 58C145.632 56.6765 145.632 55.2059 145.632 53.5882C147.213 53.5882 148.684 53.5882 150.044 53.5882C151.405 53.5882 152.875 53.5882 154.456 53.5882C154.456 55.2059 154.456 56.6765 154.456 58C154.456 59.3235 154.456 60.7941 154.456 62.4118C152.875 62.4118 151.405 62.4118 150.044 62.4118C148.684 62.4118 147.213 62.4118 145.632 62.4118ZM145.632 62.4118C145.632 60.7941 145.632 59.3235 145.632 58C145.632 56.6765 145.632 55.2059 145.632 53.5882C147.213 53.5882 148.684 53.5882 150.044 53.5882C151.405 53.5882 152.875 53.5882 154.456 53.5882C154.456 55.2059 154.456 56.6765 154.456 58C154.456 59.3235 154.456 60.7941 154.456 62.4118C152.875 62.4118 151.405 62.4118 150.044 62.4118C148.684 62.4118 147.213 62.4118 145.632 62.4118ZM145.632 62.4118C145.632 60.7941 145.632 59.3235 145.632 58C145.632 56.6765 145.632 55.2059 145.632 53.5882C147.213 53.5882 148.684 53.5882 150.044 53.5882C151.405 53.5882 152.875 53.5882 154.456 53.5882C154.456 55.2059 154.456 56.6765 154.456 58C154.456 59.3235 154.456 60.7941 154.456 62.4118C152.875 62.4118 151.405 62.4118 150.044 62.4118C148.684 62.4118 147.213 62.4118 145.632 62.4118ZM145.632 62.4118C145.632 60.7941 145.632 59.3235 145.632 58C145.632 56.6765 145.632 55.2059 145.632 53.5882C147.213 53.5882 148.684 53.5882 150.044 53.5882C151.405 53.5882 152.875 53.5882 154.456 53.5882C154.456 55.2059 154.456 56.6765 154.456 58C154.456 59.3235 154.456 60.7941 154.456 62.4118C152.875 62.4118 151.405 62.4118 150.044 62.4118C148.684 62.4118 147.213 62.4118 145.632 62.4118ZM145.632 62.4118C145.632 60.7941 145.632 59.3235 145.632 58C145.632 56.6765 145.632 55.2059 145.632 53.5882C147.213 53.5882 148.684 53.5882 150.044 53.5882C151.405 53.5882 152.875 53.5882 154.456 53.5882C154.456 55.2059 154.456 56.6765 154.456 58C154.456 59.3235 154.456 60.7941 154.456 62.4118C152.875 62.4118 151.405 62.4118 150.044 62.4118C148.684 62.4118 147.213 62.4118 145.632 62.4118ZM145.632 62.4118C145.632 60.7941 145.632 59.3235 145.632 58C145.632 56.6765 145.632 55.2059 145.632 53.5882C147.213 53.5882 148.684 53.5882 150.044 53.5882C151.405 53.5882 152.875 53.5882 154.456 53.5882C154.456 55.2059 154.456 56.6765 154.456 58C154.456 59.3235 154.456 60.7941 154.456 62.4118C152.875 62.4118 151.405 62.4118 150.044 62.4118C148.684 62.4118 147.213 62.4118 145.632 62.4118ZM145.632 62.4118C145.632 60.7941 145.632 59.3235 145.632 58C145.632 56.6765 145.632 55.2059 145.632 53.5882C147.213 53.5882 148.684 53.5882 150.044 53.5882C151.405 53.5882 152.875 53.5882 154.456 53.5882C154.456 55.2059 154.456 56.6765 154.456 58C154.456 59.3235 154.456 60.7941 154.456 62.4118C152.875 62.4118 151.405 62.4118 150.044 62.4118C148.684 62.4118 147.213 62.4118 145.632 62.4118ZM123.574 53.5882C123.574 51.9706 123.574 50.5 123.574 49.1765C123.574 47.8529 123.574 46.3823 123.574 44.7647C125.155 44.7647 126.625 44.7647 127.985 44.7647C129.346 44.7647 130.816 44.7647 132.397 44.7647C132.397 46.3823 132.397 47.8529 132.397 49.1765C132.397 50.5 132.397 51.9706 132.397 53.5882C130.816 53.5882 129.346 53.5882 127.985 53.5882C126.625 53.5882 125.155 53.5882 123.574 53.5882ZM123.574 53.5882C123.574 51.9706 123.574 50.5 123.574 49.1765C123.574 47.8529 123.574 46.3823 123.574 44.7647C125.155 44.7647 126.625 44.7647 127.985 44.7647C129.346 44.7647 130.816 44.7647 132.397 44.7647C132.397 46.3823 132.397 47.8529 132.397 49.1765C132.397 50.5 132.397 51.9706 132.397 53.5882C130.816 53.5882 129.346 53.5882 127.985 53.5882C126.625 53.5882 125.155 53.5882 123.574 53.5882ZM123.574 53.5882C123.574 51.9706 123.574 50.5 123.574 49.1765C123.574 47.8529 123.574 46.3823 123.574 44.7647C125.155 44.7647 126.625 44.7647 127.985 44.7647C129.346 44.7647 130.816 44.7647 132.397 44.7647C132.397 46.3823 132.397 47.8529 132.397 49.1765C132.397 50.5 132.397 51.9706 132.397 53.5882C130.816 53.5882 129.346 53.5882 127.985 53.5882C126.625 53.5882 125.155 53.5882 123.574 53.5882ZM123.574 53.5882C123.574 51.9706 123.574 50.5 123.574 49.1765C123.574 47.8529 123.574 46.3823 123.574 44.7647C125.155 44.7647 126.625 44.7647 127.985 44.7647C129.346 44.7647 130.816 44.7647 132.397 44.7647C132.397 46.3823 132.397 47.8529 132.397 49.1765C132.397 50.5 132.397 51.9706 132.397 53.5882C130.816 53.5882 129.346 53.5882 127.985 53.5882C126.625 53.5882 125.155 53.5882 123.574 53.5882ZM123.574 53.5882C123.574 51.9706 123.574 50.5 123.574 49.1765C123.574 47.8529 123.574 46.3823 123.574 44.7647C125.155 44.7647 126.625 44.7647 127.985 44.7647C129.346 44.7647 130.816 44.7647 132.397 44.7647C132.397 46.3823 132.397 47.8529 132.397 49.1765C132.397 50.5 132.397 51.9706 132.397 53.5882C130.816 53.5882 129.346 53.5882 127.985 53.5882C126.625 53.5882 125.155 53.5882 123.574 53.5882ZM123.574 53.5882C123.574 51.9706 123.574 50.5 123.574 49.1765C123.574 47.8529 123.574 46.3823 123.574 44.7647C125.155 44.7647 126.625 44.7647 127.985 44.7647C129.346 44.7647 130.816 44.7647 132.397 44.7647C132.397 46.3823 132.397 47.8529 132.397 49.1765C132.397 50.5 132.397 51.9706 132.397 53.5882C130.816 53.5882 129.346 53.5882 127.985 53.5882C126.625 53.5882 125.155 53.5882 123.574 53.5882ZM123.574 53.5882C123.574 51.9706 123.574 50.5 123.574 49.1765C123.574 47.8529 123.574 46.3823 123.574 44.7647C125.155 44.7647 126.625 44.7647 127.985 44.7647C129.346 44.7647 130.816 44.7647 132.397 44.7647C132.397 46.3823 132.397 47.8529 132.397 49.1765C132.397 50.5 132.397 51.9706 132.397 53.5882C130.816 53.5882 129.346 53.5882 127.985 53.5882C126.625 53.5882 125.155 53.5882 123.574 53.5882ZM123.574 53.5882C123.574 51.9706 123.574 50.5 123.574 49.1765C123.574 47.8529 123.574 46.3823 123.574 44.7647C125.155 44.7647 126.625 44.7647 127.985 44.7647C129.346 44.7647 130.816 44.7647 132.397 44.7647C132.397 46.3823 132.397 47.8529 132.397 49.1765C132.397 50.5 132.397 51.9706 132.397 53.5882C130.816 53.5882 129.346 53.5882 127.985 53.5882C126.625 53.5882 125.155 53.5882 123.574 53.5882ZM123.574 53.5882C123.574 51.9706 123.574 50.5 123.574 49.1765C123.574 47.8529 123.574 46.3823 123.574 44.7647C125.155 44.7647 126.625 44.7647 127.985 44.7647C129.346 44.7647 130.816 44.7647 132.397 44.7647C132.397 46.3823 132.397 47.8529 132.397 49.1765C132.397 50.5 132.397 51.9706 132.397 53.5882C130.816 53.5882 129.346 53.5882 127.985 53.5882C126.625 53.5882 125.155 53.5882 123.574 53.5882ZM141.221 53.5882C141.221 51.9706 141.221 50.5 141.221 49.1765C141.221 47.8529 141.221 46.3823 141.221 44.7647C142.802 44.7647 144.272 44.7647 145.632 44.7647C146.993 44.7647 148.463 44.7647 150.044 44.7647C150.044 46.3823 150.044 47.8529 150.044 49.1765C150.044 50.5 150.044 51.9706 150.044 53.5882C148.463 53.5882 146.993 53.5882 145.632 53.5882C144.272 53.5882 142.802 53.5882 141.221 53.5882ZM141.221 53.5882C141.221 51.9706 141.221 50.5 141.221 49.1765C141.221 47.8529 141.221 46.3823 141.221 44.7647C142.802 44.7647 144.272 44.7647 145.632 44.7647C146.993 44.7647 148.463 44.7647 150.044 44.7647C150.044 46.3823 150.044 47.8529 150.044 49.1765C150.044 50.5 150.044 51.9706 150.044 53.5882C148.463 53.5882 146.993 53.5882 145.632 53.5882C144.272 53.5882 142.802 53.5882 141.221 53.5882ZM141.221 53.5882C141.221 51.9706 141.221 50.5 141.221 49.1765C141.221 47.8529 141.221 46.3823 141.221 44.7647C142.802 44.7647 144.272 44.7647 145.632 44.7647C146.993 44.7647 148.463 44.7647 150.044 44.7647C150.044 46.3823 150.044 47.8529 150.044 49.1765C150.044 50.5 150.044 51.9706 150.044 53.5882C148.463 53.5882 146.993 53.5882 145.632 53.5882C144.272 53.5882 142.802 53.5882 141.221 53.5882ZM141.221 53.5882C141.221 51.9706 141.221 50.5 141.221 49.1765C141.221 47.8529 141.221 46.3823 141.221 44.7647C142.802 44.7647 144.272 44.7647 145.632 44.7647C146.993 44.7647 148.463 44.7647 150.044 44.7647C150.044 46.3823 150.044 47.8529 150.044 49.1765C150.044 50.5 150.044 51.9706 150.044 53.5882C148.463 53.5882 146.993 53.5882 145.632 53.5882C144.272 53.5882 142.802 53.5882 141.221 53.5882ZM141.221 53.5882C141.221 51.9706 141.221 50.5 141.221 49.1765C141.221 47.8529 141.221 46.3823 141.221 44.7647C142.802 44.7647 144.272 44.7647 145.632 44.7647C146.993 44.7647 148.463 44.7647 150.044 44.7647C150.044 46.3823 150.044 47.8529 150.044 49.1765C150.044 50.5 150.044 51.9706 150.044 53.5882C148.463 53.5882 146.993 53.5882 145.632 53.5882C144.272 53.5882 142.802 53.5882 141.221 53.5882ZM141.221 53.5882C141.221 51.9706 141.221 50.5 141.221 49.1765C141.221 47.8529 141.221 46.3823 141.221 44.7647C142.802 44.7647 144.272 44.7647 145.632 44.7647C146.993 44.7647 148.463 44.7647 150.044 44.7647C150.044 46.3823 150.044 47.8529 150.044 49.1765C150.044 50.5 150.044 51.9706 150.044 53.5882C148.463 53.5882 146.993 53.5882 145.632 53.5882C144.272 53.5882 142.802 53.5882 141.221 53.5882ZM141.221 53.5882C141.221 51.9706 141.221 50.5 141.221 49.1765C141.221 47.8529 141.221 46.3823 141.221 44.7647C142.802 44.7647 144.272 44.7647 145.632 44.7647C146.993 44.7647 148.463 44.7647 150.044 44.7647C150.044 46.3823 150.044 47.8529 150.044 49.1765C150.044 50.5 150.044 51.9706 150.044 53.5882C148.463 53.5882 146.993 53.5882 145.632 53.5882C144.272 53.5882 142.802 53.5882 141.221 53.5882ZM141.221 53.5882C141.221 51.9706 141.221 50.5 141.221 49.1765C141.221 47.8529 141.221 46.3823 141.221 44.7647C142.802 44.7647 144.272 44.7647 145.632 44.7647C146.993 44.7647 148.463 44.7647 150.044 44.7647C150.044 46.3823 150.044 47.8529 150.044 49.1765C150.044 50.5 150.044 51.9706 150.044 53.5882C148.463 53.5882 146.993 53.5882 145.632 53.5882C144.272 53.5882 142.802 53.5882 141.221 53.5882ZM141.221 53.5882C141.221 51.9706 141.221 50.5 141.221 49.1765C141.221 47.8529 141.221 46.3823 141.221 44.7647C142.802 44.7647 144.272 44.7647 145.632 44.7647C146.993 44.7647 148.463 44.7647 150.044 44.7647C150.044 46.3823 150.044 47.8529 150.044 49.1765C150.044 50.5 150.044 51.9706 150.044 53.5882C148.463 53.5882 146.993 53.5882 145.632 53.5882C144.272 53.5882 142.802 53.5882 141.221 53.5882ZM127.985 44.7647C127.985 43.1471 127.985 41.6765 127.985 40.3529C127.985 39.0294 127.985 37.5588 127.985 35.9412C129.566 35.9412 131.037 35.9412 132.397 35.9412C133.757 35.9412 135.228 35.9412 136.809 35.9412C136.809 37.5588 136.809 39.0294 136.809 40.3529C136.809 41.6765 136.809 43.1471 136.809 44.7647C135.228 44.7647 133.757 44.7647 132.397 44.7647C131.037 44.7647 129.566 44.7647 127.985 44.7647ZM127.985 44.7647C127.985 43.1471 127.985 41.6765 127.985 40.3529C127.985 39.0294 127.985 37.5588 127.985 35.9412C129.566 35.9412 131.037 35.9412 132.397 35.9412C133.757 35.9412 135.228 35.9412 136.809 35.9412C136.809 37.5588 136.809 39.0294 136.809 40.3529C136.809 41.6765 136.809 43.1471 136.809 44.7647C135.228 44.7647 133.757 44.7647 132.397 44.7647C131.037 44.7647 129.566 44.7647 127.985 44.7647ZM127.985 44.7647C127.985 43.1471 127.985 41.6765 127.985 40.3529C127.985 39.0294 127.985 37.5588 127.985 35.9412C129.566 35.9412 131.037 35.9412 132.397 35.9412C133.757 35.9412 135.228 35.9412 136.809 35.9412C136.809 37.5588 136.809 39.0294 136.809 40.3529C136.809 41.6765 136.809 43.1471 136.809 44.7647C135.228 44.7647 133.757 44.7647 132.397 44.7647C131.037 44.7647 129.566 44.7647 127.985 44.7647ZM127.985 44.7647C127.985 43.1471 127.985 41.6765 127.985 40.3529C127.985 39.0294 127.985 37.5588 127.985 35.9412C129.566 35.9412 131.037 35.9412 132.397 35.9412C133.757 35.9412 135.228 35.9412 136.809 35.9412C136.809 37.5588 136.809 39.0294 136.809 40.3529C136.809 41.6765 136.809 43.1471 136.809 44.7647C135.228 44.7647 133.757 44.7647 132.397 44.7647C131.037 44.7647 129.566 44.7647 127.985 44.7647ZM127.985 44.7647C127.985 43.1471 127.985 41.6765 127.985 40.3529C127.985 39.0294 127.985 37.5588 127.985 35.9412C129.566 35.9412 131.037 35.9412 132.397 35.9412C133.757 35.9412 135.228 35.9412 136.809 35.9412C136.809 37.5588 136.809 39.0294 136.809 40.3529C136.809 41.6765 136.809 43.1471 136.809 44.7647C135.228 44.7647 133.757 44.7647 132.397 44.7647C131.037 44.7647 129.566 44.7647 127.985 44.7647ZM127.985 44.7647C127.985 43.1471 127.985 41.6765 127.985 40.3529C127.985 39.0294 127.985 37.5588 127.985 35.9412C129.566 35.9412 131.037 35.9412 132.397 35.9412C133.757 35.9412 135.228 35.9412 136.809 35.9412C136.809 37.5588 136.809 39.0294 136.809 40.3529C136.809 41.6765 136.809 43.1471 136.809 44.7647C135.228 44.7647 133.757 44.7647 132.397 44.7647C131.037 44.7647 129.566 44.7647 127.985 44.7647ZM127.985 44.7647C127.985 43.1471 127.985 41.6765 127.985 40.3529C127.985 39.0294 127.985 37.5588 127.985 35.9412C129.566 35.9412 131.037 35.9412 132.397 35.9412C133.757 35.9412 135.228 35.9412 136.809 35.9412C136.809 37.5588 136.809 39.0294 136.809 40.3529C136.809 41.6765 136.809 43.1471 136.809 44.7647C135.228 44.7647 133.757 44.7647 132.397 44.7647C131.037 44.7647 129.566 44.7647 127.985 44.7647ZM127.985 44.7647C127.985 43.1471 127.985 41.6765 127.985 40.3529C127.985 39.0294 127.985 37.5588 127.985 35.9412C129.566 35.9412 131.037 35.9412 132.397 35.9412C133.757 35.9412 135.228 35.9412 136.809 35.9412C136.809 37.5588 136.809 39.0294 136.809 40.3529C136.809 41.6765 136.809 43.1471 136.809 44.7647C135.228 44.7647 133.757 44.7647 132.397 44.7647C131.037 44.7647 129.566 44.7647 127.985 44.7647ZM127.985 44.7647C127.985 43.1471 127.985 41.6765 127.985 40.3529C127.985 39.0294 127.985 37.5588 127.985 35.9412C129.566 35.9412 131.037 35.9412 132.397 35.9412C133.757 35.9412 135.228 35.9412 136.809 35.9412C136.809 37.5588 136.809 39.0294 136.809 40.3529C136.809 41.6765 136.809 43.1471 136.809 44.7647C135.228 44.7647 133.757 44.7647 132.397 44.7647C131.037 44.7647 129.566 44.7647 127.985 44.7647ZM136.809 44.7647C136.809 43.1471 136.809 41.6765 136.809 40.3529C136.809 39.0294 136.809 37.5588 136.809 35.9412C138.39 35.9412 139.86 35.9412 141.221 35.9412C142.581 35.9412 144.052 35.9412 145.632 35.9412C145.632 37.5588 145.632 39.0294 145.632 40.3529C145.632 41.6765 145.632 43.1471 145.632 44.7647C144.052 44.7647 142.581 44.7647 141.221 44.7647C139.86 44.7647 138.39 44.7647 136.809 44.7647ZM136.809 44.7647C136.809 43.1471 136.809 41.6765 136.809 40.3529C136.809 39.0294 136.809 37.5588 136.809 35.9412C138.39 35.9412 139.86 35.9412 141.221 35.9412C142.581 35.9412 144.052 35.9412 145.632 35.9412C145.632 37.5588 145.632 39.0294 145.632 40.3529C145.632 41.6765 145.632 43.1471 145.632 44.7647C144.052 44.7647 142.581 44.7647 141.221 44.7647C139.86 44.7647 138.39 44.7647 136.809 44.7647ZM136.809 44.7647C136.809 43.1471 136.809 41.6765 136.809 40.3529C136.809 39.0294 136.809 37.5588 136.809 35.9412C138.39 35.9412 139.86 35.9412 141.221 35.9412C142.581 35.9412 144.052 35.9412 145.632 35.9412C145.632 37.5588 145.632 39.0294 145.632 40.3529C145.632 41.6765 145.632 43.1471 145.632 44.7647C144.052 44.7647 142.581 44.7647 141.221 44.7647C139.86 44.7647 138.39 44.7647 136.809 44.7647ZM136.809 44.7647C136.809 43.1471 136.809 41.6765 136.809 40.3529C136.809 39.0294 136.809 37.5588 136.809 35.9412C138.39 35.9412 139.86 35.9412 141.221 35.9412C142.581 35.9412 144.052 35.9412 145.632 35.9412C145.632 37.5588 145.632 39.0294 145.632 40.3529C145.632 41.6765 145.632 43.1471 145.632 44.7647C144.052 44.7647 142.581 44.7647 141.221 44.7647C139.86 44.7647 138.39 44.7647 136.809 44.7647ZM136.809 44.7647C136.809 43.1471 136.809 41.6765 136.809 40.3529C136.809 39.0294 136.809 37.5588 136.809 35.9412C138.39 35.9412 139.86 35.9412 141.221 35.9412C142.581 35.9412 144.052 35.9412 145.632 35.9412C145.632 37.5588 145.632 39.0294 145.632 40.3529C145.632 41.6765 145.632 43.1471 145.632 44.7647C144.052 44.7647 142.581 44.7647 141.221 44.7647C139.86 44.7647 138.39 44.7647 136.809 44.7647ZM136.809 44.7647C136.809 43.1471 136.809 41.6765 136.809 40.3529C136.809 39.0294 136.809 37.5588 136.809 35.9412C138.39 35.9412 139.86 35.9412 141.221 35.9412C142.581 35.9412 144.052 35.9412 145.632 35.9412C145.632 37.5588 145.632 39.0294 145.632 40.3529C145.632 41.6765 145.632 43.1471 145.632 44.7647C144.052 44.7647 142.581 44.7647 141.221 44.7647C139.86 44.7647 138.39 44.7647 136.809 44.7647ZM136.809 44.7647C136.809 43.1471 136.809 41.6765 136.809 40.3529C136.809 39.0294 136.809 37.5588 136.809 35.9412C138.39 35.9412 139.86 35.9412 141.221 35.9412C142.581 35.9412 144.052 35.9412 145.632 35.9412C145.632 37.5588 145.632 39.0294 145.632 40.3529C145.632 41.6765 145.632 43.1471 145.632 44.7647C144.052 44.7647 142.581 44.7647 141.221 44.7647C139.86 44.7647 138.39 44.7647 136.809 44.7647ZM136.809 44.7647C136.809 43.1471 136.809 41.6765 136.809 40.3529C136.809 39.0294 136.809 37.5588 136.809 35.9412C138.39 35.9412 139.86 35.9412 141.221 35.9412C142.581 35.9412 144.052 35.9412 145.632 35.9412C145.632 37.5588 145.632 39.0294 145.632 40.3529C145.632 41.6765 145.632 43.1471 145.632 44.7647C144.052 44.7647 142.581 44.7647 141.221 44.7647C139.86 44.7647 138.39 44.7647 136.809 44.7647ZM136.809 44.7647C136.809 43.1471 136.809 41.6765 136.809 40.3529C136.809 39.0294 136.809 37.5588 136.809 35.9412C138.39 35.9412 139.86 35.9412 141.221 35.9412C142.581 35.9412 144.052 35.9412 145.632 35.9412C145.632 37.5588 145.632 39.0294 145.632 40.3529C145.632 41.6765 145.632 43.1471 145.632 44.7647C144.052 44.7647 142.581 44.7647 141.221 44.7647C139.86 44.7647 138.39 44.7647 136.809 44.7647ZM194.214 133V128.588V124.176V119.765V115.353V110.941V106.529V102.118V97.7059H189.802V93.2941V88.8824H185.39V84.4706V80.0588H180.978V75.6471V71.2353H176.567V66.8235V62.4118H172.155V58V53.5882V49.1765V44.7647V40.3529V35.9412H176.567H180.978V40.3529V44.7647V49.1765V53.5882V58V62.4118H185.39V66.8235V71.2353H189.802V75.6471V80.0588H194.214V84.4706V88.8824H198.625H203.037V84.4706V80.0588H207.449V75.6471V71.2353H211.861V66.8235V62.4118H216.272V58V53.5882V49.1765V44.7647V40.3529V35.9412H220.684H225.096V40.3529V44.7647V49.1765V53.5882V58V62.4118H220.684V66.8235V71.2353H216.272V75.6471V80.0588H211.861V84.4706V88.8824H207.449V93.2941V97.7059H203.037V102.118V106.529V110.941V115.353V119.765V124.176V128.588V133H198.625H194.214Z" fill="white"/>
<path d="M421 83L310 147.086L310 18.9141L421 83Z" fill="#D9D9D9"/>
<rect x="263" y="17" width="30" height="131" fill="#D9D9D9"/>
</svg>
